<svg width="512" height="512" viewBox="0 0 512 512" fill="none" xmlns="http://www.w3.org/2000/svg">
<g clip-path="url(#clip0_1143_35)">
<path fill-rule="evenodd" clip-rule="evenodd" d="M23.0112 201.348C16.1079 201.348 10.3551 203.649 5.75281 208.252C1.15056 212.854 0 218.607 0 225.51L21.8607 491.29C23.0112 502.796 32.2157 512 44.8719 512H470.58C482.085 512 492.44 502.796 492.44 491.29L512 256.575C513.151 250.822 510.849 243.919 506.247 239.317C501.645 234.715 495.892 232.413 490.139 232.413H278.436C271.533 232.413 265.78 231.263 260.027 230.112C254.274 227.811 249.672 225.51 243.919 222.058L220.908 205.951C218.607 203.649 216.306 202.499 214.004 202.499C211.703 201.348 209.402 201.348 205.951 201.348H46.0225H23.0112ZM26.4629 172.584V123.11C26.4629 110.454 36.818 100.099 49.4742 100.099H89.7438C93.1955 100.099 96.6472 104.701 96.6472 108.153V170.283C96.6472 174.885 93.1955 178.337 88.5933 178.337H32.2157C29.9146 178.337 26.4629 176.036 26.4629 172.584ZM444.117 139.218H464.827C477.483 139.218 487.838 149.573 487.838 162.229V203.649C487.838 207.101 485.537 209.402 482.085 209.402H444.117C439.515 209.402 436.063 205.951 436.063 201.348V147.272C436.063 143.82 439.515 139.218 444.117 139.218Z" fill="#3F3A64"/>
<path fill-rule="evenodd" clip-rule="evenodd" d="M150.724 0H323.308C329.061 0 332.512 2.30112 335.964 5.75281L411.901 81.6899C415.353 85.1416 417.654 88.5933 417.654 94.3461V212.854H393.492V97.7978H345.168C331.362 97.7978 319.856 86.2921 319.856 72.4854V24.1618H150.724C147.272 24.1618 146.121 26.4629 146.121 28.764V180.638H121.959V28.764C121.959 12.6562 134.616 0 150.724 0ZM210.553 121.96H225.51V64.4315C225.51 59.8292 228.962 56.3775 233.564 56.3775H264.629C269.231 56.3775 272.683 59.8292 272.683 64.4315V121.96H287.64C291.092 121.96 293.393 124.261 294.544 126.562C295.694 130.013 295.694 133.465 294.544 135.766L255.425 187.542C254.274 188.692 251.973 189.843 249.672 189.843C246.22 189.843 243.919 188.692 242.768 187.542L203.649 135.766C202.499 133.465 202.499 130.013 203.649 126.562C204.8 124.261 207.101 121.96 210.553 121.96Z" fill="#AAC5D5"/>
</g>
<defs>
<clipPath id="clip0_1143_35">
<rect width="512" height="512" fill="white"/>
</clipPath>
</defs>
</svg>
