<svg xmlns="http://www.w3.org/2000/svg" version="1.1" xmlns:xlink="http://www.w3.org/1999/xlink" width="512" height="512" x="0" y="0" viewBox="0 0 682.667 682.667" style="enable-background:new 0 0 512 512" xml:space="preserve"><g><defs><clipPath id="a" clipPathUnits="userSpaceOnUse"><path d="M0 512h512V0H0Z" fill="#3f3a64" opacity="1" data-original="#3f3a64"></path></clipPath></defs><g clip-path="url(#a)" transform="matrix(1.33333 0 0 -1.33333 0 682.667)"><path d="M0 0v-122.733c0-16.568-13.432-30-30-30h-385.748c-16.568 0-30 13.432-30 30V-81" style="stroke-width:15;stroke-linecap:round;stroke-linejoin:round;stroke-miterlimit:10;stroke-dasharray:none;stroke-opacity:1" transform="translate(478.874 160.233)" fill="none" stroke="#0270c1" stroke-width="15" stroke-linecap="round" stroke-linejoin="round" stroke-miterlimit="10" stroke-dasharray="none" stroke-opacity="" data-original="#3f3a64"></path><path d="M0 0h-304.084c-16.596 0-30.05 13.454-30.05 30.05v372.626c0 16.596 13.454 30.05 30.05 30.05H81.563c16.597 0 30.051-13.454 30.051-30.05V111.614c0-7.97-3.166-15.614-8.802-21.249L21.249 8.802A30.05 30.05 0 0 0 0 0Z" style="stroke-width:15;stroke-linecap:round;stroke-linejoin:round;stroke-miterlimit:10;stroke-dasharray:none;stroke-opacity:1" transform="translate(367.26 37.5)" fill="none" stroke="#3f3a64" stroke-width="15" stroke-linecap="round" stroke-linejoin="round" stroke-miterlimit="10" stroke-dasharray="none" stroke-opacity="" data-original="#3f3a64"></path><path d="M0 0c13.598 0 24.622 11.023 24.622 24.622v50.063c0 13.598 11.023 24.622 24.621 24.622h50.064c13.598 0 24.621 11.023 24.621 24.621" style="stroke-width:15;stroke-linecap:round;stroke-linejoin:round;stroke-miterlimit:10;stroke-dasharray:none;stroke-opacity:1" transform="translate(354.946 37.5)" fill="none" stroke="#3f3a64" stroke-width="15" stroke-linecap="round" stroke-linejoin="round" stroke-miterlimit="10" stroke-dasharray="none" stroke-opacity="" data-original="#3f3a64"></path><path d="M0 0h-88.674" style="stroke-width:15;stroke-linecap:round;stroke-linejoin:round;stroke-miterlimit:10;stroke-dasharray:none;stroke-opacity:1" transform="translate(121.8 363.046)" fill="none" stroke="#3f3a64" stroke-width="15" stroke-linecap="round" stroke-linejoin="round" stroke-miterlimit="10" stroke-dasharray="none" stroke-opacity="" data-original="#3f3a64"></path><path d="M0 0h-327.074" style="stroke-width:15;stroke-linecap:round;stroke-linejoin:round;stroke-miterlimit:10;stroke-dasharray:none;stroke-opacity:1" transform="translate(478.874 363.046)" fill="none" stroke="#3f3a64" stroke-width="15" stroke-linecap="round" stroke-linejoin="round" stroke-miterlimit="10" stroke-dasharray="none" stroke-opacity="" data-original="#3f3a64"></path><path d="M0 0c-8.454 0-15.307 6.853-15.307 15.307v48.519c0 8.454 6.853 15.307 15.307 15.307h3.443c8.454 0 15.307-6.853 15.307-15.307V44.859" style="stroke-width:15;stroke-linecap:round;stroke-linejoin:round;stroke-miterlimit:10;stroke-dasharray:none;stroke-opacity:1" transform="translate(118.05 425.367)" fill="none" stroke="#0270c1" stroke-width="15" stroke-linecap="round" stroke-linejoin="round" stroke-miterlimit="10" stroke-dasharray="none" stroke-opacity="" data-original="#3f3a64"></path><path d="M0 0c-8.454 0-15.307 6.853-15.307 15.307v48.519c0 8.454 6.853 15.307 15.307 15.307h3.443c8.454 0 15.307-6.853 15.307-15.307V44.859" style="stroke-width:15;stroke-linecap:round;stroke-linejoin:round;stroke-miterlimit:10;stroke-dasharray:none;stroke-opacity:1" transform="translate(390.507 425.367)" fill="none" stroke="#0270c1" stroke-width="15" stroke-linecap="round" stroke-linejoin="round" stroke-miterlimit="10" stroke-dasharray="none" stroke-opacity="" data-original="#3f3a64"></path><path d="M0 0h-35.714a7.143 7.143 0 0 0-7.143 7.143v35.714A7.143 7.143 0 0 0-35.714 50H0a7.143 7.143 0 0 0 7.143-7.143V7.143A7.143 7.143 0 0 0 0 0Z" style="stroke-width:15;stroke-linecap:round;stroke-linejoin:round;stroke-miterlimit:10;stroke-dasharray:none;stroke-opacity:1" transform="translate(120.983 268.046)" fill="none" stroke="#3f3a64" stroke-width="15" stroke-linecap="round" stroke-linejoin="round" stroke-miterlimit="10" stroke-dasharray="none" stroke-opacity="" data-original="#3f3a64"></path><path d="M0 0h-35.714a7.143 7.143 0 0 0-7.143 7.143v35.714A7.143 7.143 0 0 0-35.714 50H0a7.143 7.143 0 0 0 7.143-7.143V7.143A7.143 7.143 0 0 0 0 0Z" style="stroke-width:15;stroke-linecap:round;stroke-linejoin:round;stroke-miterlimit:10;stroke-dasharray:none;stroke-opacity:1" transform="translate(222.899 268.046)" fill="none" stroke="#3f3a64" stroke-width="15" stroke-linecap="round" stroke-linejoin="round" stroke-miterlimit="10" stroke-dasharray="none" stroke-opacity="" data-original="#3f3a64"></path><path d="M0 0h-35.714a7.143 7.143 0 0 0-7.143 7.143v35.714A7.143 7.143 0 0 0-35.714 50H0a7.143 7.143 0 0 0 7.143-7.143V7.143A7.143 7.143 0 0 0 0 0Z" style="stroke-width:15;stroke-linecap:round;stroke-linejoin:round;stroke-miterlimit:10;stroke-dasharray:none;stroke-opacity:1" transform="translate(324.815 268.046)" fill="none" stroke="#3f3a64" stroke-width="15" stroke-linecap="round" stroke-linejoin="round" stroke-miterlimit="10" stroke-dasharray="none" stroke-opacity="" data-original="#3f3a64"></path><path d="M0 0h-35.714a7.143 7.143 0 0 0-7.143 7.143v35.714A7.143 7.143 0 0 0-35.714 50H0a7.143 7.143 0 0 0 7.143-7.143V7.143A7.143 7.143 0 0 0 0 0Z" style="stroke-width:15;stroke-linecap:round;stroke-linejoin:round;stroke-miterlimit:10;stroke-dasharray:none;stroke-opacity:1" transform="translate(426.731 268.046)" fill="none" stroke="#3f3a64" stroke-width="15" stroke-linecap="round" stroke-linejoin="round" stroke-miterlimit="10" stroke-dasharray="none" stroke-opacity="" data-original="#3f3a64"></path><path d="M0 0h-35.714a7.143 7.143 0 0 0-7.143 7.143v35.714A7.143 7.143 0 0 0-35.714 50H0a7.143 7.143 0 0 0 7.143-7.143V7.143A7.143 7.143 0 0 0 0 0Z" style="stroke-width:15;stroke-linecap:round;stroke-linejoin:round;stroke-miterlimit:10;stroke-dasharray:none;stroke-opacity:1" transform="translate(120.983 175.273)" fill="none" stroke="#3f3a64" stroke-width="15" stroke-linecap="round" stroke-linejoin="round" stroke-miterlimit="10" stroke-dasharray="none" stroke-opacity="" data-original="#3f3a64"></path><path d="M0 0h-35.714a7.143 7.143 0 0 0-7.143 7.143v35.714A7.143 7.143 0 0 0-35.714 50H0a7.143 7.143 0 0 0 7.143-7.143V7.143A7.143 7.143 0 0 0 0 0Z" style="stroke-width:15;stroke-linecap:round;stroke-linejoin:round;stroke-miterlimit:10;stroke-dasharray:none;stroke-opacity:1" transform="translate(222.899 175.273)" fill="none" stroke="#3f3a64" stroke-width="15" stroke-linecap="round" stroke-linejoin="round" stroke-miterlimit="10" stroke-dasharray="none" stroke-opacity="" data-original="#3f3a64"></path><path d="M0 0h-35.714a7.143 7.143 0 0 0-7.143 7.143v35.714A7.143 7.143 0 0 0-35.714 50H0a7.143 7.143 0 0 0 7.143-7.143V7.143A7.143 7.143 0 0 0 0 0Z" style="stroke-width:15;stroke-linecap:round;stroke-linejoin:round;stroke-miterlimit:10;stroke-dasharray:none;stroke-opacity:1" transform="translate(324.815 175.273)" fill="none" stroke="#3f3a64" stroke-width="15" stroke-linecap="round" stroke-linejoin="round" stroke-miterlimit="10" stroke-dasharray="none" stroke-opacity="" data-original="#3f3a64"></path><path d="M0 0h-35.714a7.143 7.143 0 0 0-7.143 7.143v35.714A7.143 7.143 0 0 0-35.714 50H0a7.143 7.143 0 0 0 7.143-7.143V7.143A7.143 7.143 0 0 0 0 0Z" style="stroke-width:15;stroke-linecap:round;stroke-linejoin:round;stroke-miterlimit:10;stroke-dasharray:none;stroke-opacity:1" transform="translate(426.731 173.046)" fill="none" stroke="#0270c1" stroke-width="15" stroke-linecap="round" stroke-linejoin="round" stroke-miterlimit="10" stroke-dasharray="none" stroke-opacity="" data-original="#3f3a64"></path><path d="M0 0h-35.714a7.143 7.143 0 0 0-7.143 7.143v35.714A7.143 7.143 0 0 0-35.714 50H0a7.143 7.143 0 0 0 7.143-7.143V7.143A7.143 7.143 0 0 0 0 0Z" style="stroke-width:15;stroke-linecap:round;stroke-linejoin:round;stroke-miterlimit:10;stroke-dasharray:none;stroke-opacity:1" transform="translate(120.983 82.5)" fill="none" stroke="#0270c1" stroke-width="15" stroke-linecap="round" stroke-linejoin="round" stroke-miterlimit="10" stroke-dasharray="none" stroke-opacity="" data-original="#3f3a64"></path><path d="M0 0h-35.714a7.143 7.143 0 0 0-7.143 7.143v35.714A7.143 7.143 0 0 0-35.714 50H0a7.143 7.143 0 0 0 7.143-7.143V7.143A7.143 7.143 0 0 0 0 0Z" style="stroke-width:15;stroke-linecap:round;stroke-linejoin:round;stroke-miterlimit:10;stroke-dasharray:none;stroke-opacity:1" transform="translate(222.899 82.5)" fill="none" stroke="#0270c1" stroke-width="15" stroke-linecap="round" stroke-linejoin="round" stroke-miterlimit="10" stroke-dasharray="none" stroke-opacity="" data-original="#3f3a64"></path><path d="M0 0v10.299a7.142 7.142 0 0 0 7.143 7.143h35.714A7.142 7.142 0 0 0 50 10.299v-35.714a7.143 7.143 0 0 0-7.143-7.143H7.143A7.143 7.143 0 0 0 0-25.415" style="stroke-width:15;stroke-linecap:round;stroke-linejoin:round;stroke-miterlimit:10;stroke-dasharray:none;stroke-opacity:1" transform="translate(281.958 115.058)" fill="none" stroke="#0270c1" stroke-width="15" stroke-linecap="round" stroke-linejoin="round" stroke-miterlimit="10" stroke-dasharray="none" stroke-opacity="" data-original="#3f3a64"></path></g></g></svg>
