<svg width="512" height="512" viewBox="0 0 512 512" fill="none" xmlns="http://www.w3.org/2000/svg">
<path d="M406.135 40.634H454.8C473.098 40.634 487.932 55.468 487.932 73.766V471.368C487.932 489.666 473.098 504.5 454.8 504.5H57.1989C38.9009 504.5 24.0669 489.666 24.0669 471.368V73.766C24.0669 55.468 38.9009 40.634 57.1989 40.634H406.135Z" fill="#C1C1C1"/>
<path d="M454.8 40.634H429.951C448.249 40.634 463.083 55.468 463.083 73.766V471.368C463.083 489.666 448.249 504.5 429.951 504.5H454.8C473.098 504.5 487.932 489.666 487.932 471.368V73.766C487.932 55.468 473.098 40.634 454.8 40.634Z" fill="#A8A8A8"/>
<path d="M487.932 438.232C487.932 456.53 473.098 471.364 454.8 471.364H57.1989C38.9009 471.364 24.0669 456.53 24.0669 438.232V156.601H487.933L487.932 438.232Z" fill="#EEEEEF"/>
<path d="M463.083 156.601L463.082 438.232C463.082 456.53 448.248 471.364 429.95 471.364H454.8C473.098 471.364 487.932 456.53 487.932 438.232L487.933 156.601H463.083Z" fill="#D9D9D9"/>
<path d="M487.932 173.167V73.766C487.932 55.468 473.098 40.634 454.8 40.634H57.1989C38.9009 40.634 24.0669 55.468 24.0669 73.766V173.167H487.932Z" fill="#AAC5D5"/>
<path d="M454.8 40.634H429.951C448.249 40.634 463.083 55.468 463.083 73.766V173.167H487.931V73.766C487.932 55.468 473.098 40.634 454.8 40.634Z" fill="#95A9B5"/>
<path d="M371.966 73.766C371.966 82.916 379.383 90.333 388.533 90.333C397.683 90.333 405.1 82.916 405.1 73.766V24.066C405.1 14.916 397.683 7.49902 388.533 7.49902C379.383 7.49902 371.966 14.916 371.966 24.066V73.766Z" fill="#C1C1C1"/>
<path d="M388.533 67.036C379.383 67.036 371.966 59.619 371.966 50.469V73.766C371.966 82.916 379.383 90.333 388.533 90.333C397.683 90.333 405.1 82.916 405.1 73.766V50.469C405.099 59.619 397.682 67.036 388.533 67.036Z" fill="#A8A8A8"/>
<path d="M106.899 73.766C106.899 82.916 114.316 90.333 123.466 90.333C132.616 90.333 140.033 82.916 140.033 73.766V24.066C140.033 14.916 132.616 7.49902 123.466 7.49902C114.316 7.49902 106.899 14.916 106.899 24.066V73.766Z" fill="#C1C1C1"/>
<path d="M123.465 67.036C114.315 67.036 106.898 59.619 106.898 50.469V73.766C106.898 82.916 114.315 90.333 123.465 90.333C132.615 90.333 140.032 82.916 140.032 73.766V50.469C140.032 59.619 132.614 67.036 123.465 67.036Z" fill="#A8A8A8"/>
<path d="M495.432 173.148V140.053L495.433 140.034L495.432 140.015V73.766C495.432 51.361 477.204 33.134 454.8 33.134H412.6V24.067C412.6 10.796 401.803 0 388.533 0C375.262 0 364.466 10.796 364.466 24.067V33.134H147.533V24.067C147.533 10.796 136.736 0 123.466 0C110.196 0 99.3989 10.796 99.3989 24.067V33.134H57.1989C34.7939 33.134 16.5669 51.362 16.5669 73.766V471.368C16.5669 493.773 34.7949 512 57.1989 512H454.8C477.205 512 495.432 493.772 495.432 471.368V173.186L495.433 173.167L495.432 173.148ZM31.5669 180.667H91.8989C93.888 180.667 95.7957 179.877 97.2022 178.47C98.6087 177.064 99.3989 175.156 99.3989 173.167C99.3989 171.178 98.6087 169.27 97.2022 167.864C95.7957 166.457 93.888 165.667 91.8989 165.667H31.5669V147.533H480.432V165.667H121.899C119.91 165.667 118.002 166.457 116.596 167.864C115.189 169.27 114.399 171.178 114.399 173.167C114.399 175.156 115.189 177.064 116.596 178.47C118.002 179.877 119.91 180.667 121.899 180.667H480.432V438.231C480.432 452.365 468.933 463.863 454.8 463.863H57.1989C43.0649 463.863 31.5669 452.364 31.5669 438.231V180.667ZM388.533 15C393.532 15 397.6 19.067 397.6 24.067V73.747L397.599 73.766V73.776C397.594 78.771 393.529 82.833 388.533 82.833C383.535 82.833 379.469 78.768 379.466 73.771V73.766L379.465 73.756V24.066C379.466 19.067 383.533 15 388.533 15ZM114.399 24.067C114.399 19.067 118.466 15 123.466 15C128.465 15 132.533 19.067 132.533 24.067V73.747L132.532 73.766V73.776C132.527 78.771 128.462 82.833 123.466 82.833C118.466 82.833 114.399 78.766 114.399 73.767V24.067ZM57.1989 48.134H99.3989V66.267H98.6149C96.6258 66.267 94.7181 67.0572 93.3116 68.4637C91.9051 69.8702 91.1149 71.7779 91.1149 73.767C91.1149 75.7561 91.9051 77.6638 93.3116 79.0703C94.7181 80.4768 96.6258 81.267 98.6149 81.267H100.602C103.762 90.875 112.814 97.833 123.466 97.833C134.118 97.833 143.17 90.874 146.33 81.267H148.316C150.305 81.267 152.213 80.4768 153.619 79.0703C155.026 77.6638 155.816 75.7561 155.816 73.767C155.816 71.7779 155.026 69.8702 153.619 68.4637C152.213 67.0572 150.305 66.267 148.316 66.267H147.533V48.134H364.466V66.267H363.682C361.693 66.267 359.785 67.0572 358.379 68.4637C356.972 69.8702 356.182 71.7779 356.182 73.767C356.182 75.7561 356.972 77.6638 358.379 79.0703C359.785 80.4768 361.693 81.267 363.682 81.267H365.669C368.829 90.875 377.881 97.833 388.533 97.833C399.185 97.833 408.237 90.874 411.397 81.267H413.383C415.372 81.267 417.28 80.4768 418.686 79.0703C420.093 77.6638 420.883 75.7561 420.883 73.767C420.883 71.7779 420.093 69.8702 418.686 68.4637C417.28 67.0572 415.372 66.267 413.383 66.267H412.6V48.134H454.8C468.934 48.134 480.432 59.633 480.432 73.766V132.533H31.5669V73.766C31.5669 59.632 43.0649 48.134 57.1989 48.134ZM454.8 497H57.1989C43.0649 497 31.5669 485.501 31.5669 471.368V469.73C38.5649 475.435 47.4879 478.864 57.1989 478.864H454.8C464.511 478.864 473.435 475.435 480.432 469.73V471.368C480.432 485.501 468.934 497 454.8 497Z" fill="#3F3A64"/>
<path d="M73.7659 329.766H140.032C142.021 329.766 143.929 328.976 145.335 327.569C146.742 326.163 147.532 324.255 147.532 322.266V255.999C147.532 254.01 146.742 252.102 145.335 250.696C143.929 249.289 142.021 248.499 140.032 248.499H73.7659C71.7767 248.499 69.8691 249.289 68.4626 250.696C67.056 252.102 66.2659 254.01 66.2659 255.999V322.266C66.2659 324.255 67.056 326.163 68.4626 327.569C69.8691 328.976 71.7767 329.766 73.7659 329.766ZM81.2659 263.499H132.532V314.766H81.2659V263.499ZM173.165 329.766H239.432C240.417 329.766 241.392 329.572 242.302 329.195C243.212 328.818 244.039 328.266 244.735 327.569C245.432 326.873 245.984 326.046 246.361 325.136C246.738 324.226 246.932 323.251 246.932 322.266V255.999C246.932 255.014 246.738 254.039 246.361 253.129C245.984 252.219 245.432 251.392 244.735 250.696C244.039 249.999 243.212 249.447 242.302 249.07C241.392 248.693 240.417 248.499 239.432 248.499H173.165C171.176 248.499 169.268 249.289 167.862 250.696C166.455 252.102 165.665 254.01 165.665 255.999V322.266C165.665 324.255 166.455 326.163 167.862 327.569C169.268 328.976 171.176 329.766 173.165 329.766ZM180.665 263.499H231.932V314.766H180.665V263.499ZM272.566 329.766H338.833C340.822 329.766 342.73 328.976 344.136 327.569C345.543 326.163 346.333 324.255 346.333 322.266V255.999C346.333 254.01 345.543 252.102 344.136 250.696C342.73 249.289 340.822 248.499 338.833 248.499H272.566C270.577 248.499 268.669 249.289 267.263 250.696C265.856 252.102 265.066 254.01 265.066 255.999V322.266C265.066 324.255 265.856 326.163 267.263 327.569C268.669 328.976 270.577 329.766 272.566 329.766ZM280.066 263.499H331.333V314.766H280.066V263.499ZM371.965 329.766H438.231C440.22 329.766 442.128 328.976 443.534 327.569C444.941 326.163 445.731 324.255 445.731 322.266V255.999C445.731 254.01 444.941 252.102 443.534 250.696C442.128 249.289 440.22 248.499 438.231 248.499H371.965C369.976 248.499 368.068 249.289 366.662 250.696C365.255 252.102 364.465 254.01 364.465 255.999V322.266C364.465 324.255 365.255 326.163 366.662 327.569C368.068 328.976 369.976 329.766 371.965 329.766ZM379.465 263.499H430.731V314.766H379.465V263.499ZM73.7659 429.167H140.032C142.021 429.167 143.929 428.377 145.335 426.97C146.742 425.564 147.532 423.656 147.532 421.667V355.4C147.532 353.411 146.742 351.503 145.335 350.097C143.929 348.69 142.021 347.9 140.032 347.9H73.7659C71.7767 347.9 69.8691 348.69 68.4626 350.097C67.056 351.503 66.2659 353.411 66.2659 355.4V421.667C66.2659 423.656 67.056 425.564 68.4626 426.97C69.8691 428.377 71.7767 429.167 73.7659 429.167ZM81.2659 362.9H132.532V414.167H81.2659V362.9ZM173.165 429.167H239.432C240.417 429.167 241.392 428.973 242.302 428.596C243.212 428.219 244.039 427.667 244.735 426.97C245.432 426.274 245.984 425.447 246.361 424.537C246.738 423.627 246.932 422.652 246.932 421.667V355.4C246.932 354.415 246.738 353.44 246.361 352.53C245.984 351.62 245.432 350.793 244.735 350.097C244.039 349.4 243.212 348.848 242.302 348.471C241.392 348.094 240.417 347.9 239.432 347.9H173.165C171.176 347.9 169.268 348.69 167.862 350.097C166.455 351.503 165.665 353.411 165.665 355.4V421.667C165.665 423.656 166.455 425.564 167.862 426.97C169.268 428.377 171.176 429.167 173.165 429.167ZM180.665 362.9H231.932V414.167H180.665V362.9ZM272.566 429.167H338.833C340.822 429.167 342.73 428.377 344.136 426.97C345.543 425.564 346.333 423.656 346.333 421.667V355.4C346.333 353.411 345.543 351.503 344.136 350.097C342.73 348.69 340.822 347.9 338.833 347.9H272.566C270.577 347.9 268.669 348.69 267.263 350.097C265.856 351.503 265.066 353.411 265.066 355.4V421.667C265.066 423.656 265.856 425.564 267.263 426.97C268.669 428.377 270.577 429.167 272.566 429.167ZM280.066 362.9H331.333V414.167H280.066V362.9ZM371.965 429.167H438.231C440.22 429.167 442.128 428.377 443.534 426.97C444.941 425.564 445.731 423.656 445.731 421.667V355.4C445.731 353.411 444.941 351.503 443.534 350.097C442.128 348.69 440.22 347.9 438.231 347.9H371.965C369.976 347.9 368.068 348.69 366.662 350.097C365.255 351.503 364.465 353.411 364.465 355.4V421.667C364.465 423.656 365.255 425.564 366.662 426.97C368.068 428.377 369.976 429.167 371.965 429.167ZM379.465 362.9H430.731V414.167H379.465V362.9ZM90.3319 230.365H123.467C125.456 230.365 127.364 229.575 128.77 228.168C130.177 226.762 130.967 224.854 130.967 222.865C130.967 220.876 130.177 218.968 128.77 217.562C127.364 216.155 125.456 215.365 123.467 215.365H90.3319C88.3427 215.365 86.4351 216.155 85.0286 217.562C83.622 218.968 82.8319 220.876 82.8319 222.865C82.8319 224.854 83.622 226.762 85.0286 228.168C86.4351 229.575 88.3427 230.365 90.3319 230.365ZM189.731 230.365H222.866C224.855 230.365 226.763 229.575 228.169 228.168C229.576 226.762 230.366 224.854 230.366 222.865C230.366 220.876 229.576 218.968 228.169 217.562C226.763 216.155 224.855 215.365 222.866 215.365H189.731C187.742 215.365 185.834 216.155 184.428 217.562C183.021 218.968 182.231 220.876 182.231 222.865C182.231 224.854 183.021 226.762 184.428 228.168C185.834 229.575 187.742 230.365 189.731 230.365ZM289.131 230.365H322.266C324.255 230.365 326.163 229.575 327.569 228.168C328.976 226.762 329.766 224.854 329.766 222.865C329.766 220.876 328.976 218.968 327.569 217.562C326.163 216.155 324.255 215.365 322.266 215.365H289.131C287.142 215.365 285.234 216.155 283.828 217.562C282.421 218.968 281.631 220.876 281.631 222.865C281.631 224.854 282.421 226.762 283.828 228.168C285.234 229.575 287.142 230.365 289.131 230.365ZM388.531 230.365H421.666C423.655 230.365 425.563 229.575 426.969 228.168C428.376 226.762 429.166 224.854 429.166 222.865C429.166 220.876 428.376 218.968 426.969 217.562C425.563 216.155 423.655 215.365 421.666 215.365H388.531C386.542 215.365 384.634 216.155 383.228 217.562C381.821 218.968 381.031 220.876 381.031 222.865C381.031 224.854 381.821 226.762 383.228 228.168C384.634 229.575 386.542 230.365 388.531 230.365Z" fill="#3F3A64"/>
</svg>
