<svg width="20" height="20" viewBox="0 0 20 20" fill="none" xmlns="http://www.w3.org/2000/svg">
<g clip-path="url(#clip0_282_2656)">
<path d="M10 0C7.34844 0 4.80312 1.05422 2.92969 2.92891C1.05432 4.80434 0.000519484 7.34778 0 10C0 12.6511 1.05469 15.1964 2.92969 17.0711C4.80312 18.9458 7.34844 20 10 20C12.6516 20 15.1969 18.9458 17.0703 17.0711C18.9453 15.1964 20 12.6511 20 10C20 7.34891 18.9453 4.80359 17.0703 2.92891C15.1969 1.05422 12.6516 0 10 0Z" fill="url(#paint0_linear_282_2656)"/>
<path d="M4.52646 9.89435C7.44208 8.62435 9.38583 7.78701 10.3577 7.38247C13.1358 6.22732 13.7124 6.02669 14.089 6.0199C14.1718 6.01857 14.3561 6.03904 14.4765 6.1363C14.5765 6.21833 14.6046 6.32927 14.6186 6.40716C14.6311 6.48497 14.6483 6.66232 14.6343 6.80076C14.4843 8.38201 13.8327 12.2192 13.5015 13.9903C13.3624 14.7397 13.0858 14.9909 12.8186 15.0154C12.2374 15.0689 11.7968 14.6317 11.2343 14.2631C10.3546 13.6861 9.85771 13.327 9.00302 12.764C8.01552 12.1134 8.65614 11.7558 9.21864 11.1714C9.36552 11.0184 11.9249 8.69107 11.9733 8.47997C11.9796 8.45357 11.9858 8.35513 11.9265 8.30325C11.8686 8.25122 11.7827 8.26904 11.7202 8.2831C11.6311 8.3031 10.2265 9.23247 7.50146 11.0711C7.10302 11.3451 6.74208 11.4787 6.41708 11.4717C6.06083 11.464 5.37333 11.2698 4.86239 11.1039C4.23739 10.9003 3.73895 10.7926 3.7827 10.4468C3.80458 10.2668 4.05302 10.0826 4.52646 9.89435V9.89435Z" fill="white"/>
</g>
<defs>
<linearGradient id="paint0_linear_282_2656" x1="10" y1="0" x2="10" y2="20" gradientUnits="userSpaceOnUse">
<stop stop-color="#2AABEE"/>
<stop offset="1" stop-color="#229ED9"/>
</linearGradient>
<clipPath id="clip0_282_2656">
<rect width="20" height="20" fill="white"/>
</clipPath>
</defs>
</svg>
