<svg width="20" height="20" viewBox="0 0 20 20" fill="none" xmlns="http://www.w3.org/2000/svg">
<path d="M18.4967 4.62354C15.4999 0.00706538 9.39452 -1.35701 4.66604 1.5233C0.0621055 4.40341 -1.42251 10.6508 1.57426 15.2673L1.82398 15.6416L0.833562 19.3902L4.56862 18.385L4.94269 18.6342C6.56332 19.5058 8.3079 20.0026 10.0517 19.9998C11.92 19.9968 13.7875 19.4942 15.4051 18.4924C20.0089 15.4874 21.3691 9.36512 18.4967 4.62354V4.62354ZM15.8965 14.245C15.3995 14.9952 14.7775 15.4958 13.9059 15.6221C13.4076 15.6229 12.7853 15.8737 10.2925 14.8785C8.17349 13.8828 6.4271 12.2619 5.17853 10.3904C4.42979 9.51728 4.05431 8.39379 3.92795 7.26989C3.92634 6.27069 4.2986 5.39579 4.92037 4.77029C5.16908 4.52009 5.41799 4.39479 5.6671 4.39439L6.28988 4.39339C6.53899 4.39299 6.7881 4.39259 6.91346 4.89199C7.16358 5.51608 7.78877 7.01388 7.78897 7.13878C7.91373 7.26348 7.91413 7.51328 7.78977 7.63838C7.91473 7.88797 7.79058 8.13797 7.66622 8.26307C7.54187 8.38817 7.41771 8.63817 7.29336 8.76327C7.04445 8.88857 6.9203 9.13857 7.04525 9.38817C7.54468 10.1368 8.16867 10.8852 8.79245 11.5087C9.54079 12.132 10.2889 12.6304 11.1614 13.0036C11.4107 13.1281 11.6598 13.1277 11.784 12.8777C11.9081 12.6277 12.5299 12.0022 12.7786 11.752C13.0273 11.5018 13.1519 11.5016 13.4012 11.6261L15.3957 12.6221C15.645 12.7466 15.8943 12.8711 16.0191 12.9958C16.1442 13.3703 16.145 13.8699 15.8965 14.245V14.245Z" fill="url(#paint0_linear_282_2652)"/>
<defs>
<linearGradient id="paint0_linear_282_2652" x1="10.0241" y1="19.9999" x2="9.9919" y2="0.0160834" gradientUnits="userSpaceOnUse">
<stop stop-color="#1FAF38"/>
<stop offset="1" stop-color="#60D669"/>
</linearGradient>
</defs>
</svg>
