<svg width="20" height="20" viewBox="0 0 20 20" fill="none" xmlns="http://www.w3.org/2000/svg">
<rect width="20" height="20" rx="10" fill="url(#paint0_linear_282_2644)"/>
<path d="M9.66675 6.60547C7.91675 6.60547 6.52222 8.02734 6.52222 9.75C6.52222 11.5 7.91675 12.8945 9.66675 12.8945C11.3894 12.8945 12.8113 11.5 12.8113 9.75C12.8113 8.02734 11.3894 6.60547 9.66675 6.60547ZM9.66675 11.8008C8.54565 11.8008 7.61597 10.8984 7.61597 9.75C7.61597 8.62891 8.51831 7.72656 9.66675 7.72656C10.7878 7.72656 11.6902 8.62891 11.6902 9.75C11.6902 10.8984 10.7878 11.8008 9.66675 11.8008ZM13.6589 6.49609C13.6589 6.08594 13.3308 5.75781 12.9207 5.75781C12.5105 5.75781 12.1824 6.08594 12.1824 6.49609C12.1824 6.90625 12.5105 7.23438 12.9207 7.23438C13.3308 7.23438 13.6589 6.90625 13.6589 6.49609ZM15.7371 7.23438C15.6824 6.25 15.4636 5.375 14.7527 4.66406C14.0417 3.95313 13.1667 3.73438 12.1824 3.67969C11.1707 3.625 8.1355 3.625 7.12378 3.67969C6.1394 3.73438 5.29175 3.95313 4.55347 4.66406C3.84253 5.375 3.62378 6.25 3.56909 7.23438C3.5144 8.24609 3.5144 11.2813 3.56909 12.293C3.62378 13.2773 3.84253 14.125 4.55347 14.8633C5.29175 15.5742 6.1394 15.793 7.12378 15.8477C8.1355 15.9023 11.1707 15.9023 12.1824 15.8477C13.1667 15.793 14.0417 15.5742 14.7527 14.8633C15.4636 14.125 15.6824 13.2773 15.7371 12.293C15.7917 11.2813 15.7917 8.24609 15.7371 7.23438ZM14.4246 13.3594C14.2332 13.9063 13.7957 14.3164 13.2761 14.5352C12.4558 14.8633 10.5417 14.7813 9.66675 14.7813C8.7644 14.7813 6.85034 14.8633 6.05737 14.5352C5.5105 14.3164 5.10034 13.9063 4.88159 13.3594C4.55347 12.5664 4.6355 10.6523 4.6355 9.75C4.6355 8.875 4.55347 6.96094 4.88159 6.14063C5.10034 5.62109 5.5105 5.21094 6.05737 4.99219C6.85034 4.66406 8.7644 4.74609 9.66675 4.74609C10.5417 4.74609 12.4558 4.66406 13.2761 4.99219C13.7957 5.18359 14.2058 5.62109 14.4246 6.14063C14.7527 6.96094 14.6707 8.875 14.6707 9.75C14.6707 10.6523 14.7527 12.5664 14.4246 13.3594Z" fill="white"/>
<defs>
<linearGradient id="paint0_linear_282_2644" x1="17.3333" y1="3" x2="3.33325" y2="17" gradientUnits="userSpaceOnUse">
<stop stop-color="#9000DC"/>
<stop offset="0.505208" stop-color="#F61F87"/>
<stop offset="1" stop-color="#FEDA16"/>
</linearGradient>
</defs>
</svg>
