<svg xmlns="http://www.w3.org/2000/svg" xmlns:xlink="http://www.w3.org/1999/xlink" viewBox="0 0 768 583.58"><defs><style>.cls-1{fill:url(#Перо);}.cls-2{fill:#fff;}</style><linearGradient id="Перо" x1="587.18" y1="65.57" x2="183.42" y2="332.25" gradientUnits="userSpaceOnUse"><stop offset="0" stop-color="#9b9b9b"/><stop offset="0.13" stop-color="#8b8b91"/><stop offset="1" stop-color="#060942"/></linearGradient></defs><title>Ресурс 11</title><g id="Слой_2" data-name="Слой 2"><g id="Слой_1-2" data-name="Слой 1"><path class="cls-1" d="M3.73,580.48c.79,0-4.31-3.31-3.67-4.57,4.09-8.07,12-22,12-31.13,0-5.57-3.66-12.81-3.66-12.81-.52-1-.43-4.06.36-4.91l37.05-39.9L43.92,477a3.33,3.33,0,0,1,3-3.94l7.81-.68,38.37-62h0s-9-111.21,8.73-146.63c0,12.81,2.75,36.61,8.24,43-.92-19.22-.17-42.75,6.27-57.66s62.24-49.43,62.24-49.43l5.49,43s.92-48.51,21.19-62.54C225.31,166.3,279,133,279,133l-21.62,62.17s31.61-62.82,42.28-74,66.51-40.44,66.51-40.44l-5.49,23.8s8.24-18.31,15.73-27.63C382.76,69,426.6,53.28,426.6,53.28s.92,14.25-1.83,21-10.85,18.31-10.85,18.31S453,54.3,465,47.37s70.84-23.61,70.84-23.61L523.76,45s22.54-19.84,33.73-24.71,46.82-8.24,46.82-8.24L591.5,31.29s24-25.24,68.28-28.19c35-2.33,83-2.92,101.47-2.92,6.77,0,7.86-.76,5.85.91,0,0-22.61,22.88-31.9,26.54s-42.1,8.24-42.1,8.24l31.61-.3s-38.8,24.1-46.26,26.85-83.29,13.73-83.29,13.73l69.56-2.75s-61.41,42.94-66.93,44.81-59.38,7.36-59.38,7.36,30.49,1.16,35.77,1.49S510.81,175,489.9,181.4c-15.14,2.69-28.51-6.41-61.46,1.83C444,185.06,476.78,192,476.78,192s-34.78,34.6-50,38.83c-8.19,2.27-20.28-3.66-36.75,1.83a110,110,0,0,1,21.19,9.15s-23,26.54-42.24,33.87c-19.22,4.58-70.48,3.66-70.48,3.66s4.71,11,57.8,8.24c-3.66,12.81-22.65,29.37-34.92,33-15.7,4.58-53.09,11.9-84.21,14.64,12.81,5.49,75.76-1.06,75.76-1.06s-62,72.46-92.33,77.07c-18.07.88-53.69-3.72-53.69-3.72A78.45,78.45,0,0,0,197,420.3c-15.56,5.49-72.21,5.35-72.21,5.35a4,4,0,0,0-3,1.74l-40.5,59.76,2.84,9.6a3.42,3.42,0,0,1-3,4.38l-8.55.63L52.3,553.4a2.79,2.79,0,0,1-2.25,1.88s-8.82-2.63-13.23-.43c-5.49,2.75-6.47,5.28-9.15,8.24-2.22,2.45-11.78,15-15.7,20.14-.69.91-4.69-.11-5.49-.92l32-50.34c13.69.86,6.41-12.81,6.41-12.81s-15-.62-9.15,11C33.62,533.18,3.16,580.48,3.73,580.48Z"/><path class="cls-2" d="M646.95,34C266.64,141.59,158.63,327.4,74.88,461.49c-3.66,6.41,3.66,11,8.24,3.66C166,348.45,252,176.37,647.41,34.5"/><path class="cls-2" d="M80.61,493.52c-2.75-1.83-20.14-10.07-24-11.79a2.3,2.3,0,0,0-2.85.58l-.62,1.14c-.81,1.07.17,2.39,1.36,3l21.72,12.17C80.61,500.85,83.85,495.68,80.61,493.52Z"/><path class="cls-2" d="M50.41,545.7c2.72-5,14.06-32.7,17.39-39.36,1.83-3.66,1.83-4.58.92-5.49-1.45-1.45-4.58-2.75-6.58,1.23L43.87,541.36C40.54,549.29,47.21,551.53,50.41,545.7Z"/></g></g></svg>