<svg width="24" height="24" viewBox="0 0 24 24" fill="none" xmlns="http://www.w3.org/2000/svg">
<g clip-path="url(#clip0_1125_9)">
<path d="M0 15.9826C0.00778537 16.7088 0.594263 17.2957 1.32053 17.3042H22.6794C23.4057 17.2957 23.9922 16.7088 23.9999 15.9826V14.8457H0V15.9826ZM22.6795 0.796875H1.32059C0.602517 0.796875 0 1.3518 0 2.06981V14.0261H24V2.06981C24 1.3518 23.3975 0.796875 22.6795 0.796875ZM17.5696 22.0457H14.8683V18.1237H9.13171V22.0457H6.73815C6.41479 22.0457 6.15278 22.3077 6.15278 22.631C6.15278 22.9543 6.41479 23.2164 6.73815 23.2164H17.5696C17.893 23.2164 18.155 22.9543 18.155 22.631C18.155 22.3077 17.893 22.0457 17.5696 22.0457Z" fill="white"/>
</g>
<defs>
<clipPath id="clip0_1125_9">
<rect width="24" height="24" fill="white"/>
</clipPath>
</defs>
</svg>
