<svg width="512" height="512" viewBox="0 0 512 512" fill="none" xmlns="http://www.w3.org/2000/svg">
<path d="M336 440C278.656 440 232 393.344 232 336C232 278.656 278.656 232 336 232C393.344 232 440 278.656 440 336C440 393.344 393.344 440 336 440ZM336 272C300.712 272 272 300.712 272 336C272 371.288 300.712 400 336 400C371.288 400 400 371.288 400 336C400 300.712 371.288 272 336 272ZM72 368H184V408H72V368Z" fill="#AAC5D5"/>
<path d="M360 328H376V344H360V328ZM296 328H312V344H296V328ZM328 328H344V344H328V328Z" fill="#3F3A64"/>
<path d="M428.04 384.256C425.504 389.064 422.568 393.616 419.336 397.944L481.472 453.72C485.624 457.432 488 462.768 488 468.344C487.996 472.321 486.787 476.203 484.532 479.478C482.276 482.754 479.081 485.268 475.367 486.69C471.653 488.112 467.596 488.375 463.729 487.443C459.863 486.511 456.371 484.429 453.712 481.472L397.944 419.344C393.616 422.576 389.064 425.512 384.256 428.048L392 436.672V456H232V464C232 477.232 221.232 488 208 488C194.768 488 184 477.232 184 464V456H24V248H40V440H176C189.128 440 200.704 433.552 208 423.752C215.296 433.552 226.872 440 240 440H336C316.467 439.995 297.337 434.447 280.832 424H240C226.768 424 216 413.232 216 400V231.168C219.032 226.344 221.752 221.312 223.976 216H360V234.904C365.504 236.208 370.872 237.872 376 240.024V200H229.096C230.928 192.28 232 184.272 232 176C232 149.072 221.624 124.584 204.776 106.096L240.704 67.928C245.375 70.561 250.638 71.9623 256 72C262.464 72 268.472 70.04 273.504 66.728L315.8 105.184C313.342 109.738 312.037 114.825 312 120C312 137.648 326.352 152 344 152C361.648 152 376 137.648 376 120C376 117.368 375.592 114.856 374.992 112.408L403.072 97.288C408.264 104.322 415.033 110.041 422.836 113.986C430.638 117.93 439.257 119.99 448 120C478.872 120 504 94.872 504 64C504 33.128 478.872 8 448 8C417.128 8 392 33.128 392 64C392 70.752 393.264 77.2 395.464 83.2L367.392 98.32C364.419 95.0752 360.805 92.4826 356.779 90.7062C352.752 88.9299 348.401 88.0084 344 88C337.528 88 331.528 89.96 326.488 93.272L284.192 54.816C286.544 50.368 288 45.376 288 40C288 22.352 273.648 8 256 8C238.352 8 224 22.352 224 40C224 46.264 225.88 52.072 229 57.016L193.168 95.072C174.734 80.1363 151.726 71.9907 128 72C70.656 72 24 118.656 24 176C24.005 195.533 29.5532 214.663 40 231.168V232H8V472H168.808C172.528 490.232 188.68 504 208 504C227.32 504 243.48 490.232 247.192 472H408V454.496L441.8 492.144C445.039 495.734 448.974 498.627 453.366 500.648C457.758 502.669 462.515 503.776 467.348 503.901C472.181 504.025 476.989 503.166 481.48 501.374C485.97 499.582 490.049 496.895 493.469 493.478C496.888 490.06 499.577 485.982 501.371 481.492C503.165 477.003 504.027 472.195 503.905 467.362C503.782 462.529 502.678 457.771 500.659 453.378C498.64 448.985 495.748 445.048 492.16 441.808L428.04 384.256ZM448 24C470.056 24 488 41.944 488 64C488 86.056 470.056 104 448 104C425.944 104 408 86.056 408 64C408 41.944 425.944 24 448 24ZM128 88C136.6 88 145.76 100.216 152.072 120H103.92C110.24 100.216 119.4 88 128 88ZM103.928 232H152.08C145.768 251.784 136.6 264 128.008 264C119.416 264 110.24 251.784 103.928 232ZM98.288 258.728C83.4206 253.386 70.2571 244.157 60.168 232H87.152C90.104 242.36 93.856 251.376 98.288 258.728ZM99.848 216C97.7559 205.451 96.5252 194.749 96.168 184H159.832C159.471 194.748 158.24 205.45 156.152 216H99.848ZM168.84 232H195.824C185.738 244.156 172.577 253.386 157.712 258.728C162.144 251.376 165.896 242.36 168.84 232ZM206.288 216H172.56C174.36 206.104 175.464 195.352 175.832 184H215.6C214.578 195.165 211.417 206.03 206.288 216ZM175.824 168C175.518 157.268 174.424 146.572 172.552 136H206.28C211.409 145.97 214.57 156.835 215.592 168H175.824ZM168.84 120C165.896 109.64 162.144 100.624 157.712 93.272C172.58 98.609 185.742 107.84 195.824 120H168.84ZM156.152 136C158.104 145.672 159.416 156.424 159.832 168H96.168C96.5292 157.252 97.7599 146.55 99.848 136H156.152ZM80.176 168H40.408C41.4258 156.834 44.5875 145.969 49.72 136H83.448C81.5719 146.572 80.4783 157.267 80.176 168ZM80.176 184C80.544 195.352 81.648 206.104 83.448 216H49.712C44.5833 206.03 41.4218 195.165 40.4 184H80.176ZM176 424H56V250.872C74.704 268.864 100.056 280 128 280C155.944 280 181.296 268.864 200 250.872V400C200 413.232 189.232 424 176 424ZM344 104C352.824 104 360 111.176 360 120C360 128.824 352.824 136 344 136C335.176 136 328 128.824 328 120C328 111.176 335.176 104 344 104ZM256 24C264.824 24 272 31.176 272 40C272 48.824 264.824 56 256 56C247.176 56 240 48.824 240 40C240 31.176 247.176 24 256 24ZM98.288 93.272C93.864 100.624 90.104 109.64 87.16 120H60.168C70.2571 107.843 83.4206 98.6137 98.288 93.272Z" fill="#3F3A64"/>
<path d="M264 336C264 375.704 296.296 408 336 408C375.704 408 408 375.704 408 336C408 296.296 375.704 264 336 264C296.296 264 264 296.296 264 336ZM392 336C392 366.872 366.872 392 336 392C305.128 392 280 366.872 280 336C280 305.128 305.128 280 336 280C366.872 280 392 305.128 392 336Z" fill="#3F3A64"/>
<path d="M464 472C468.418 472 472 468.418 472 464C472 459.582 468.418 456 464 456C459.582 456 456 459.582 456 464C456 468.418 459.582 472 464 472Z" fill="#3F3A64"/>
<path d="M448 88C461.232 88 472 77.232 472 64C472 50.768 461.232 40 448 40C434.768 40 424 50.768 424 64C424 77.232 434.768 88 448 88ZM448 56C450.122 56 452.157 56.8429 453.657 58.3431C455.157 59.8434 456 61.8783 456 64C456 66.1217 455.157 68.1566 453.657 69.6569C452.157 71.1571 450.122 72 448 72C445.878 72 443.843 71.1571 442.343 69.6569C440.843 68.1566 440 66.1217 440 64C440 61.8783 440.843 59.8434 442.343 58.3431C443.843 56.8429 445.878 56 448 56ZM72 344H184V296H72V344ZM88 312H168V328H88V312ZM72 360H184V376H72V360ZM168 392H184V408H168V392ZM72 392H152V408H72V392Z" fill="#3F3A64"/>
</svg>
