<svg xmlns="http://www.w3.org/2000/svg" xmlns:xlink="http://www.w3.org/1999/xlink" viewBox="0 0 1602.84 679.88"><defs><style>.cls-1{fill:#f2f2f2;}.cls-2{fill:url(#Безымянный_градиент_2);}.cls-3{fill:#060942;}</style><linearGradient id="Безымянный_градиент_2" x1="536.08" y1="23" x2="222.65" y2="276.73" gradientUnits="userSpaceOnUse"><stop offset="0" stop-color="#9b9b9b"/><stop offset="0.13" stop-color="#8b8b91"/><stop offset="1" stop-color="#fff"/></linearGradient></defs><title>Ресурс 12</title><g id="Слой_2" data-name="Слой 2"><g id="Слой_1-2" data-name="Слой 1"><path class="cls-1" d="M341.22,599q-29.61,23.38-45.61,23.38a19.25,19.25,0,0,1-16.39-8.24q-6-8.24-6-19.83,0-14.85,6-37.18t10.11-25.78q4.07-3.45,10.78-3.45a8.11,8.11,0,0,1,6.9,3.83,15.16,15.16,0,0,1,2.68,8.91q0,1.44-6.9,16.19-8.43,18-8.43,31a21.79,21.79,0,0,0,2.06,10.16q2.06,3.93,4.26,3.93a28.53,28.53,0,0,0,10.83-2.64q6.23-2.63,15.19-9.68t11.45-10.59a30,30,0,0,0,4.07-9.34q1.58-5.8,2.44-24.77.48-11.11,1.1-14a9.72,9.72,0,0,1,3.4-5.27,11.06,11.06,0,0,1,7.47-2.4q6.32,0,9,2.68t2.63,12.65q0,13.51-4.84,57.59T345.77,660.1Q333,679.88,311.23,679.88q-19.36,0-33.87-10.16t-14.52-18a10.81,10.81,0,0,1,2.25-7.18,7.32,7.32,0,0,1,5.89-2.68,6.45,6.45,0,0,1,5.27,2.68q13.6,15.81,33.15,15.81Q334.13,660.34,341.22,599Z"/><path class="cls-1" d="M417.49,632.07q-15.81,0-24.05-8.62t-8.24-24q0-24.15,19.64-52.22t38.52-28.08q9.1,0,15.52,9.05t6.42,18.83q0,9.2-3.4,12.41t-6.56,3.21q-9.3,0-10.83-12.84-1.15-9.39-4.7-9.39-7.47,0-19.74,21.27T407.82,599q0,12.94,14,12.94,15.43,0,31.14-10.92,7.38-5.27,11.69-5.27,5.27,0,5.27,5.27,0,7.38-16.91,19.21T417.49,632.07Z"/><path class="cls-1" d="M516.57,632.07q-15.81,0-24.05-8.62t-8.24-24q0-24.15,19.64-52.22t38.52-28.08q9.1,0,15.52,9.05t6.42,18.83q0,9.2-3.4,12.41t-6.56,3.21q-9.3,0-10.83-12.84-1.15-9.39-4.7-9.39-7.47,0-19.74,21.27T506.89,599q0,12.94,14,12.94,15.43,0,31.14-10.92,7.38-5.27,11.69-5.27,5.27,0,5.27,5.27,0,7.38-16.91,19.21T516.57,632.07Z"/><path class="cls-1" d="M638.36,577.93a23.15,23.15,0,0,1,8,3.74q3.74,2.68,8.91,9.77,10,13.8,15.71,18.11a20.47,20.47,0,0,0,12.55,4.31q7.09,0,7.09,4.41,0,4.22-4.89,8.53t-15.43,4.31q-16.19,0-32.87-26.73-9.68-15.71-16.19-15.71a23.29,23.29,0,0,0-4.65,1.25,16,16,0,0,0-4.94,2.25q-1.15,1-1.92,12.22L608.75,622a10.47,10.47,0,0,1-3.55,7.43,11.79,11.79,0,0,1-8.34,3.11q-5.27,0-8.24-2.92t-3-5.89q0-3.64,2.4-15.62,5.75-30.18,9.1-73.78a16.45,16.45,0,0,1,4.6-10.16,13,13,0,0,1,9.87-4.6,7.92,7.92,0,0,1,6.52,3.35,12.36,12.36,0,0,1,2.59,7.76,22.58,22.58,0,0,1-1.15,7,164.24,164.24,0,0,0-4.07,16.86A180,180,0,0,0,612.3,574q11.4-3.45,17.73-9.58t15.71-19.64q7.86-11.11,14.76-16.43A24.24,24.24,0,0,1,675.63,523a11.85,11.85,0,0,1,8.38,3.78q3.88,3.79,3.88,8a6.48,6.48,0,0,1-2.16,5.32q-2.15,1.77-7.52,3.4-6.8,2-14.56,10.92Q647.56,573,638.36,577.93Z"/><path class="cls-1" d="M770.49,591.73q-9.2,16.77-21.32,26.64t-24.58,9.87q-7.38,0-14.9-7.76t-7.52-23.86q0-11.4,5.75-34.4,5-19,5-28.84,3.83-8,12-8a11.32,11.32,0,0,1,8.86,3.69q3.3,3.69,3.3,7.43,0,6.8-4.79,19.36a186,186,0,0,0-6,21.13q-3.21,13.65-3.21,17.49,0,12.74,5.27,12.74,8.34,0,22.52-16t18.49-32.77Q773.65,542,777,536.92a10.72,10.72,0,0,1,9.49-5.08q10,0,10,11.12a26.67,26.67,0,0,1-1.63,6.52q-5.65,17-5.65,38.23,0,24.91,8.43,29.8,2.78,1.63,2.78,4,0,3.45-4.89,6.52a17.61,17.61,0,0,1-9.29,3.07q-7.57,0-11.64-10.68T770.49,591.73Z"/><path class="cls-1" d="M889.69,591.73q-9.2,16.77-21.32,26.64t-24.58,9.87q-7.38,0-14.9-7.76t-7.52-23.86q0-11.4,5.75-34.4,5-19,5-28.84,3.83-8,12-8a11.31,11.31,0,0,1,8.86,3.69q3.31,3.69,3.31,7.43,0,6.8-4.79,19.36a186.28,186.28,0,0,0-6,21.13q-3.21,13.65-3.21,17.49,0,12.74,5.27,12.74,8.34,0,22.52-16t18.49-32.77q4.31-16.39,7.67-21.46a10.72,10.72,0,0,1,9.49-5.08q10,0,10,11.12a26.67,26.67,0,0,1-1.63,6.52q-5.65,17-5.65,38.23,0,24.91,8.43,29.8,2.78,1.63,2.78,4,0,3.45-4.89,6.52a17.61,17.61,0,0,1-9.29,3.07q-7.57,0-11.64-10.68T889.69,591.73ZM921,484.32a14.09,14.09,0,0,1-1,4.6,36.09,36.09,0,0,1-2.83,5.89,40.18,40.18,0,0,1-4.46,6.13,33.27,33.27,0,0,1-5.89,5.32h.1a32.53,32.53,0,0,1-5.51,2.87,49.07,49.07,0,0,1-6.75,2.25,67.63,67.63,0,0,1-7.19,1.44,47.6,47.6,0,0,1-6.8.53,44.06,44.06,0,0,1-10.54-1.25,40.16,40.16,0,0,1-9.39-3.55A35.47,35.47,0,0,1,853,503a33,33,0,0,1-5.7-7,23.32,23.32,0,0,1-1.29-2.92q-.62-1.68-1.1-3.26a27.71,27.71,0,0,1-.72-2.83,11.22,11.22,0,0,1-.24-1.63,10.21,10.21,0,0,1,.91-4.65,7.27,7.27,0,0,1,2.3-2.73,7.59,7.59,0,0,1,3-1.25,16.39,16.39,0,0,1,2.92-.29,12.44,12.44,0,0,1,6.18,1.58q2.83,1.58,3.31,5.61a16.19,16.19,0,0,0,1.15,5,12.29,12.29,0,0,0,3.26,4.79,18.84,18.84,0,0,0,6,3.55,24.82,24.82,0,0,0,8.91,1.44,17.63,17.63,0,0,0,2.92-.29q1.68-.29,3.4-.72a26.23,26.23,0,0,0,3.4-1.1,21.35,21.35,0,0,0,2.83-1.34,12.52,12.52,0,0,0,3.26-2.78,19.49,19.49,0,0,0,2.3-3.5,31.82,31.82,0,0,0,1.63-3.74q.67-1.87,1.15-3.4a6.72,6.72,0,0,1,1.58-2.68,11.32,11.32,0,0,1,2.39-1.92,11.05,11.05,0,0,1,2.68-1.15,9.67,9.67,0,0,1,2.54-.38,10.4,10.4,0,0,1,6.52,1.92Q921,479.24,921,484.32Z"/><path class="cls-1" d="M1121.35,611.91q0,2.3-3,6.56t-10.78,4.26q-9.49,0-17-16.14a139.15,139.15,0,0,1-10.73-35.31q-1.15-6.42-3.07-14.95a53.52,53.52,0,0,1-.86-6q-.48-4.79-.77-5.17-1.53,3.07-3.26,7a367.86,367.86,0,0,1-26.25,48.48l-1.15,2.2a9.39,9.39,0,0,1-1.44,1.92Q1031.18,626,1023.62,626q-10.83,0-10.83-9.68,0-7.47,10.16-19.45,12.36-14.95,31.91-52.41l13.61-26.06q2.11-3.83,7.38-3.83a19,19,0,0,1,7.43,1.87q4.26,1.87,5.65,4.46a34.29,34.29,0,0,1,2.64,8.43q6.9,32.39,12.46,51.07T1116.18,604q5.17,2.68,5.17,7.86Z"/><path class="cls-1" d="M1222.92,588q0,10-16.77,23.81a57.87,57.87,0,0,1-37.85,13.85q-16.19,0-25.49-10.21t-9.29-28.41q0-26.83,19-50.31T1193,513.31q10.73,0,17.25,6.8a22.61,22.61,0,0,1,6.52,16.19q0,16.67-16,31.76t-41,20.84a3.28,3.28,0,0,0-2.87,3.45q0,4.6,4.07,8.77t10.88,4.17q19.26,0,38.23-19.83,3.64-3.83,7.09-3.83Q1222.92,581.63,1222.92,588Zm-64.29-17a58.13,58.13,0,0,0,26.68-12.94q11.55-9.87,11.55-17.92a8.1,8.1,0,0,0-1.77-5.32,5.62,5.62,0,0,0-4.55-2.16q-8.34,0-18.49,12.26A63.63,63.63,0,0,0,1158.62,571.09Z"/><path class="cls-1" d="M1260.77,599.64q0,2.68,3.07,4.74a10.15,10.15,0,0,0,5.46,2.06q16.77,0,28.94-5.75,7.28-3.64,10.92-3.64,6.32,0,6.32,6.71,0,9-14.42,15.19t-35.31,6.18q-12.65,0-21.66-7.33a23.09,23.09,0,0,1-9-18.73q0-9.68,6.32-19.21T1272.84,557q11.59-6,15.09-9t3.5-6a4.92,4.92,0,0,0-2.06-4.07,6.19,6.19,0,0,0-3.11-1.58q-6,0-25.3,8.24a9.94,9.94,0,0,1-3.93.86q-9.1,0-9.1-6,0-10.06,16-16.43t27.6-6.37a26.6,26.6,0,0,1,17.92,6.71q7.76,6.71,7.76,16.19,0,8.53-6.08,16.34T1285,574.63q-14,7.76-19.12,13.46T1260.77,599.64Z"/><path class="cls-1" d="M1384.66,572.14a23.15,23.15,0,0,1,8,3.74q3.74,2.68,8.91,9.77,10,13.8,15.71,18.11a20.47,20.47,0,0,0,12.55,4.31q7.09,0,7.09,4.41,0,4.22-4.89,8.53t-15.43,4.31q-16.19,0-32.87-26.73-9.68-15.71-16.19-15.71a23.29,23.29,0,0,0-4.65,1.25,16.08,16.08,0,0,0-4.93,2.25q-1.15,1-1.92,12.22l-1.05,17.63a10.48,10.48,0,0,1-3.55,7.43,11.79,11.79,0,0,1-8.34,3.11q-5.27,0-8.24-2.92t-3-5.89q0-3.64,2.4-15.62,5.75-30.18,9.1-73.78a16.45,16.45,0,0,1,4.6-10.16,13,13,0,0,1,9.87-4.6,7.92,7.92,0,0,1,6.52,3.35,12.36,12.36,0,0,1,2.59,7.76,22.58,22.58,0,0,1-1.15,7,164.1,164.1,0,0,0-4.07,16.86,180.7,180.7,0,0,0-3.21,19.45q11.4-3.45,17.73-9.58T1392,539q7.86-11.11,14.76-16.43a24.25,24.25,0,0,1,15.14-5.32,11.86,11.86,0,0,1,8.38,3.78q3.88,3.79,3.88,8a6.49,6.49,0,0,1-2.16,5.32q-2.16,1.77-7.52,3.4-6.8,2-14.56,10.92Q1393.86,567.16,1384.66,572.14Z"/><path class="cls-1" d="M1539.89,572.43a76.53,76.53,0,0,1-24.39,37.8q-18,15.38-35.88,15.38a29.85,29.85,0,0,1-23.38-10.4q-9.2-10.4-9.2-25.54Q1447,565,1463.9,541t40.91-24q16.39,0,26.54,12.12t10.16,28.89a62.76,62.76,0,0,1-1.63,14.28Zm-49.83-30.28q-6.71,5.94-13.13,19a58.71,58.71,0,0,0-6.42,26.16q0,8,2.92,13.13t7.71,5.17q11.88,0,24.72-14.09t12.84-31.62q0-9.87-4.17-16.24a13.17,13.17,0,0,0-11.64-6.37,19,19,0,0,0-12.74,4.89Z"/><path class="cls-1" d="M1570.17,619.19q-10.54,0-10.54-11.69,0-4.41,4.31-10.16t9.29-5.75q3.26,0,8.14,3.16t4.89,5.37l-1,5.94a13.1,13.1,0,0,1-6.23,9.73Q1573.71,619.19,1570.17,619.19Zm13.61-44.08q-9.58,0-14.85-3.93a131.63,131.63,0,0,1,2.68-38.42q4.69-21.37,4.7-32,0-1.05,1-8a15,15,0,0,1,6.08-10.59q5.08-3.64,8.62-3.64a11.53,11.53,0,0,1,7.33,2.83q3.5,2.83,3.5,6.18,0,2.68-3.88,19.88t-7.71,31.67q-4,15-4.22,24.05A24.45,24.45,0,0,1,1583.77,575.11Z"/><path class="cls-1" d="M485.41,262.87q30.91,18.16,42.44,39.49t8.59,42.93q-2.94,21.6-17.42,42.44a185.27,185.27,0,0,1-35.57,38,261.61,261.61,0,0,1-46.61,30.17,230.08,230.08,0,0,1-49.55,18.89,439.59,439.59,0,0,1-60.34,10.3q-29.93,2.94-49.55,1.47-16.19,24-34.34,46.36a508.67,508.67,0,0,1-39.25,42.93q-31.4,29.44-67.95,42.44a164.6,164.6,0,0,1-76.29,8.09q-25-2.94-39.25-13.25t-18.4-23.3a40,40,0,0,1,.74-26.49Q7.56,549.88,20.8,541t34.1-11q20.85-2.21,48.81,7.11,7.84,2.94,6.38,5.89t-7.85.49q-19.63-7.36-34.1-5.4t-23.55,9.32a36.1,36.1,0,0,0-12.27,18.15,35.61,35.61,0,0,0,0,21.1q3.19,10.3,12.76,17.66t26.74,8.34q32.86,1.47,60.34-12.76t52.49-38.27q24-23.55,44.15-58.38t41-74.08q20.85-39.25,44.64-79.48a485.56,485.56,0,0,1,55.19-75.55q6.86-7.36,13-14.23t13-13.25q-21.1-2.94-43.17-3.92t-43.17-.25q-21.1.74-40.47,2.7t-34.59,4.91a434.64,434.64,0,0,0-51.76,13.74,287.6,287.6,0,0,0-54.7,24.29,192.63,192.63,0,0,0-45.38,35.81,90.76,90.76,0,0,0-23.79,48.32,56,56,0,0,0,1.23,24,55.27,55.27,0,0,0,9.81,19.62,48.83,48.83,0,0,0,16.19,13.25,49.75,49.75,0,0,0,20.85,5.4,53.78,53.78,0,0,0,23.06-4.17,82.61,82.61,0,0,0,21.1-12.76,93.24,93.24,0,0,0,17.42-19.13,101.59,101.59,0,0,0,12-23.3q1-5.39,3.93-5.15t2.94,5.64q0,16.68-7.36,29.68a70.16,70.16,0,0,1-19.13,21.83,84.49,84.49,0,0,1-26.25,13.25,87.42,87.42,0,0,1-28.7,3.92A90.64,90.64,0,0,1,77.47,439a66.75,66.75,0,0,1-23.55-14.47A68.89,68.89,0,0,1,38,401q-5.89-14-4.91-32.62a85.1,85.1,0,0,1,11.28-39.74,126.18,126.18,0,0,1,26.74-31.89,185.57,185.57,0,0,1,37-24.78,335.33,335.33,0,0,1,42.44-18.15,420.18,420.18,0,0,1,42.93-12.51q21.09-4.9,38.76-7.36a760.23,760.23,0,0,1,87.08-7.11,397.09,397.09,0,0,1,89.54,7.61,182.28,182.28,0,0,1,16.93-11.53,106.75,106.75,0,0,1,19.87-9.08q11.77-4.9,12.76-1.47t-7.85,8.83a114.84,114.84,0,0,0-9.81,7.11,144.24,144.24,0,0,0-12.27,11A222,222,0,0,1,485.41,262.87Zm-11.28,10.3a135.71,135.71,0,0,0-25.27-12.76,253.68,253.68,0,0,0-29.68-9.32q-18.65,26.49-35.32,54.7T351,362.71q-16.19,28.7-32.63,57.4t-34.1,56.17a193.77,193.77,0,0,0,41.21-2.7A386.58,386.58,0,0,0,371.58,463a221.33,221.33,0,0,0,49.8-21.59,229,229,0,0,0,41.21-30.66,171.25,171.25,0,0,0,29.19-35.57q11.28-18.64,13.74-37a65.36,65.36,0,0,0-4.91-35.32Q493.25,285.93,474.12,273.17Z"/><path class="cls-2" d="M187.19,370.33c.5,0-2.75-2.11-2.34-2.91,2.61-5.15,7.69-14,7.69-19.86,0-3.55-2.34-8.18-2.34-8.18a4.06,4.06,0,0,1,.23-3.13l23.64-25.46-1.24-6.47a2.12,2.12,0,0,1,1.9-2.52l5-.43,24.48-39.54h0s-5.73-70.95,5.57-93.55c0,8.18,1.75,23.36,5.26,27.45-.58-12.26-.11-27.27,4-36.79s39.71-31.53,39.71-31.53l3.5,27.45s.58-30.95,13.52-39.9,47.07-30.13,47.07-30.13L349,124.49S369.2,84.41,376,77.3s42.43-25.8,42.43-25.8l-3.5,15.18S420.19,55,425,49.05C429,44,457,34,457,34s.58,9.09-1.17,13.42-6.92,11.68-6.92,11.68,24.93-24.45,32.57-28.87,45.19-15.06,45.19-15.06L519,28.72S533.34,16.06,540.48,13,570.35,7.7,570.35,7.7L562.17,20s15.31-16.1,43.56-18C628.07.49,658.66.12,670.47.11c4.32,0,5-.49,3.73.58,0,0-14.42,14.6-20.35,16.93S627,22.88,627,22.88l20.17-.19s-24.75,15.38-29.51,17.13-53.14,8.76-53.14,8.76l44.38-1.75s-39.18,27.4-42.7,28.59-37.88,4.7-37.88,4.7,19.45.74,22.82,1-40.43,30.58-53.77,34.67c-9.66,1.72-18.19-4.09-39.21,1.17,9.93,1.17,30.84,5.59,30.84,5.59s-22.19,22.07-31.92,24.77c-5.23,1.45-12.93-2.34-23.45,1.17a70.21,70.21,0,0,1,13.52,5.84s-14.69,16.93-26.95,21.61c-12.26,2.92-45,2.34-45,2.34s3,7,36.88,5.26c-2.34,8.18-14.45,18.74-22.28,21-10,2.92-33.87,7.59-53.72,9.34,8.18,3.5,48.33-.68,48.33-.68s-39.57,46.23-58.9,49.17c-11.53.56-34.25-2.37-34.25-2.37a50.05,50.05,0,0,0,19.22,8.19c-9.93,3.5-46.07,3.41-46.07,3.41a2.55,2.55,0,0,0-1.92,1.11l-25.84,38.12,1.81,6.12a2.18,2.18,0,0,1-1.95,2.8l-5.46.4-12.89,32.94a1.78,1.78,0,0,1-1.44,1.2s-5.63-1.68-8.44-.27c-3.5,1.75-4.13,3.37-5.84,5.26-1.42,1.56-7.51,9.56-10,12.85-.44.58-3-.07-3.5-.58l20.44-32.12c8.73.55,4.09-8.18,4.09-8.18s-9.54-.39-5.84,7C206.26,340.15,186.83,370.33,187.19,370.33Z"/><path class="cls-3" d="M597.55,21.72C354.92,90.33,286,208.87,232.59,294.42c-2.34,4.09,2.34,7,5.26,2.34C290.69,222.3,345.58,112.52,597.84,22"/><path class="cls-3" d="M236.25,314.85c-1.75-1.17-12.85-6.42-15.3-7.52a1.47,1.47,0,0,0-1.82.37l-.4.72c-.51.69.11,1.53.87,1.92l13.86,7.77C236.25,319.52,238.31,316.23,236.25,314.85Z"/><path class="cls-3" d="M217,348.14c1.74-3.16,9-20.86,11.09-25.11,1.17-2.34,1.17-2.92.58-3.5-.92-.92-2.92-1.75-4.2.79L212.8,345.37C210.68,350.43,214.93,351.86,217,348.14Z"/></g></g></svg>