<svg xmlns="http://www.w3.org/2000/svg" xmlns:xlink="http://www.w3.org/1999/xlink" viewBox="0 0 1625.1 664.92"><defs><style>.cls-1{fill:#060942;}.cls-2{fill:url(#Перо);}.cls-3{fill:#fff;}</style><linearGradient id="Перо" x1="552.12" y1="41.29" x2="297.9" y2="209.2" gradientUnits="userSpaceOnUse"><stop offset="0" stop-color="#9b9b9b"/><stop offset="0.13" stop-color="#8b8b91"/><stop offset="1" stop-color="#060942"/></linearGradient></defs><title>Ресурс 2</title><g id="Слой_2" data-name="Слой 2"><g id="Слой_1-2" data-name="Слой 1"><path class="cls-1" d="M365.26,584.14q-29.57,23.35-45.55,23.35a19.22,19.22,0,0,1-16.37-8.23q-6-8.23-6-19.81,0-14.83,6-37.13t10.1-25.74q4.07-3.45,10.77-3.45A8.1,8.1,0,0,1,331.1,517a15.14,15.14,0,0,1,2.68,8.9q0,1.44-6.89,16.17-8.42,18-8.42,31a21.79,21.79,0,0,0,2.06,10.14q2.06,3.93,4.26,3.92a28.49,28.49,0,0,0,10.81-2.63q6.22-2.63,15.17-9.67t11.44-10.58a29.92,29.92,0,0,0,4.07-9.33q1.58-5.79,2.44-24.74.48-11.1,1.1-14a9.71,9.71,0,0,1,3.4-5.26,11,11,0,0,1,7.46-2.39q6.32,0,8.95,2.68t2.63,12.63q0,13.49-4.83,57.52t-17.61,63.79q-12.78,19.76-34.5,19.76-19.33,0-33.83-10.14t-14.5-18a10.8,10.8,0,0,1,2.25-7.18,7.31,7.31,0,0,1,5.89-2.68,6.44,6.44,0,0,1,5.26,2.68q13.59,15.79,33.11,15.79Q358.18,645.39,365.26,584.14Z"/><path class="cls-1" d="M441.44,617.16q-15.79,0-24-8.61t-8.23-23.93q0-24.12,19.62-52.16t38.47-28q9.09,0,15.5,9t6.41,18.81q0,9.19-3.4,12.39t-6.56,3.21q-9.28,0-10.81-12.82-1.15-9.38-4.69-9.38-7.46,0-19.71,21.25t-12.25,37.23q0,12.92,14,12.92,15.41,0,31.1-10.91,7.37-5.26,11.68-5.26,5.26,0,5.26,5.26,0,7.37-16.89,19.19T441.44,617.16Z"/><path class="cls-1" d="M540.4,617.16q-15.79,0-24-8.61t-8.23-23.93q0-24.12,19.62-52.16t38.47-28q9.09,0,15.5,9t6.41,18.81q0,9.19-3.4,12.39t-6.56,3.21q-9.28,0-10.81-12.82-1.15-9.38-4.69-9.38-7.46,0-19.71,21.25t-12.25,37.23q0,12.92,14,12.92,15.41,0,31.1-10.91,7.37-5.26,11.68-5.26,5.26,0,5.26,5.26,0,7.37-16.89,19.19T540.4,617.16Z"/><path class="cls-1" d="M662,563.09a23.13,23.13,0,0,1,8,3.73q3.73,2.68,8.9,9.76,10,13.78,15.7,18.09A20.45,20.45,0,0,0,707.21,599q7.08,0,7.08,4.4,0,4.21-4.88,8.52T694,616.2q-16.17,0-32.83-26.7-9.67-15.69-16.17-15.7a23.28,23.28,0,0,0-4.64,1.24,16,16,0,0,0-4.93,2.25q-1.15,1-1.91,12.2l-1.05,17.61a10.46,10.46,0,0,1-3.54,7.42,11.78,11.78,0,0,1-8.33,3.11q-5.26,0-8.23-2.92t-3-5.89q0-3.64,2.39-15.6,5.74-30.15,9.09-73.69a16.44,16.44,0,0,1,4.59-10.14,13,13,0,0,1,9.86-4.59,7.91,7.91,0,0,1,6.51,3.35,12.34,12.34,0,0,1,2.58,7.75,22.55,22.55,0,0,1-1.15,7,164,164,0,0,0-4.07,16.84A180.2,180.2,0,0,0,636,559.17q11.39-3.45,17.71-9.57T669.41,530q7.85-11.1,14.74-16.41a24.22,24.22,0,0,1,15.12-5.31,11.84,11.84,0,0,1,8.37,3.78q3.88,3.78,3.88,8a6.47,6.47,0,0,1-2.15,5.31q-2.15,1.77-7.51,3.4-6.8,2-14.55,10.91Q671.23,558.11,662,563.09Z"/><path class="cls-1" d="M794,576.87q-9.19,16.75-21.29,26.61t-24.55,9.86q-7.37,0-14.88-7.75t-7.51-23.83q0-11.39,5.74-34.36,5-18.95,5-28.81,3.83-8,12-8a11.3,11.3,0,0,1,8.85,3.68q3.3,3.69,3.3,7.42,0,6.8-4.79,19.33a185.7,185.7,0,0,0-6,21.1q-3.21,13.64-3.21,17.47,0,12.73,5.26,12.73,8.33,0,22.49-16t18.47-32.73q4.31-16.37,7.66-21.44a10.71,10.71,0,0,1,9.47-5.07q10,0,10,11.1a26.64,26.64,0,0,1-1.63,6.51q-5.65,16.94-5.65,38.19,0,24.88,8.42,29.76,2.77,1.63,2.78,4,0,3.45-4.88,6.51a17.59,17.59,0,0,1-9.28,3.06q-7.56,0-11.63-10.67T794,576.87Z"/><path class="cls-1" d="M913.07,576.87q-9.19,16.75-21.29,26.61t-24.55,9.86q-7.37,0-14.88-7.75t-7.51-23.83q0-11.39,5.74-34.36,5-18.95,5-28.81,3.83-8,12-8a11.3,11.3,0,0,1,8.85,3.68q3.3,3.69,3.3,7.42,0,6.8-4.79,19.33a185.7,185.7,0,0,0-6,21.1q-3.21,13.64-3.21,17.47,0,12.73,5.26,12.73,8.33,0,22.49-16t18.47-32.73q4.31-16.37,7.66-21.44a10.71,10.71,0,0,1,9.47-5.07q10,0,10,11.1a26.64,26.64,0,0,1-1.63,6.51q-5.65,16.94-5.65,38.19,0,24.88,8.42,29.76,2.77,1.63,2.78,4,0,3.45-4.88,6.51a17.59,17.59,0,0,1-9.28,3.06q-7.56,0-11.63-10.67T913.07,576.87Zm31.29-107.28a14.11,14.11,0,0,1-1,4.59,36.23,36.23,0,0,1-2.82,5.89,40.24,40.24,0,0,1-4.45,6.13,33.3,33.3,0,0,1-5.89,5.31h.1a32.53,32.53,0,0,1-5.5,2.87,49.07,49.07,0,0,1-6.75,2.25,67.92,67.92,0,0,1-7.18,1.44,47.52,47.52,0,0,1-6.79.53,44,44,0,0,1-10.53-1.24,40.1,40.1,0,0,1-9.38-3.54,35.45,35.45,0,0,1-7.7-5.5,32.94,32.94,0,0,1-5.69-7,23,23,0,0,1-1.29-2.92q-.62-1.67-1.1-3.25a27.56,27.56,0,0,1-.72-2.82,11.14,11.14,0,0,1-.24-1.63,10.17,10.17,0,0,1,.91-4.64,7.24,7.24,0,0,1,2.3-2.73,7.58,7.58,0,0,1,3-1.24,16.39,16.39,0,0,1,2.92-.29,12.44,12.44,0,0,1,6.17,1.58q2.82,1.58,3.3,5.6a16.15,16.15,0,0,0,1.15,5,12.27,12.27,0,0,0,3.25,4.79,18.81,18.81,0,0,0,6,3.54,24.79,24.79,0,0,0,8.9,1.44,17.6,17.6,0,0,0,2.92-.29q1.67-.29,3.4-.72a26.27,26.27,0,0,0,3.4-1.1,21.37,21.37,0,0,0,2.82-1.34,12.51,12.51,0,0,0,3.25-2.78,19.47,19.47,0,0,0,2.3-3.49,31.85,31.85,0,0,0,1.63-3.73q.67-1.87,1.15-3.4a6.71,6.71,0,0,1,1.58-2.68,11.27,11.27,0,0,1,2.39-1.91,11,11,0,0,1,2.68-1.15,9.65,9.65,0,0,1,2.54-.38,10.39,10.39,0,0,1,6.51,1.91Q944.36,464.52,944.36,469.59Z"/><path class="cls-1" d="M1144.19,602.81q0,2.3-3,6.56t-10.77,4.26q-9.47,0-16.94-16.13a138.94,138.94,0,0,1-10.72-35.27q-1.15-6.41-3.06-14.93a53.38,53.38,0,0,1-.86-6q-.48-4.78-.77-5.17-1.53,3.06-3.25,7a367.43,367.43,0,0,1-26.22,48.43l-1.15,2.2a9.39,9.39,0,0,1-1.44,1.91q-11.87,21.25-19.43,21.25-10.82,0-10.81-9.67,0-7.46,10.14-19.43,12.35-14.93,31.87-52.35l13.59-26q2.1-3.83,7.37-3.83a19,19,0,0,1,7.42,1.87q4.26,1.87,5.65,4.45a34.34,34.34,0,0,1,2.63,8.42q6.89,32.35,12.44,51T1139,594.86q5.17,2.68,5.17,7.85Z"/><path class="cls-1" d="M1245.64,579q0,10-16.75,23.78a57.81,57.81,0,0,1-37.8,13.83q-16.17,0-25.46-10.19T1156.35,578q0-26.79,18.95-50.24t40.48-23.45q10.72,0,17.23,6.79a22.59,22.59,0,0,1,6.51,16.17q0,16.65-16,31.73t-41,20.82a3.27,3.27,0,0,0-2.87,3.45q0,4.59,4.07,8.76t10.86,4.16q19.24,0,38.19-19.81,3.64-3.83,7.08-3.83Q1245.64,572.56,1245.64,579ZM1181.42,562a58.07,58.07,0,0,0,26.65-12.92q11.53-9.86,11.53-17.9a8.09,8.09,0,0,0-1.77-5.31,5.62,5.62,0,0,0-4.55-2.15q-8.33,0-18.47,12.25A63.55,63.55,0,0,0,1181.42,562Z"/><path class="cls-1" d="M1283.44,590.56q0,2.68,3.06,4.74a10.13,10.13,0,0,0,5.46,2.06q16.75,0,28.9-5.74,7.27-3.64,10.91-3.64,6.32,0,6.32,6.7,0,9-14.4,15.17T1288.42,616q-12.63,0-21.63-7.32a23.06,23.06,0,0,1-9-18.71q0-9.67,6.32-19.19T1295.5,548q11.58-6,15.07-9t3.49-6a4.91,4.91,0,0,0-2.06-4.07,6.18,6.18,0,0,0-3.11-1.58q-6,0-25.27,8.23a9.92,9.92,0,0,1-3.92.86q-9.09,0-9.09-6,0-10,16-16.41t27.56-6.36a26.57,26.57,0,0,1,17.9,6.7q7.75,6.7,7.75,16.17,0,8.52-6.08,16.32t-26.08,18.81q-14,7.75-19.09,13.45T1283.44,590.56Z"/><path class="cls-1" d="M1407.18,563.09a23.13,23.13,0,0,1,8,3.73q3.73,2.68,8.9,9.76,10,13.78,15.7,18.09a20.45,20.45,0,0,0,12.54,4.31q7.08,0,7.08,4.4,0,4.21-4.88,8.52t-15.41,4.31q-16.17,0-32.83-26.7-9.67-15.69-16.17-15.7a23.28,23.28,0,0,0-4.64,1.24,16,16,0,0,0-4.93,2.25q-1.15,1-1.91,12.2l-1.05,17.61a10.46,10.46,0,0,1-3.54,7.42,11.78,11.78,0,0,1-8.33,3.11q-5.26,0-8.23-2.92t-3-5.89q0-3.64,2.39-15.6,5.74-30.15,9.09-73.69a16.43,16.43,0,0,1,4.59-10.14,13,13,0,0,1,9.86-4.59,7.91,7.91,0,0,1,6.51,3.35,12.34,12.34,0,0,1,2.58,7.75,22.55,22.55,0,0,1-1.15,7,164,164,0,0,0-4.07,16.84,180.08,180.08,0,0,0-3.21,19.43q11.39-3.45,17.71-9.57t15.7-19.62q7.85-11.1,14.74-16.41a24.22,24.22,0,0,1,15.12-5.31,11.84,11.84,0,0,1,8.37,3.78q3.88,3.78,3.88,8a6.47,6.47,0,0,1-2.15,5.31q-2.15,1.77-7.51,3.4-6.8,2-14.55,10.91Q1416.37,558.11,1407.18,563.09Z"/><path class="cls-1" d="M1562.22,563.38a76.44,76.44,0,0,1-24.36,37.75q-17.94,15.36-35.84,15.36a29.81,29.81,0,0,1-23.35-10.38q-9.19-10.38-9.19-25.5,0-24.69,16.84-48.62t40.87-23.93q16.37,0,26.51,12.11T1563.85,549a62.69,62.69,0,0,1-1.63,14.26Zm-49.77-30.24q-6.7,5.94-13.11,18.95a58.63,58.63,0,0,0-6.41,26.13q0,7.95,2.92,13.11t7.7,5.17q11.87,0,24.69-14.07t12.82-31.58q0-9.86-4.16-16.22a13.15,13.15,0,0,0-11.63-6.36,19,19,0,0,0-12.73,4.88Z"/><path class="cls-1" d="M1592.47,610.08q-10.53,0-10.53-11.68,0-4.4,4.31-10.14t9.28-5.74q3.25,0,8.13,3.16t4.88,5.36l-1,5.93a13.08,13.08,0,0,1-6.22,9.71Q1596,610.08,1592.47,610.08Zm13.59-44q-9.57,0-14.83-3.92a131.45,131.45,0,0,1,2.68-38.38q4.69-21.34,4.69-32,0-1.05,1-8a15,15,0,0,1,6.08-10.58q5.07-3.64,8.61-3.64a11.51,11.51,0,0,1,7.32,2.82q3.49,2.82,3.49,6.17,0,2.68-3.88,19.86t-7.7,31.63q-4,15-4.21,24A24.43,24.43,0,0,1,1606.06,566.06Z"/><path class="cls-1" d="M479.08,259.44q30.51,17.92,41.88,39t8.47,42.37q-2.91,21.31-17.19,41.88a182.85,182.85,0,0,1-35.11,37.53,258.2,258.2,0,0,1-46,29.78,227.08,227.08,0,0,1-48.91,18.64,433.86,433.86,0,0,1-59.56,10.17q-29.54,2.91-48.91,1.45Q257.79,504,239.88,526a502.2,502.2,0,0,1-38.74,42.37q-31,29.05-67.06,41.88a162.45,162.45,0,0,1-75.29,8q-24.7-2.9-38.74-13.07t-18.16-23A39.43,39.43,0,0,1,2.61,556q4.85-13.31,17.92-22t33.65-10.89q20.58-2.18,48.18,7,7.74,2.9,6.29,5.81t-7.75.48q-19.37-7.26-33.65-5.33T44,540.28A35.63,35.63,0,0,0,31.91,558.2a35.14,35.14,0,0,0,0,20.82A34.79,34.79,0,0,0,44.5,596.45q9.44,7.26,26.39,8.23,32.43,1.45,59.56-12.59t51.81-37.77q23.72-23.24,43.58-57.62t40.43-73.12q20.58-38.73,44.06-78.44a479.19,479.19,0,0,1,54.47-74.57q6.77-7.26,12.83-14t12.83-13.07q-20.82-2.9-42.61-3.87t-42.61-.24q-20.82.73-39.95,2.66t-34.14,4.84a429,429,0,0,0-51.08,13.56,283.85,283.85,0,0,0-54,24A190.12,190.12,0,0,0,81.3,319.73a89.58,89.58,0,0,0-23.48,47.69A55.27,55.27,0,0,0,59,391.15a54.55,54.55,0,0,0,9.68,19.37,48.19,48.19,0,0,0,16,13.07,49.1,49.1,0,0,0,20.58,5.33A53.07,53.07,0,0,0,128,424.8a81.54,81.54,0,0,0,20.82-12.59A92.07,92.07,0,0,0,166,393.33a100.34,100.34,0,0,0,11.86-23q1-5.32,3.87-5.08t2.91,5.57q0,16.47-7.26,29.29a69.24,69.24,0,0,1-18.88,21.55,83.39,83.39,0,0,1-25.91,13.07,86.28,86.28,0,0,1-28.33,3.87,89.45,89.45,0,0,1-27.84-5.33A65.89,65.89,0,0,1,53.21,419a68,68,0,0,1-15.74-23.24q-5.81-13.8-4.84-32.2a84,84,0,0,1,11.14-39.22,124.55,124.55,0,0,1,26.39-31.47,183.15,183.15,0,0,1,36.56-24.45,331,331,0,0,1,41.88-17.92A414.62,414.62,0,0,1,191,238.14q20.81-4.83,38.25-7.26a750.31,750.31,0,0,1,85.95-7,391.91,391.91,0,0,1,88.37,7.51A180,180,0,0,1,420.25,220a105.33,105.33,0,0,1,19.61-9q11.62-4.84,12.59-1.45t-7.75,8.72a113.35,113.35,0,0,0-9.68,7,142.36,142.36,0,0,0-12.11,10.89A219.13,219.13,0,0,1,479.08,259.44Zm-11.14,10.17A133.93,133.93,0,0,0,443,257a250.45,250.45,0,0,0-29.29-9.2q-18.41,26.15-34.86,54T346.4,358q-16,28.33-32.2,56.65t-33.65,55.44a191.24,191.24,0,0,0,40.67-2.66A381.59,381.59,0,0,0,366.74,457a218.44,218.44,0,0,0,49.15-21.31,226,226,0,0,0,40.67-30.26,169,169,0,0,0,28.81-35.11q11.13-18.4,13.56-36.56a64.51,64.51,0,0,0-4.84-34.86Q486.82,282.2,467.94,269.61Z"/><path class="cls-2" d="M184.75,365.5c.49,0-2.71-2.08-2.31-2.88C185,357.54,190,348.79,190,343c0-3.51-2.31-8.07-2.31-8.07a4,4,0,0,1,.22-3.09l23.33-25.13-1.22-6.38a2.1,2.1,0,0,1,1.88-2.48l4.92-.43,24.16-39h0s-5.66-70,5.49-92.33c0,8.07,1.73,23.05,5.19,27.09-.58-12.1-.11-26.92,3.95-36.31s39.19-31.12,39.19-31.12l3.46,27.09s.58-30.55,13.34-39.38S358.1,83.72,358.1,83.72l-13.61,39.14s19.9-39.56,26.62-46.58S413,50.82,413,50.82l-3.46,15s5.19-11.53,9.9-17.4c4-5,31.59-14.87,31.59-14.87s.58,9-1.15,13.25S443,58.32,443,58.32s24.6-24.13,32.14-28.49S519.78,15,519.78,15l-7.58,13.39s14.2-12.49,21.24-15.56S562.91,7.6,562.91,7.6l-8.07,12.1S570,3.81,597.83,2C619.88.48,650.07.12,661.73.11c4.26,0,4.95-.48,3.68.57,0,0-14.23,14.41-20.08,16.71s-26.51,5.19-26.51,5.19l19.9-.19s-24.43,15.17-29.13,16.9-52.45,8.64-52.45,8.64l43.8-1.73s-38.67,27-42.14,28.22-37.39,4.63-37.39,4.63,19.2.73,22.52.94-39.9,30.18-53.07,34.21c-9.53,1.69-18-4-38.7,1.15,9.8,1.15,30.44,5.52,30.44,5.52s-21.9,21.79-31.51,24.45c-5.16,1.43-12.77-2.31-23.14,1.15a69.29,69.29,0,0,1,13.34,5.76s-14.5,16.71-26.6,21.32c-12.1,2.88-44.38,2.31-44.38,2.31s3,6.92,36.4,5.19c-2.31,8.07-14.26,18.49-22,20.75-9.88,2.88-33.43,7.49-53,9.22,8.07,3.46,47.7-.67,47.7-.67S340.36,256,321.28,258.9c-11.38.56-33.81-2.34-33.81-2.34a49.4,49.4,0,0,0,19,8.08C296.65,268.1,261,268,261,268a2.52,2.52,0,0,0-1.9,1.1l-25.5,37.63,1.79,6a2.15,2.15,0,0,1-1.92,2.76l-5.38.4-12.73,32.51a1.76,1.76,0,0,1-1.42,1.18s-5.56-1.66-8.33-.27c-3.46,1.73-4.07,3.32-5.76,5.19-1.4,1.54-7.42,9.44-9.88,12.68-.44.57-3-.07-3.46-.58L206.65,335c8.62.54,4-8.07,4-8.07s-9.42-.39-5.76,6.92C203.57,335.72,184.4,365.5,184.75,365.5Z"/><path class="cls-3" d="M589.76,21.43C350.3,89.15,282.29,206.15,229.55,290.58c-2.31,4,2.31,6.92,5.19,2.31C286.9,219.4,341.07,111.05,590,21.72"/><path class="cls-3" d="M233.17,310.75c-1.73-1.15-12.68-6.34-15.1-7.42a1.45,1.45,0,0,0-1.8.37l-.39.72c-.51.68.11,1.51.86,1.9L230.41,314C233.17,315.36,235.2,312.1,233.17,310.75Z"/><path class="cls-3" d="M214.15,343.6c1.71-3.12,8.85-20.59,11-24.78,1.15-2.31,1.15-2.88.58-3.46-.91-.91-2.88-1.73-4.14.78L210,340.87C207.94,345.86,212.13,347.27,214.15,343.6Z"/></g></g></svg>