<svg xmlns="http://www.w3.org/2000/svg" xmlns:xlink="http://www.w3.org/1999/xlink" viewBox="0 0 586.82 568.77"><defs><style>.cls-1{fill:#f2f2f2;}.cls-2{fill:url(#Безымянный_градиент_2);}.cls-3{fill:#060942;}</style><linearGradient id="Безымянный_градиент_2" x1="344.65" y1="14.79" x2="143.14" y2="177.91" gradientUnits="userSpaceOnUse"><stop offset="0" stop-color="#9b9b9b"/><stop offset="0.13" stop-color="#8b8b91"/><stop offset="1" stop-color="#fff"/></linearGradient></defs><title>Ресурс 11</title><g id="Слой_2" data-name="Слой 2"><g id="Слой_1-2" data-name="Слой 1"><path class="cls-1" d="M226.36,401.52Q208,416.06,198,416.06a12,12,0,0,1-10.19-5.12,20.29,20.29,0,0,1-3.75-12.33q0-9.23,3.75-23.11t6.29-16a10,10,0,0,1,6.7-2.14,5,5,0,0,1,4.29,2.38,9.42,9.42,0,0,1,1.67,5.54q0,.89-4.29,10.07-5.24,11.2-5.24,19.3a13.55,13.55,0,0,0,1.28,6.31q1.28,2.44,2.65,2.44a17.74,17.74,0,0,0,6.73-1.64,44.28,44.28,0,0,0,9.44-6q5.57-4.38,7.12-6.58a18.64,18.64,0,0,0,2.53-5.81q1-3.6,1.52-15.4a71,71,0,0,1,.68-8.7,6,6,0,0,1,2.12-3.28,6.88,6.88,0,0,1,4.65-1.49q3.93,0,5.57,1.67t1.64,7.86q0,8.4-3,35.8t-11,39.7q-8,12.3-21.47,12.3a35.81,35.81,0,0,1-21.06-6.31q-9-6.31-9-11.2a6.72,6.72,0,0,1,1.4-4.47,4.55,4.55,0,0,1,3.66-1.67,4,4,0,0,1,3.28,1.67q8.46,9.83,20.61,9.83Q222,439.65,226.36,401.52Z"/><path class="cls-1" d="M273.78,422.07q-9.83,0-15-5.36t-5.12-14.89q0-15,12.21-32.47t23.95-17.45q5.66,0,9.65,5.63a20,20,0,0,1,4,11.71q0,5.72-2.12,7.71a6.12,6.12,0,0,1-4.08,2q-5.78,0-6.73-8-.71-5.84-2.92-5.84-4.65,0-12.27,13.22t-7.62,23.17q0,8,8.7,8,9.59,0,19.36-6.79,4.59-3.28,7.27-3.28,3.28,0,3.28,3.28,0,4.59-10.51,11.94A37.92,37.92,0,0,1,273.78,422.07Z"/><path class="cls-1" d="M335.37,422.07q-9.83,0-15-5.36t-5.12-14.89q0-15,12.21-32.47t23.95-17.45q5.66,0,9.65,5.63a20,20,0,0,1,4,11.71q0,5.72-2.12,7.71a6.12,6.12,0,0,1-4.08,2q-5.78,0-6.73-8-.71-5.84-2.92-5.84-4.65,0-12.27,13.22t-7.62,23.17q0,8,8.7,8,9.59,0,19.36-6.79,4.59-3.28,7.27-3.28,3.28,0,3.28,3.28,0,4.59-10.51,11.94A37.92,37.92,0,0,1,335.37,422.07Z"/><path class="cls-1" d="M411.09,388.42a14.39,14.39,0,0,1,5,2.32,28,28,0,0,1,5.54,6.08q6.19,8.58,9.77,11.26a12.73,12.73,0,0,0,7.8,2.68q4.41,0,4.41,2.74t-3,5.3q-3,2.68-9.59,2.68-10.07,0-20.43-16.62-6-9.77-10.07-9.77a14.48,14.48,0,0,0-2.89.77,10,10,0,0,0-3.07,1.4q-.71.63-1.19,7.6l-.66,11a6.51,6.51,0,0,1-2.2,4.62,7.33,7.33,0,0,1-5.18,1.94,7,7,0,0,1-5.12-1.82,5.22,5.22,0,0,1-1.85-3.66,65.16,65.16,0,0,1,1.49-9.71,424.51,424.51,0,0,0,5.66-45.87,10.23,10.23,0,0,1,2.86-6.31,8.08,8.08,0,0,1,6.14-2.86,4.92,4.92,0,0,1,4.05,2.08,7.68,7.68,0,0,1,1.61,4.83,14,14,0,0,1-.71,4.35,102.11,102.11,0,0,0-2.53,10.48,111.9,111.9,0,0,0-2,12.09,26.64,26.64,0,0,0,11-6,86.93,86.93,0,0,0,9.77-12.21,47.62,47.62,0,0,1,9.17-10.22,15.07,15.07,0,0,1,9.41-3.31,7.37,7.37,0,0,1,5.21,2.35,6.93,6.93,0,0,1,2.41,5,4,4,0,0,1-1.34,3.31,14.22,14.22,0,0,1-4.68,2.12q-4.23,1.25-9.05,6.79Q416.81,385.32,411.09,388.42Z"/><path class="cls-1" d="M493.23,397A55.25,55.25,0,0,1,480,413.55q-7.54,6.14-15.28,6.14-4.59,0-9.26-4.83T450.76,400q0-7.09,3.57-21.39,3.1-11.79,3.1-17.93,2.38-5,7.45-5a7,7,0,0,1,5.51,2.29,7,7,0,0,1,2.05,4.62q0,4.23-3,12a115.64,115.64,0,0,0-3.72,13.13q-2,8.49-2,10.87,0,7.92,3.28,7.92,5.18,0,14-9.95t11.5-20.37q2.68-10.19,4.77-13.34a6.67,6.67,0,0,1,5.9-3.16q6.19,0,6.2,6.91a16.58,16.58,0,0,1-1,4.05,74.93,74.93,0,0,0-3.51,23.77q0,15.49,5.24,18.53a2.92,2.92,0,0,1,1.73,2.5q0,2.14-3,4.05a11,11,0,0,1-5.78,1.91q-4.71,0-7.24-6.64T493.23,397Z"/><path class="cls-1" d="M567.34,397a55.25,55.25,0,0,1-13.25,16.56q-7.54,6.14-15.28,6.14-4.59,0-9.26-4.83T524.87,400q0-7.09,3.57-21.39,3.1-11.79,3.1-17.93,2.38-5,7.45-5a7,7,0,0,1,5.51,2.29,7,7,0,0,1,2.06,4.62q0,4.23-3,12a115.81,115.81,0,0,0-3.72,13.13q-2,8.49-2,10.87,0,7.92,3.28,7.92,5.18,0,14-9.95t11.5-20.37q2.68-10.19,4.77-13.34a6.67,6.67,0,0,1,5.9-3.16q6.19,0,6.2,6.91a16.58,16.58,0,0,1-1,4.05A74.93,74.93,0,0,0,579,394.49Q579,410,584.2,413a2.92,2.92,0,0,1,1.73,2.5q0,2.14-3,4.05a11,11,0,0,1-5.78,1.91q-4.71,0-7.24-6.64T567.34,397Zm19.48-66.78a8.76,8.76,0,0,1-.63,2.86,22.43,22.43,0,0,1-1.76,3.66,25,25,0,0,1-2.77,3.81,20.68,20.68,0,0,1-3.66,3.31h.06a20.23,20.23,0,0,1-3.43,1.79,30.51,30.51,0,0,1-4.2,1.4,42,42,0,0,1-4.47.89,29.59,29.59,0,0,1-4.23.33,27.39,27.39,0,0,1-6.55-.77,25,25,0,0,1-5.84-2.2,22.05,22.05,0,0,1-4.79-3.43,20.51,20.51,0,0,1-3.54-4.38,14.5,14.5,0,0,1-.8-1.82q-.39-1-.68-2a17.23,17.23,0,0,1-.45-1.76,7,7,0,0,1-.15-1,6.35,6.35,0,0,1,.57-2.89,4.52,4.52,0,0,1,1.43-1.7,4.72,4.72,0,0,1,1.85-.77,10.19,10.19,0,0,1,1.82-.18,7.74,7.74,0,0,1,3.84,1,4.27,4.27,0,0,1,2.06,3.49,10.07,10.07,0,0,0,.71,3.1,7.64,7.64,0,0,0,2,3,11.71,11.71,0,0,0,3.75,2.2,15.43,15.43,0,0,0,5.54.89,11,11,0,0,0,1.82-.18q1-.18,2.11-.45a16.3,16.3,0,0,0,2.11-.68,13.27,13.27,0,0,0,1.76-.83,7.79,7.79,0,0,0,2-1.73,12.12,12.12,0,0,0,1.43-2.17,19.78,19.78,0,0,0,1-2.32q.42-1.16.71-2.11a4.18,4.18,0,0,1,1-1.67,7,7,0,0,1,1.49-1.19,6.87,6.87,0,0,1,1.67-.71,6,6,0,0,1,1.58-.24,6.47,6.47,0,0,1,4.05,1.19Q586.82,327.06,586.82,330.22Z"/><path class="cls-1" d="M198.36,559.54q0,1.43-1.88,4.08t-6.7,2.65q-5.9,0-10.54-10a86.51,86.51,0,0,1-6.67-22q-.71-4-1.91-9.29a33.28,33.28,0,0,1-.54-3.75,15.47,15.47,0,0,0-.48-3.22q-1,1.91-2,4.35a228.7,228.7,0,0,1-16.32,30.14l-.71,1.37a5.84,5.84,0,0,1-.89,1.19q-7.39,13.22-12.09,13.22-6.73,0-6.73-6,0-4.65,6.31-12.09,7.68-9.29,19.84-32.58l8.46-16.2a4.79,4.79,0,0,1,4.59-2.38,11.84,11.84,0,0,1,4.62,1.16,7,7,0,0,1,3.51,2.77,21.32,21.32,0,0,1,1.64,5.24q4.29,20.14,7.74,31.75t7.57,14.65a5.27,5.27,0,0,1,3.22,4.88Z"/><path class="cls-1" d="M261.51,544.7q0,6.2-10.42,14.8a36,36,0,0,1-23.53,8.61q-10.07,0-15.85-6.34t-5.78-17.66q0-16.68,11.79-31.27t25.2-14.59a14.16,14.16,0,0,1,14.77,14.3q0,10.37-9.95,19.75t-25.5,13a2,2,0,0,0-1.79,2.14,7.76,7.76,0,0,0,2.53,5.45,9,9,0,0,0,6.76,2.59q12,0,23.77-12.33,2.26-2.38,4.41-2.38Q261.51,540.71,261.51,544.7Zm-40-10.54a36.14,36.14,0,0,0,16.59-8Q245.3,520,245.3,515a5,5,0,0,0-1.1-3.31,3.5,3.5,0,0,0-2.83-1.34q-5.18,0-11.5,7.62A39.56,39.56,0,0,0,221.53,534.16Z"/><path class="cls-1" d="M285,551.91a3.6,3.6,0,0,0,1.91,2.95,6.31,6.31,0,0,0,3.4,1.28,41.78,41.78,0,0,0,18-3.57q4.53-2.26,6.79-2.26,3.93,0,3.93,4.17,0,5.6-9,9.44t-22,3.84a20.65,20.65,0,0,1-13.46-4.56,14.35,14.35,0,0,1-5.6-11.65A21.44,21.44,0,0,1,273,539.61q3.93-5.93,19.54-14.21a59.82,59.82,0,0,0,9.38-5.6,5.09,5.09,0,0,0,2.17-3.75,3.06,3.06,0,0,0-1.28-2.53,3.85,3.85,0,0,0-1.94-1q-3.75,0-15.73,5.12a6.18,6.18,0,0,1-2.44.54q-5.66,0-5.66-3.75,0-6.25,9.95-10.22t17.16-4a16.54,16.54,0,0,1,11.14,4.17,12.86,12.86,0,0,1,4.83,10.07,16.31,16.31,0,0,1-3.78,10.16q-3.79,4.85-16.23,11.71-8.7,4.83-11.88,8.37A10.77,10.77,0,0,0,285,551.91Z"/><path class="cls-1" d="M362.06,534.82a14.39,14.39,0,0,1,5,2.32,28,28,0,0,1,5.54,6.08q6.19,8.58,9.77,11.26a12.73,12.73,0,0,0,7.8,2.68q4.41,0,4.41,2.74t-3,5.3q-3,2.68-9.59,2.68-10.07,0-20.43-16.62-6-9.77-10.07-9.77a14.48,14.48,0,0,0-2.89.77,10,10,0,0,0-3.07,1.4q-.71.63-1.19,7.6l-.66,11a6.51,6.51,0,0,1-2.2,4.62,7.33,7.33,0,0,1-5.18,1.94,7,7,0,0,1-5.12-1.82,5.23,5.23,0,0,1-1.85-3.66,65.16,65.16,0,0,1,1.49-9.71,424.51,424.51,0,0,0,5.66-45.87,10.23,10.23,0,0,1,2.86-6.31,8.08,8.08,0,0,1,6.14-2.86,4.92,4.92,0,0,1,4.05,2.08,7.68,7.68,0,0,1,1.61,4.83,14,14,0,0,1-.71,4.35,102,102,0,0,0-2.53,10.48,112.34,112.34,0,0,0-2,12.09,26.64,26.64,0,0,0,11-6,86.93,86.93,0,0,0,9.77-12.21A47.65,47.65,0,0,1,375.82,504a15.08,15.08,0,0,1,9.41-3.31,7.37,7.37,0,0,1,5.21,2.35,6.94,6.94,0,0,1,2.41,5,4,4,0,0,1-1.34,3.31,14.27,14.27,0,0,1-4.68,2.11q-4.23,1.25-9.05,6.79Q367.78,531.72,362.06,534.82Z"/><path class="cls-1" d="M458.56,535a47.58,47.58,0,0,1-15.16,23.5q-11.17,9.56-22.31,9.56a18.55,18.55,0,0,1-14.54-6.46,23.1,23.1,0,0,1-5.72-15.88q0-15.37,10.48-30.26t25.44-14.89a20.5,20.5,0,0,1,16.5,7.54,27.07,27.07,0,0,1,6.31,18,39,39,0,0,1-1,8.88Zm-31-18.82q-4.17,3.69-8.16,11.79a36.5,36.5,0,0,0-4,16.26,16.42,16.42,0,0,0,1.82,8.16q1.82,3.22,4.79,3.22,7.39,0,15.37-8.76t8-19.66a18.11,18.11,0,0,0-2.59-10.1,8.19,8.19,0,0,0-7.24-4,11.8,11.8,0,0,0-7.92,3Z"/><path class="cls-1" d="M477.39,564.06q-6.55,0-6.55-7.27,0-2.74,2.68-6.31t5.78-3.57a10,10,0,0,1,5.06,2q3,2,3,3.34l-.6,3.69a8.14,8.14,0,0,1-3.87,6Q479.59,564.06,477.39,564.06Zm8.46-27.4q-6,0-9.23-2.44a81.83,81.83,0,0,1,1.67-23.89q2.92-13.28,2.92-19.9,0-.65.63-5a9.34,9.34,0,0,1,3.78-6.58q3.16-2.26,5.36-2.26a7.17,7.17,0,0,1,4.56,1.76,5,5,0,0,1,2.17,3.84q0,1.67-2.41,12.36t-4.8,19.69a66.78,66.78,0,0,0-2.62,15A15.2,15.2,0,0,1,485.85,536.66Z"/><path class="cls-1" d="M312.07,169q19.87,11.67,27.28,25.39t5.52,27.6q-1.89,13.88-11.2,27.28a119.11,119.11,0,0,1-22.87,24.44,168.19,168.19,0,0,1-30,19.4A147.92,147.92,0,0,1,249,305.26a282.62,282.62,0,0,1-38.8,6.62q-19.24,1.89-31.86.95-10.41,15.46-22.08,29.81A327,327,0,0,1,131,370.23q-20.19,18.93-43.68,27.28a105.83,105.83,0,0,1-49,5.2q-16.09-1.89-25.23-8.52t-11.83-15a25.68,25.68,0,0,1,.47-17,29,29,0,0,1,11.67-14.35q8.52-5.68,21.92-7.1t31.38,4.57q5,1.89,4.1,3.78t-5,.31q-12.62-4.73-21.92-3.47t-15.14,6a23.21,23.21,0,0,0-7.89,11.67,22.9,22.9,0,0,0,0,13.56A22.66,22.66,0,0,0,29,388.53q6.15,4.73,17.19,5.36a75.56,75.56,0,0,0,38.8-8.2,145.28,145.28,0,0,0,33.75-24.6q15.45-15.14,28.39-37.53t26.34-47.63q13.4-25.23,28.7-51.1a312.17,312.17,0,0,1,35.48-48.57q4.41-4.73,8.36-9.15t8.36-8.52q-13.56-1.89-27.76-2.52t-27.76-.16q-13.56.47-26,1.73t-22.24,3.15a279.43,279.43,0,0,0-33.28,8.83,184.9,184.9,0,0,0-35.17,15.61,123.84,123.84,0,0,0-29.18,23,58.35,58.35,0,0,0-15.3,31.07,36,36,0,0,0,.79,15.46,35.53,35.53,0,0,0,6.31,12.62,31.4,31.4,0,0,0,10.41,8.52,32,32,0,0,0,13.41,3.47,34.57,34.57,0,0,0,14.82-2.68A53.11,53.11,0,0,0,97,268.51a60,60,0,0,0,11.2-12.3,65.31,65.31,0,0,0,7.73-15q.63-3.47,2.52-3.31t1.89,3.63a38,38,0,0,1-4.73,19.08,45.1,45.1,0,0,1-12.3,14,54.32,54.32,0,0,1-16.87,8.52,56.2,56.2,0,0,1-18.45,2.52,58.27,58.27,0,0,1-18.14-3.47,42.92,42.92,0,0,1-15.14-9.3,44.29,44.29,0,0,1-10.25-15.14q-3.79-9-3.15-21a54.71,54.71,0,0,1,7.25-25.55,81.12,81.12,0,0,1,17.19-20.5,119.3,119.3,0,0,1,23.81-15.93A215.59,215.59,0,0,1,96.8,163.17a270.13,270.13,0,0,1,27.6-8Q138,152,149.32,150.39a488.76,488.76,0,0,1,56-4.57,255.29,255.29,0,0,1,57.56,4.89,117.19,117.19,0,0,1,10.88-7.41,68.63,68.63,0,0,1,12.77-5.84q7.57-3.15,8.2-.95t-5,5.68a73.83,73.83,0,0,0-6.31,4.57,92.73,92.73,0,0,0-7.89,7.1A142.74,142.74,0,0,1,312.07,169Zm-7.25,6.62a87.25,87.25,0,0,0-16.24-8.2,163.09,163.09,0,0,0-19.08-6q-12,17-22.71,35.17t-21.13,36.59q-10.41,18.45-21,36.9t-21.92,36.12a124.57,124.57,0,0,0,26.49-1.74,248.54,248.54,0,0,0,29.65-6.78,142.3,142.3,0,0,0,32-13.88A147.21,147.21,0,0,0,297.4,264.1a110.1,110.1,0,0,0,18.77-22.87A61.84,61.84,0,0,0,325,217.42a42,42,0,0,0-3.15-22.71Q317.12,183.82,304.82,175.62Z"/><path class="cls-2" d="M120.35,238.09c.32,0-1.77-1.36-1.51-1.87,1.68-3.31,4.94-9,4.94-12.77a14.58,14.58,0,0,0-1.5-5.26,2.61,2.61,0,0,1,.15-2l15.2-16.37-.79-4.16a1.37,1.37,0,0,1,1.22-1.62l3.2-.28L157,168.33h0s-3.68-45.61,3.58-60.14c0,5.26,1.13,15,3.38,17.64-.38-7.88-.07-17.54,2.57-23.65s25.53-20.27,25.53-20.27l2.25,17.64s.38-19.9,8.69-25.65,30.26-19.37,30.26-19.37L224.4,80s13-25.77,17.34-30.34S269,33.11,269,33.11l-2.25,9.76s3.38-7.51,6.45-11.33c2.6-3.24,20.58-9.68,20.58-9.68s.38,5.85-.75,8.63A53,53,0,0,1,288.59,38s16-15.72,20.94-18.56,29.05-9.68,29.05-9.68l-4.94,8.72s9.25-8.14,13.83-10.14S366.68,5,366.68,5l-5.26,7.88s9.85-10.35,28-11.56c14.36-1,34-1.2,41.62-1.2,2.77,0,3.22-.31,2.4.37,0,0-9.27,9.39-13.08,10.89s-17.27,3.38-17.27,3.38l13-.12s-15.91,9.88-19,11-34.16,5.63-34.16,5.63l28.53-1.13S366.27,47.72,364,48.48s-24.36,3-24.36,3,12.51.48,14.67.61-26,19.66-34.57,22.29c-6.21,1.1-11.69-2.63-25.21.75,6.38.75,19.83,3.59,19.83,3.59s-14.26,14.19-20.52,15.93c-3.36.93-8.32-1.5-15.07.75a45.14,45.14,0,0,1,8.69,3.75s-9.44,10.89-17.33,13.89c-7.88,1.88-28.91,1.5-28.91,1.5s1.93,4.51,23.71,3.38c-1.5,5.26-9.29,12-14.32,13.52-6.44,1.88-21.77,4.88-34.54,6,5.26,2.25,31.07-.44,31.07-.44s-25.44,29.72-37.87,31.61c-7.41.36-22-1.53-22-1.53a32.18,32.18,0,0,0,12.36,5.27c-6.38,2.25-29.62,2.19-29.62,2.19a1.64,1.64,0,0,0-1.24.72l-16.61,24.51,1.17,3.94a1.4,1.4,0,0,1-1.25,1.8l-3.51.26L140.27,227a1.14,1.14,0,0,1-.92.77s-3.62-1.08-5.43-.18c-2.25,1.13-2.65,2.16-3.75,3.38-.91,1-4.83,6.15-6.44,8.26-.28.37-1.92,0-2.25-.38l13.14-20.65c5.61.35,2.63-5.26,2.63-5.26s-6.14-.25-3.75,4.51C132.61,218.69,120.12,238.09,120.35,238.09Z"/><path class="cls-3" d="M384.17,14c-156,44.11-200.29,120.32-234.64,175.32-1.5,2.63,1.5,4.51,3.38,1.5,34-47.87,69.26-118.44,231.45-176.63"/><path class="cls-3" d="M151.88,202.42c-1.13-.75-8.26-4.13-9.84-4.84a.94.94,0,0,0-1.17.24l-.26.47c-.33.44.07,1,.56,1.24l8.91,5C151.88,205.42,153.21,203.31,151.88,202.42Z"/><path class="cls-3" d="M139.49,223.82c1.12-2,5.77-13.41,7.13-16.14.75-1.5.75-1.88.38-2.25a1.56,1.56,0,0,0-2.7.51L136.81,222C135.45,225.29,138.18,226.21,139.49,223.82Z"/></g></g></svg>