<svg xmlns="http://www.w3.org/2000/svg" xmlns:xlink="http://www.w3.org/1999/xlink" viewBox="0 0 752 752"><defs><style>.cls-1{fill:none;stroke:#060942;stroke-miterlimit:10;stroke-width:12px;}.cls-2{fill:#060942;}.cls-3{fill:url(#Перо);}.cls-4{fill:#fff;}</style><linearGradient id="Перо" x1="444.82" y1="86.44" x2="272.24" y2="200.43" gradientUnits="userSpaceOnUse"><stop offset="0" stop-color="#9b9b9b"/><stop offset="0.13" stop-color="#8b8b91"/><stop offset="1" stop-color="#060942"/></linearGradient></defs><title>Ресурс 9</title><g id="Слой_2" data-name="Слой 2"><g id="Слой_1-2" data-name="Слой 1"><circle class="cls-1" cx="376" cy="376" r="370"/><path class="cls-2" d="M305.52,459.94q-18.41,14.54-28.36,14.54A12,12,0,0,1,267,469.35,20.29,20.29,0,0,1,263.22,457q0-9.23,3.75-23.11t6.29-16a10,10,0,0,1,6.7-2.14,5,5,0,0,1,4.29,2.38,9.42,9.42,0,0,1,1.67,5.54q0,.89-4.29,10.07-5.24,11.2-5.24,19.3a13.55,13.55,0,0,0,1.28,6.31q1.28,2.44,2.65,2.44a17.74,17.74,0,0,0,6.73-1.64,44.28,44.28,0,0,0,9.44-6q5.57-4.38,7.12-6.58a18.64,18.64,0,0,0,2.53-5.81q1-3.6,1.52-15.4a71,71,0,0,1,.68-8.7,6,6,0,0,1,2.12-3.28,6.88,6.88,0,0,1,4.65-1.49q3.93,0,5.57,1.67t1.64,7.86q0,8.4-3,35.8t-11,39.7q-8,12.3-21.47,12.3a35.81,35.81,0,0,1-21.06-6.31q-9-6.31-9-11.2a6.72,6.72,0,0,1,1.4-4.47,4.55,4.55,0,0,1,3.66-1.67,4,4,0,0,1,3.28,1.67q8.46,9.83,20.61,9.83Q301.11,498.06,305.52,459.94Z"/><path class="cls-2" d="M352.93,480.49q-9.83,0-15-5.36t-5.12-14.89q0-15,12.21-32.47T369,410.31q5.66,0,9.65,5.63a20,20,0,0,1,4,11.71q0,5.72-2.12,7.71a6.12,6.12,0,0,1-4.08,2q-5.78,0-6.73-8-.71-5.84-2.92-5.84-4.65,0-12.27,13.22t-7.62,23.17q0,8,8.7,8,9.59,0,19.36-6.79,4.59-3.28,7.27-3.28,3.28,0,3.28,3.28,0,4.59-10.51,11.94A37.92,37.92,0,0,1,352.93,480.49Z"/><path class="cls-2" d="M414.53,480.49q-9.83,0-15-5.36t-5.12-14.89q0-15,12.21-32.47t23.95-17.45q5.66,0,9.65,5.63a20,20,0,0,1,4,11.71q0,5.72-2.12,7.71a6.12,6.12,0,0,1-4.08,2q-5.78,0-6.73-8-.71-5.84-2.92-5.84-4.65,0-12.27,13.22t-7.62,23.17q0,8,8.7,8,9.59,0,19.36-6.79,4.59-3.28,7.27-3.28,3.28,0,3.28,3.28,0,4.59-10.51,11.94A37.92,37.92,0,0,1,414.53,480.49Z"/><path class="cls-2" d="M490.24,446.83a14.39,14.39,0,0,1,5,2.32,28,28,0,0,1,5.54,6.08q6.19,8.58,9.77,11.26a12.73,12.73,0,0,0,7.8,2.68q4.41,0,4.41,2.74t-3,5.3q-3,2.68-9.59,2.68-10.07,0-20.43-16.62-6-9.77-10.07-9.77a14.48,14.48,0,0,0-2.89.77,10,10,0,0,0-3.07,1.4q-.71.63-1.19,7.6l-.66,11a6.51,6.51,0,0,1-2.2,4.62,7.33,7.33,0,0,1-5.18,1.94,7,7,0,0,1-5.12-1.82,5.22,5.22,0,0,1-1.85-3.66A65.16,65.16,0,0,1,459,465.6a424.51,424.51,0,0,0,5.66-45.87,10.23,10.23,0,0,1,2.86-6.31,8.08,8.08,0,0,1,6.14-2.86,4.92,4.92,0,0,1,4.05,2.08,7.68,7.68,0,0,1,1.61,4.83,14,14,0,0,1-.71,4.35A102.11,102.11,0,0,0,476,432.3a111.9,111.9,0,0,0-2,12.09,26.64,26.64,0,0,0,11-6,86.93,86.93,0,0,0,9.77-12.21A47.62,47.62,0,0,1,504,416a15.07,15.07,0,0,1,9.41-3.31,7.37,7.37,0,0,1,5.21,2.35,6.93,6.93,0,0,1,2.41,5,4,4,0,0,1-1.34,3.31,14.22,14.22,0,0,1-4.68,2.12q-4.23,1.25-9.05,6.79Q496,443.73,490.24,446.83Z"/><path class="cls-2" d="M572.39,455.41A55.25,55.25,0,0,1,559.14,472q-7.54,6.14-15.28,6.14-4.59,0-9.26-4.83t-4.68-14.83q0-7.09,3.57-21.39,3.1-11.79,3.1-17.93,2.38-5,7.45-5a7,7,0,0,1,5.51,2.29A7,7,0,0,1,551.6,421q0,4.23-3,12a115.64,115.64,0,0,0-3.72,13.13q-2,8.49-2,10.87,0,7.92,3.28,7.92,5.18,0,14-9.95t11.5-20.37q2.68-10.19,4.77-13.34a6.67,6.67,0,0,1,5.9-3.16q6.19,0,6.2,6.91a16.58,16.58,0,0,1-1,4.05A74.93,74.93,0,0,0,584,452.91q0,15.49,5.24,18.53a2.92,2.92,0,0,1,1.73,2.5q0,2.14-3,4.05a11,11,0,0,1-5.78,1.91q-4.71,0-7.24-6.64T572.39,455.41Z"/><path class="cls-2" d="M646.5,455.41A55.25,55.25,0,0,1,633.24,472q-7.54,6.14-15.28,6.14-4.59,0-9.26-4.83T604,458.45q0-7.09,3.57-21.39,3.1-11.79,3.1-17.93,2.38-5,7.45-5a7,7,0,0,1,5.51,2.29,7,7,0,0,1,2.06,4.62q0,4.23-3,12A115.81,115.81,0,0,0,619,446.21q-2,8.49-2,10.87,0,7.92,3.28,7.92,5.18,0,14-9.95t11.5-20.37q2.68-10.19,4.77-13.34a6.67,6.67,0,0,1,5.9-3.16q6.19,0,6.2,6.91a16.58,16.58,0,0,1-1,4.05,74.93,74.93,0,0,0-3.51,23.77q0,15.49,5.24,18.53a2.92,2.92,0,0,1,1.73,2.5q0,2.14-3,4.05a11,11,0,0,1-5.78,1.91q-4.71,0-7.24-6.64T646.5,455.41ZM666,388.63a8.76,8.76,0,0,1-.63,2.86,22.43,22.43,0,0,1-1.76,3.66,25,25,0,0,1-2.77,3.81,20.68,20.68,0,0,1-3.66,3.31h.06a20.23,20.23,0,0,1-3.43,1.79,30.51,30.51,0,0,1-4.2,1.4,42,42,0,0,1-4.47.89,29.59,29.59,0,0,1-4.23.33,27.39,27.39,0,0,1-6.55-.77,25,25,0,0,1-5.84-2.2,22.05,22.05,0,0,1-4.79-3.43,20.51,20.51,0,0,1-3.54-4.38,14.5,14.5,0,0,1-.8-1.82q-.39-1-.68-2a17.23,17.23,0,0,1-.45-1.76,7,7,0,0,1-.15-1,6.35,6.35,0,0,1,.57-2.89,4.52,4.52,0,0,1,1.43-1.7,4.72,4.72,0,0,1,1.85-.77,10.19,10.19,0,0,1,1.82-.18,7.74,7.74,0,0,1,3.84,1,4.27,4.27,0,0,1,2.06,3.49,10.07,10.07,0,0,0,.71,3.1,7.64,7.64,0,0,0,2,3,11.71,11.71,0,0,0,3.75,2.2,15.43,15.43,0,0,0,5.54.89,11,11,0,0,0,1.82-.18q1-.18,2.11-.45a16.3,16.3,0,0,0,2.11-.68,13.27,13.27,0,0,0,1.76-.83,7.79,7.79,0,0,0,2-1.73,12.12,12.12,0,0,0,1.43-2.17,19.78,19.78,0,0,0,1-2.32q.42-1.16.71-2.11a4.18,4.18,0,0,1,1-1.67,7,7,0,0,1,1.49-1.19,6.87,6.87,0,0,1,1.67-.71,6,6,0,0,1,1.58-.24,6.47,6.47,0,0,1,4.05,1.19Q666,385.47,666,388.63Z"/><path class="cls-2" d="M277.52,618q0,1.43-1.88,4.08t-6.7,2.65q-5.9,0-10.54-10a86.51,86.51,0,0,1-6.67-22q-.71-4-1.91-9.29a33.28,33.28,0,0,1-.54-3.75,15.47,15.47,0,0,0-.48-3.22q-1,1.91-2,4.35a228.7,228.7,0,0,1-16.32,30.14l-.71,1.37a5.84,5.84,0,0,1-.89,1.19q-7.39,13.22-12.09,13.22-6.73,0-6.73-6,0-4.65,6.31-12.09Q224,599.31,236.18,576l8.46-16.2a4.79,4.79,0,0,1,4.59-2.38,11.84,11.84,0,0,1,4.62,1.16,7,7,0,0,1,3.51,2.77A21.32,21.32,0,0,1,259,566.6q4.29,20.14,7.74,31.75T274.3,613a5.27,5.27,0,0,1,3.22,4.88Z"/><path class="cls-2" d="M340.66,603.12q0,6.2-10.42,14.8a36,36,0,0,1-23.53,8.61q-10.07,0-15.85-6.34t-5.78-17.66q0-16.68,11.79-31.27t25.2-14.59A14.16,14.16,0,0,1,336.85,571q0,10.37-9.95,19.75t-25.5,13a2,2,0,0,0-1.79,2.14,7.76,7.76,0,0,0,2.53,5.45,9,9,0,0,0,6.76,2.59q12,0,23.77-12.33,2.26-2.38,4.41-2.38Q340.66,599.13,340.66,603.12Zm-40-10.54a36.14,36.14,0,0,0,16.59-8q7.18-6.13,7.18-11.14a5,5,0,0,0-1.1-3.31,3.5,3.5,0,0,0-2.83-1.34q-5.18,0-11.5,7.63A39.56,39.56,0,0,0,300.69,592.58Z"/><path class="cls-2" d="M364.19,610.33a3.6,3.6,0,0,0,1.91,2.95,6.31,6.31,0,0,0,3.4,1.28,41.78,41.78,0,0,0,18-3.57q4.53-2.26,6.79-2.26,3.93,0,3.93,4.17,0,5.6-9,9.44t-22,3.84a20.65,20.65,0,0,1-13.46-4.56,14.35,14.35,0,0,1-5.6-11.65A21.44,21.44,0,0,1,352.16,598q3.93-5.93,19.54-14.21a59.82,59.82,0,0,0,9.38-5.6,5.09,5.09,0,0,0,2.17-3.75,3.06,3.06,0,0,0-1.28-2.53,3.85,3.85,0,0,0-1.94-1q-3.75,0-15.73,5.12a6.18,6.18,0,0,1-2.44.54q-5.66,0-5.66-3.75,0-6.25,9.95-10.22t17.16-4a16.54,16.54,0,0,1,11.14,4.17,12.86,12.86,0,0,1,4.83,10.07,16.31,16.31,0,0,1-3.78,10.16q-3.79,4.85-16.23,11.71-8.7,4.83-11.88,8.37A10.77,10.77,0,0,0,364.19,610.33Z"/><path class="cls-2" d="M441.22,593.23a14.39,14.39,0,0,1,5,2.32,28,28,0,0,1,5.54,6.08q6.19,8.58,9.77,11.26a12.73,12.73,0,0,0,7.8,2.68q4.41,0,4.41,2.74t-3,5.3q-3,2.68-9.59,2.68-10.07,0-20.43-16.62-6-9.77-10.07-9.77a14.48,14.48,0,0,0-2.89.77,10,10,0,0,0-3.07,1.4q-.71.63-1.19,7.6l-.66,11a6.51,6.51,0,0,1-2.2,4.62,7.33,7.33,0,0,1-5.18,1.94,7,7,0,0,1-5.12-1.82,5.23,5.23,0,0,1-1.85-3.66,65.16,65.16,0,0,1,1.49-9.71,424.51,424.51,0,0,0,5.66-45.87,10.23,10.23,0,0,1,2.86-6.31A8.08,8.08,0,0,1,424.6,557a4.92,4.92,0,0,1,4.05,2.08,7.68,7.68,0,0,1,1.61,4.83,14,14,0,0,1-.71,4.35A102,102,0,0,0,427,578.7a112.34,112.34,0,0,0-2,12.09,26.64,26.64,0,0,0,11-6,86.93,86.93,0,0,0,9.77-12.21A47.65,47.65,0,0,1,455,562.4a15.08,15.08,0,0,1,9.41-3.31,7.37,7.37,0,0,1,5.21,2.35,6.94,6.94,0,0,1,2.41,5,4,4,0,0,1-1.34,3.31,14.27,14.27,0,0,1-4.68,2.11q-4.23,1.25-9.05,6.79Q446.94,590.13,441.22,593.23Z"/><path class="cls-2" d="M537.72,593.41a47.58,47.58,0,0,1-15.16,23.5q-11.17,9.56-22.31,9.56A18.55,18.55,0,0,1,485.72,620,23.1,23.1,0,0,1,480,604.13q0-15.37,10.48-30.26T515.92,559a20.5,20.5,0,0,1,16.5,7.54,27.07,27.07,0,0,1,6.31,18,39,39,0,0,1-1,8.88Zm-31-18.82q-4.17,3.69-8.16,11.79a36.5,36.5,0,0,0-4,16.26,16.42,16.42,0,0,0,1.82,8.16q1.82,3.22,4.79,3.22,7.39,0,15.37-8.76t8-19.66a18.11,18.11,0,0,0-2.59-10.1,8.19,8.19,0,0,0-7.24-4,11.8,11.8,0,0,0-7.92,3Z"/><path class="cls-2" d="M556.55,622.48q-6.55,0-6.55-7.27,0-2.74,2.68-6.31t5.78-3.57a10,10,0,0,1,5.06,2q3,2,3,3.34l-.6,3.69a8.14,8.14,0,0,1-3.87,6Q558.75,622.48,556.55,622.48Zm8.46-27.4q-6,0-9.23-2.44a81.83,81.83,0,0,1,1.67-23.89q2.92-13.28,2.92-19.9,0-.65.63-5a9.34,9.34,0,0,1,3.78-6.58q3.16-2.26,5.36-2.26a7.17,7.17,0,0,1,4.56,1.76,5,5,0,0,1,2.17,3.84q0,1.67-2.41,12.36t-4.8,19.69a66.78,66.78,0,0,0-2.62,15A15.2,15.2,0,0,1,565,595.08Z"/><path class="cls-2" d="M395.24,234.53Q415.94,246.7,423.67,261t5.75,28.76q-2,14.47-11.67,28.43a124.13,124.13,0,0,1-23.83,25.47,175.28,175.28,0,0,1-31.23,20.21,154.15,154.15,0,0,1-33.2,12.66,294.52,294.52,0,0,1-40.43,6.9q-20.05,2-33.2,1-10.85,16.11-23,31.06a340.81,340.81,0,0,1-26.3,28.76Q185.52,464,161,472.68a110.28,110.28,0,0,1-51.11,5.42q-16.76-2-26.3-8.88T71.3,453.61a26.77,26.77,0,0,1,.49-17.75,30.25,30.25,0,0,1,12.16-15q8.87-5.92,22.85-7.4t32.7,4.77q5.25,2,4.27,3.94t-5.26.33q-13.15-4.93-22.84-3.62T99.9,425.18a24.19,24.19,0,0,0-8.22,12.16,23.86,23.86,0,0,0,0,14.13,23.61,23.61,0,0,0,8.55,11.83q6.41,4.93,17.91,5.59a78.74,78.74,0,0,0,40.43-8.55,151.39,151.39,0,0,0,35.17-25.64q16.1-15.78,29.58-39.12T250.77,346q14-26.29,29.91-53.25a325.32,325.32,0,0,1,37-50.62q4.6-4.93,8.71-9.53t8.71-8.88q-14.14-2-28.93-2.63t-28.93-.16q-14.14.49-27.12,1.81T226.94,226a291.2,291.2,0,0,0-34.68,9.2,192.69,192.69,0,0,0-36.65,16.27,129.06,129.06,0,0,0-30.4,24,60.81,60.81,0,0,0-15.94,32.38,37.52,37.52,0,0,0,.82,16.11,37,37,0,0,0,6.57,13.15A32.72,32.72,0,0,0,127.51,346a33.33,33.33,0,0,0,14,3.62,36,36,0,0,0,15.45-2.79,55.35,55.35,0,0,0,14.13-8.55,62.47,62.47,0,0,0,11.67-12.82,68.06,68.06,0,0,0,8.05-15.61q.66-3.61,2.63-3.45t2,3.78A39.64,39.64,0,0,1,190.46,330a47,47,0,0,1-12.82,14.63,56.61,56.61,0,0,1-17.59,8.88,58.57,58.57,0,0,1-19.23,2.63,60.72,60.72,0,0,1-18.9-3.62,44.72,44.72,0,0,1-15.78-9.7,46.15,46.15,0,0,1-10.68-15.78q-3.94-9.37-3.29-21.86a57,57,0,0,1,7.56-26.63,84.54,84.54,0,0,1,17.91-21.37,124.33,124.33,0,0,1,24.82-16.6,224.67,224.67,0,0,1,28.43-12.16,281.51,281.51,0,0,1,28.76-8.38q14.13-3.28,26-4.93A509.34,509.34,0,0,1,284,210.37a266,266,0,0,1,60,5.1,122.13,122.13,0,0,1,11.34-7.72,71.52,71.52,0,0,1,13.31-6.08q7.89-3.28,8.55-1t-5.26,5.92a76.94,76.94,0,0,0-6.57,4.77,96.64,96.64,0,0,0-8.22,7.4A148.75,148.75,0,0,1,395.24,234.53Zm-7.56,6.9a90.92,90.92,0,0,0-16.93-8.55,170,170,0,0,0-19.89-6.25q-12.5,17.75-23.67,36.65t-22,38.13q-10.85,19.23-21.86,38.46t-22.85,37.64a129.82,129.82,0,0,0,27.61-1.81,259,259,0,0,0,30.9-7.07,148.29,148.29,0,0,0,33.36-14.46A153.42,153.42,0,0,0,380,333.64a114.73,114.73,0,0,0,19.56-23.83,64.45,64.45,0,0,0,9.2-24.82,43.79,43.79,0,0,0-3.29-23.67Q400.5,250,387.68,241.44Z"/><path class="cls-3" d="M195.44,306.53c.34,0-1.84-1.41-1.57-2,1.75-3.45,5.15-9.39,5.15-13.31a15.19,15.19,0,0,0-1.56-5.48,2.72,2.72,0,0,1,.15-2.1l15.84-17.06-.83-4.33a1.42,1.42,0,0,1,1.28-1.69l3.34-.29,16.4-26.49h0s-3.84-47.54,3.73-62.67c0,5.48,1.17,15.65,3.52,18.39-.39-8.22-.07-18.27,2.68-24.65s26.6-21.13,26.6-21.13l2.35,18.39s.39-20.74,9.06-26.73,31.54-20.19,31.54-20.19l-9.24,26.57S317.38,115,321.94,110.2s28.43-17.29,28.43-17.29L348,103.09s3.52-7.82,6.72-11.81c2.71-3.37,21.45-10.09,21.45-10.09s.39,6.09-.78,9A55.19,55.19,0,0,1,370.77,98s16.7-16.38,21.82-19.34,30.28-10.09,30.28-10.09l-5.15,9.09s9.64-8.48,14.42-10.56,20-3.52,20-3.52l-5.48,8.22S456.93,61,475.85,59.74c15-1,35.46-1.25,43.37-1.25,2.89,0,3.36-.33,2.5.39,0,0-9.66,9.78-13.63,11.35s-18,3.52-18,3.52l13.51-.13S487,83.92,483.84,85.09,448.23,91,448.23,91L478,89.79s-26.25,18.36-28.61,19.15S424,112.09,424,112.09s13,.5,15.29.64-27.09,20.49-36,23.23c-6.47,1.15-12.19-2.74-26.27.78,6.65.78,20.66,3.75,20.66,3.75s-14.87,14.79-21.39,16.6c-3.5,1-8.67-1.56-15.71.78a47,47,0,0,1,9.06,3.91s-9.84,11.35-18.06,14.48c-8.22,2-30.12,1.56-30.12,1.56s2,4.69,24.71,3.52c-1.56,5.48-9.68,12.56-14.93,14.08-6.71,2-22.69,5.09-36,6.26,5.48,2.35,32.38-.45,32.38-.45s-26.51,31-39.47,32.94c-7.72.38-22.95-1.59-22.95-1.59A33.53,33.53,0,0,0,278,238.06c-6.65,2.35-30.87,2.29-30.87,2.29a1.71,1.71,0,0,0-1.29.75l-17.31,25.54,1.22,4.1a1.46,1.46,0,0,1-1.3,1.87l-3.66.27L216.2,295a1.19,1.19,0,0,1-1,.8s-3.77-1.13-5.66-.18c-2.35,1.17-2.77,2.26-3.91,3.52-.95,1-5,6.41-6.71,8.61-.3.39-2,0-2.35-.39l13.69-21.52c5.85.37,2.74-5.48,2.74-5.48s-6.39-.26-3.91,4.69C208.21,286.31,195.2,306.53,195.44,306.53Z"/><path class="cls-4" d="M470.37,73c-162.56,46-208.72,125.39-244.52,182.71-1.56,2.74,1.56,4.69,3.52,1.56,35.41-49.88,72.18-123.43,241.2-184.08"/><path class="cls-4" d="M228.3,269.36c-1.17-.78-8.61-4.3-10.25-5a1,1,0,0,0-1.22.25l-.27.49c-.34.46.07,1,.58,1.29l9.28,5.2C228.3,272.49,229.68,270.28,228.3,269.36Z"/><path class="cls-4" d="M215.39,291.66c1.16-2.12,6-14,7.43-16.82.78-1.56.78-2,.39-2.35a1.62,1.62,0,0,0-2.81.53l-7.81,16.79C211.17,293.2,214,294.16,215.39,291.66Z"/></g></g></svg>