<svg width="16" height="21" viewBox="0 0 16 21" fill="none" xmlns="http://www.w3.org/2000/svg">
<path fill-rule="evenodd" clip-rule="evenodd" d="M7.15307 10.7861C7.44395 11.2607 7.75263 12.004 7.5 12.5L4.6818 17.3214L13.2684 9.97898H11.9764C11.4096 9.97898 9.88895 9.98841 9.60141 9.49998C8.60141 8.99998 8.82636 7.99556 9.10141 7.49998L12.6014 1.87087H7.2615L2.41436 10.0222H5.78892C6.34555 10.0222 6.86219 10.3115 7.15307 10.7861ZM6.35142 0.270874H14.7777C15.54 0.270874 15.4498 1.20435 15.0799 1.87087L11.1014 7.99998L14.8933 8.37898C15.8223 8.37898 16.2492 9.53526 15.5432 10.139L3.42656 20.5C2.59474 21.2113 1.38886 20.2614 1.88558 19.2861L5.78892 12L1.3595 11.6222C0.583972 11.6222 0.103607 10.7777 0.499985 10.1111L6.35142 0.270874Z" fill="white"/>
</svg>
