<svg xmlns="http://www.w3.org/2000/svg" version="1.1" xmlns:xlink="http://www.w3.org/1999/xlink" width="512" height="512" x="0" y="0" viewBox="0 0 682.667 682.667" style="enable-background:new 0 0 512 512" xml:space="preserve" class=""><g><defs><clipPath id="a" clipPathUnits="userSpaceOnUse"><path d="M0 512h512V0H0Z" fill="#3f3a64" opacity="1" data-original="#000000" class=""></path></clipPath></defs><g clip-path="url(#a)" transform="matrix(1.33333 0 0 -1.33333 0 682.667)"><path d="M0 0c11.566-16.294 31.284-27.735 54.198-30.028-.423-2.781-.717-5.596-.717-8.476 0-35.417 32.966-64.129 73.629-64.129 30.279 0 56.287 15.917 67.599 38.668 1.162 2.336 3.596 3.504 6.031 3.504 2.436 0 4.869-1.168 6.031-3.504 11.312-22.751 37.321-38.668 67.599-38.668 40.663 0 73.629 28.712 73.629 64.129 0 2.88-.294 5.695-.717 8.476 10.668 1.067 20.644 4.118 29.426 8.718" style="stroke-width:15;stroke-linecap:round;stroke-linejoin:round;stroke-miterlimit:10;stroke-dasharray:none;stroke-opacity:1" transform="translate(55.26 110.133)" fill="none" stroke="#3f3a64" stroke-width="15" stroke-linecap="round" stroke-linejoin="round" stroke-miterlimit="10" stroke-dasharray="none" stroke-opacity="" data-original="#000000" opacity="1"></path><path d="M0 0c-12.942-8.803-21.264-22.521-21.264-37.931 0-8.801 2.76-17.026 7.501-24.123-29.703-.791-53.518-21.96-53.518-48.021 0-12.359 5.367-23.616 14.161-32.136-15.754-13.515-23.366-30.901-23.366-48.025 0-29.684 23.2-54.544 54.638-61.846-11.588-11.654-17.823-27.162-17.823-42.364" style="stroke-width:15;stroke-linecap:round;stroke-linejoin:round;stroke-miterlimit:10;stroke-dasharray:none;stroke-opacity:1" transform="translate(83.986 438.22)" fill="none" stroke="#3f3a64" stroke-width="15" stroke-linecap="round" stroke-linejoin="round" stroke-miterlimit="10" stroke-dasharray="none" stroke-opacity="" data-original="#000000" opacity="1"></path><path d="M0 0c5.918 9.229 9.291 19.865 9.291 31.192 0 15.203-6.236 30.71-17.823 42.365 31.436 7.3 54.638 32.162 54.638 61.845 0 17.125-7.611 34.512-23.366 48.026 8.794 8.519 14.161 19.777 14.161 32.135 0 26.062-23.815 47.231-53.518 48.022 4.74 7.097 7.501 15.321 7.501 24.123 0 26.563-24.724 48.097-55.222 48.097-2.857 0-6.445-.295-9.313-.673.042.52.11 1.034.101 1.566-.531 29.762-29.318 54.795-63.489 55.214-26.293.323-49.036-13.076-59.394-32.501-1.195-2.242-3.578-3.363-5.961-3.363-2.382 0-4.765 1.121-5.96 3.363-10.357 19.425-33.101 32.824-59.394 32.501-34.173-.419-62.958-25.452-63.489-55.214-.009-.531.059-1.046.1-1.566-2.867.378-6.455.673-9.312.673" style="stroke-width:15;stroke-linecap:round;stroke-linejoin:round;stroke-miterlimit:10;stroke-dasharray:none;stroke-opacity:1" transform="translate(458.394 112.582)" fill="none" stroke="#3f3a64" stroke-width="15" stroke-linecap="round" stroke-linejoin="round" stroke-miterlimit="10" stroke-dasharray="none" stroke-opacity="" data-original="#000000" opacity="1"></path><path d="M0 0s14.374.009 24.763-9.179" style="stroke-width:15;stroke-linecap:round;stroke-linejoin:round;stroke-miterlimit:10;stroke-dasharray:none;stroke-opacity:1" transform="translate(70.224 376.167)" fill="none" stroke="#3f3a64" stroke-width="15" stroke-linecap="round" stroke-linejoin="round" stroke-miterlimit="10" stroke-dasharray="none" stroke-opacity="" data-original="#000000" opacity="1"></path><path d="M0 0s1.936 14.787 12.595 25.069" style="stroke-width:15;stroke-linecap:round;stroke-linejoin:round;stroke-miterlimit:10;stroke-dasharray:none;stroke-opacity:1" transform="translate(109.458 80.105)" fill="none" stroke="#3f3a64" stroke-width="15" stroke-linecap="round" stroke-linejoin="round" stroke-miterlimit="10" stroke-dasharray="none" stroke-opacity="" data-original="#000000" opacity="1"></path><path d="M0 0s-9.61-9.904-23.184-10.983" style="stroke-width:15;stroke-linecap:round;stroke-linejoin:round;stroke-miterlimit:10;stroke-dasharray:none;stroke-opacity:1" transform="translate(481.134 296.01)" fill="none" stroke="#3f3a64" stroke-width="15" stroke-linecap="round" stroke-linejoin="round" stroke-miterlimit="10" stroke-dasharray="none" stroke-opacity="" data-original="#000000" opacity="1"></path><path d="M0 0s.016-17.548-10.023-29.546" style="stroke-width:15;stroke-linecap:round;stroke-linejoin:round;stroke-miterlimit:10;stroke-dasharray:none;stroke-opacity:1" transform="translate(384.844 449.28)" fill="none" stroke="#3f3a64" stroke-width="15" stroke-linecap="round" stroke-linejoin="round" stroke-miterlimit="10" stroke-dasharray="none" stroke-opacity="" data-original="#000000" opacity="1"></path><path d="M0 0v-332.434" style="stroke-width:15;stroke-linecap:round;stroke-linejoin:round;stroke-miterlimit:10;stroke-dasharray:none;stroke-opacity:1" transform="translate(256 382.106)" fill="none" stroke="#3f3a64" stroke-width="15" stroke-linecap="round" stroke-linejoin="round" stroke-miterlimit="10" stroke-dasharray="none" stroke-opacity="" data-original="#000000" opacity="1"></path><path d="M0 0v-51.9" style="stroke-width:15;stroke-linecap:round;stroke-linejoin:round;stroke-miterlimit:10;stroke-dasharray:none;stroke-opacity:1" transform="translate(256 468.63)" fill="none" stroke="#3f3a64" stroke-width="15" stroke-linecap="round" stroke-linejoin="round" stroke-miterlimit="10" stroke-dasharray="none" stroke-opacity="" data-original="#000000" opacity="1"></path><path d="M0 0c8.295 0 15.02-6.714 15.02-14.997S8.295-29.995 0-29.995s-15.02 6.715-15.02 14.998S-8.295 0 0 0Z" style="stroke-width:15;stroke-linecap:round;stroke-linejoin:round;stroke-miterlimit:10;stroke-dasharray:none;stroke-opacity:1" transform="translate(325.106 111.79)" fill="none" stroke="#3f3a64" stroke-width="15" stroke-linecap="round" stroke-linejoin="round" stroke-miterlimit="10" stroke-dasharray="none" stroke-opacity="" data-original="#000000" opacity="1"></path><path d="M0 0c0 53.911-44.676 45.455-69.105 45.455" style="stroke-width:15;stroke-linecap:butt;stroke-linejoin:round;stroke-miterlimit:10;stroke-dasharray:none;stroke-opacity:1" transform="translate(325.106 111.79)" fill="none" stroke="#3f3a64" stroke-width="15" stroke-linecap="butt" stroke-linejoin="round" stroke-miterlimit="10" stroke-dasharray="none" stroke-opacity="" data-original="#000000" opacity="1"></path><path d="M0 0c8.295 0 15.02 6.715 15.02 14.998S8.295 29.995 0 29.995s-15.02-6.714-15.02-14.997S-8.295 0 0 0Z" style="stroke-width:15;stroke-linecap:round;stroke-linejoin:round;stroke-miterlimit:10;stroke-dasharray:none;stroke-opacity:1" transform="translate(325.106 387.731)" fill="none" stroke="#3f3a64" stroke-width="15" stroke-linecap="round" stroke-linejoin="round" stroke-miterlimit="10" stroke-dasharray="none" stroke-opacity="" data-original="#000000" opacity="1"></path><path d="M0 0c0-53.91-44.676-45.454-69.105-45.454" style="stroke-width:15;stroke-linecap:butt;stroke-linejoin:round;stroke-miterlimit:10;stroke-dasharray:none;stroke-opacity:1" transform="translate(325.106 387.731)" fill="none" stroke="#3f3a64" stroke-width="15" stroke-linecap="butt" stroke-linejoin="round" stroke-miterlimit="10" stroke-dasharray="none" stroke-opacity="" data-original="#000000" opacity="1"></path><path d="M0 0c8.295 0 15.02-6.714 15.02-14.997S8.295-29.995 0-29.995s-15.02 6.715-15.02 14.998S-8.295 0 0 0Z" style="stroke-width:15;stroke-linecap:round;stroke-linejoin:round;stroke-miterlimit:10;stroke-dasharray:none;stroke-opacity:1" transform="translate(389.709 161.429)" fill="none" stroke="#3f3a64" stroke-width="15" stroke-linecap="round" stroke-linejoin="round" stroke-miterlimit="10" stroke-dasharray="none" stroke-opacity="" data-original="#000000" opacity="1"></path><path d="M0 0c0 58.148-54.903 58.148-133.709 58.148" style="stroke-width:15;stroke-linecap:butt;stroke-linejoin:round;stroke-miterlimit:10;stroke-dasharray:none;stroke-opacity:1" transform="translate(389.709 161.429)" fill="none" stroke="#3f3a64" stroke-width="15" stroke-linecap="butt" stroke-linejoin="round" stroke-miterlimit="10" stroke-dasharray="none" stroke-opacity="" data-original="#000000" opacity="1"></path><path d="M0 0c8.295 0 15.02 6.715 15.02 14.998S8.295 29.995 0 29.995s-15.02-6.714-15.02-14.997S-8.295 0 0 0Z" style="stroke-width:15;stroke-linecap:round;stroke-linejoin:round;stroke-miterlimit:10;stroke-dasharray:none;stroke-opacity:1" transform="translate(389.709 339.582)" fill="none" stroke="#3f3a64" stroke-width="15" stroke-linecap="round" stroke-linejoin="round" stroke-miterlimit="10" stroke-dasharray="none" stroke-opacity="" data-original="#000000" opacity="1"></path><path d="M0 0c0-58.148-54.903-58.148-133.709-58.148" style="stroke-width:15;stroke-linecap:butt;stroke-linejoin:round;stroke-miterlimit:10;stroke-dasharray:none;stroke-opacity:1" transform="translate(389.709 339.582)" fill="none" stroke="#3f3a64" stroke-width="15" stroke-linecap="butt" stroke-linejoin="round" stroke-miterlimit="10" stroke-dasharray="none" stroke-opacity="" data-original="#000000" opacity="1"></path><path d="M0 0v0" style="stroke-width:15;stroke-linecap:round;stroke-linejoin:round;stroke-miterlimit:10;stroke-dasharray:none;stroke-opacity:1" transform="translate(413.836 249.76)" fill="none" stroke="#0270c1" stroke-width="15" stroke-linecap="round" stroke-linejoin="round" stroke-miterlimit="10" stroke-dasharray="none" stroke-opacity="" data-original="#000000" opacity="1"></path><path d="M0 0v0" style="stroke-width:15;stroke-linecap:round;stroke-linejoin:round;stroke-miterlimit:10;stroke-dasharray:none;stroke-opacity:1" transform="translate(362.836 249.76)" fill="none" stroke="#0270c1" stroke-width="15" stroke-linecap="round" stroke-linejoin="round" stroke-miterlimit="10" stroke-dasharray="none" stroke-opacity="" data-original="#000000" opacity="1"></path><path d="M0 0v0" style="stroke-width:15;stroke-linecap:round;stroke-linejoin:round;stroke-miterlimit:10;stroke-dasharray:none;stroke-opacity:1" transform="translate(325.106 456.26)" fill="none" stroke="#0270c1" stroke-width="15" stroke-linecap="round" stroke-linejoin="round" stroke-miterlimit="10" stroke-dasharray="none" stroke-opacity="" data-original="#000000" opacity="1"></path><path d="M0 0v0" style="stroke-width:15;stroke-linecap:round;stroke-linejoin:round;stroke-miterlimit:10;stroke-dasharray:none;stroke-opacity:1" transform="translate(325.106 43.26)" fill="none" stroke="#0270c1" stroke-width="15" stroke-linecap="round" stroke-linejoin="round" stroke-miterlimit="10" stroke-dasharray="none" stroke-opacity="" data-original="#000000" opacity="1"></path><path d="M0 0s2.426 43.202 46.098 53.825" style="stroke-width:15;stroke-linecap:round;stroke-linejoin:round;stroke-miterlimit:10;stroke-dasharray:none;stroke-opacity:1" transform="translate(92.201 254.993)" fill="none" stroke="#0270c1" stroke-width="15" stroke-linecap="round" stroke-linejoin="round" stroke-miterlimit="10" stroke-dasharray="none" stroke-opacity="" data-original="#000000" opacity="1"></path><path d="M0 0s29.909 10.481 32.628 39.303" style="stroke-width:15;stroke-linecap:round;stroke-linejoin:round;stroke-miterlimit:10;stroke-dasharray:none;stroke-opacity:1" transform="translate(167.522 382.106)" fill="none" stroke="#0270c1" stroke-width="15" stroke-linecap="round" stroke-linejoin="round" stroke-miterlimit="10" stroke-dasharray="none" stroke-opacity="" data-original="#000000" opacity="1"></path><path d="M0 0s-3.651-38.986 30.518-55.244" style="stroke-width:15;stroke-linecap:round;stroke-linejoin:round;stroke-miterlimit:10;stroke-dasharray:none;stroke-opacity:1" transform="translate(167.522 156.678)" fill="none" stroke="#0270c1" stroke-width="15" stroke-linecap="round" stroke-linejoin="round" stroke-miterlimit="10" stroke-dasharray="none" stroke-opacity="" data-original="#000000" opacity="1"></path><path d="M0 0s2.119-22.622-17.707-32.055" style="stroke-width:15;stroke-linecap:round;stroke-linejoin:round;stroke-miterlimit:10;stroke-dasharray:none;stroke-opacity:1" transform="translate(197.973 259.151)" fill="none" stroke="#0270c1" stroke-width="15" stroke-linecap="round" stroke-linejoin="round" stroke-miterlimit="10" stroke-dasharray="none" stroke-opacity="" data-original="#000000" opacity="1"></path></g></g></svg>
