<svg width="512" height="512" viewBox="0 0 512 512" fill="none" xmlns="http://www.w3.org/2000/svg">
<path d="M476.635 337.297C476.516 321.857 470.418 307.974 460.756 297.419C470.569 286.357 476.108 269.193 475.993 254.3C475.828 232.961 464.464 214.428 447.603 203.928C452.485 195.16 455.458 185.197 455.375 174.457C455.168 147.678 437.438 123.174 413.153 114.892C413.122 114.597 421.867 88.178 399.899 66.523C392.291 59.042 382.291 53.969 371.17 52.555C367.712 42.751 361.767 33.607 354.108 26.287C343.427 16.079 329.407 9.42603 314.096 9.54503C306.72 9.60203 299.67 11.143 293.164 13.859C270.439 23.345 254.386 47.244 254.585 73.007C254.449 55.451 246.78 38.875 234.672 27.205C226.814 34.746 220.776 44.226 217.376 54.36C206.278 55.946 196.358 61.173 188.867 68.771C167.572 90.422 176.361 117.238 176.362 117.339C152.208 125.996 134.859 150.771 135.066 177.55C135.149 188.29 138.276 198.206 143.293 206.897C126.596 217.656 115.52 236.363 115.685 257.702C115.8 272.61 121.612 289.68 131.587 300.58C122.089 311.284 116.207 325.26 116.327 340.699C116.47 359.248 125.197 375.561 138.512 386.469C137.457 391.007 136.753 395.673 136.791 400.543C137.047 433.682 164.137 463.333 197.276 463.077C199.546 463.059 201.703 462.623 203.901 462.356C209.041 473.203 216.858 482.564 226.615 489.556C245.312 475.98 257.525 453.297 257.338 428.996C257.555 457.09 274.313 482.76 298.289 494.586C307.305 499.033 317.335 501.535 327.9 501.453C342.823 501.338 356.57 496.534 367.824 488.464C377.863 481.256 385.838 471.544 390.954 460.294C393.156 460.527 395.319 460.93 397.589 460.913C430.728 460.657 457.356 430.59 457.1 397.451C457.062 392.581 456.286 387.927 455.161 383.406C468.305 372.292 476.778 355.846 476.635 337.297Z" fill="#AAC5D5"/>
<path d="M306 103C311.52 103 316 98.52 316 93C316 87.48 311.52 83 306 83C300.48 83 296 87.48 296 93C296 98.52 300.48 103 306 103ZM206 103C211.52 103 216 98.52 216 93C216 87.48 211.52 83 206 83C200.48 83 196 87.48 196 93C196 98.52 200.48 103 206 103Z" fill="#3F3A64"/>
<path d="M26 339C26 357.616 33.548 375.35 46.899 388.518C40.035 430.01 73.125 472 116 472C116.31 472 116.615 471.995 116.914 471.986C131.129 496.508 157.515 512 186 512C215.688 512 242.216 494.18 256 468.506C269.784 494.18 296.312 512 326 512C354.485 512 380.871 496.508 395.086 471.986C395.386 471.995 395.69 472 396 472C433.944 472 466 438.57 466 399C466 395.631 465.704 392.166 465.101 388.518C478.452 375.35 486 357.617 486 339C486 324.644 481.475 310.671 473.123 298.882C481.706 286 486 269.927 486 256C486 235.004 476.673 215.497 460.668 202.269C464.21 193.805 466 185.002 466 176C466 148.145 449.744 122.197 425.575 110.08C429.242 79.666 409.424 51.788 380.055 44.677C368.56 18.104 342.975 0 316 0C290.89 0 268.369 14.646 256 36.016C243.63 14.646 221.109 0 196 0C169.023 0 143.438 18.104 131.945 44.678C102.4 51.834 82.768 79.851 86.425 110.08C62.257 122.196 46 148.145 46 176C46 185.002 47.79 193.805 51.332 202.269C35.327 215.498 26 235.004 26 256C26 270 30.33 286.052 38.877 298.881C30.525 310.671 26 324.644 26 339ZM316 20C333.256 20 347.92 30.624 356.739 43.714C344.235 45.64 332.697 51.452 323.573 60.565C319.665 64.468 319.661 70.799 323.564 74.707C327.467 78.615 333.8 78.618 337.706 74.715C345.271 67.161 355.318 63 366 63C387.993 63 406 80.787 406 103C406 103.264 405.98 103.521 405.975 103.784C402.675 103.266 399.34 103.004 396 103C358.056 103 326 136.43 326 176C326 181.523 330.478 186 336 186C341.522 186 346 181.523 346 176C346 147.767 369.364 123 396 123C423.982 123 446 148.997 446 176C446 184.403 443.746 192.639 439.301 200.478C438.035 202.712 437.676 205.347 438.299 207.838C438.922 210.328 440.48 212.484 442.649 213.858C457.271 223.121 466 238.875 466 256C466 284.331 443.059 309 416 309C410.478 309 406 313.477 406 319C406 324.523 410.478 329 416 329C431.75 329 446.669 323.097 458.663 313.271C463.435 321.054 466 329.93 466 339C466 353.671 459.356 367.614 447.773 377.253C446.338 378.447 445.266 380.019 444.678 381.79C444.09 383.562 444.01 385.463 444.447 387.278C445.507 391.681 446 395.406 446 398.999C446 430.039 417.925 455.125 392.613 451.665C391.909 451.567 391.205 451.476 390.499 451.394C388.413 451.156 386.305 451.581 384.474 452.609C382.643 453.637 381.183 455.215 380.3 457.12C370.466 478.309 349.151 492 326 492C293.477 492 266 463.149 266 429C266 395.916 292.916 369 326 369C331.522 369 336 364.523 336 359C336 353.477 331.522 349 326 349C302.123 349 280.671 359.528 266 376.169V186C266 174.972 274.972 166 286 166C291.522 166 296 161.523 296 156C296 150.477 291.522 146 286 146C278.975 145.994 272.074 147.851 266 151.381V73C266 44.766 289.364 20 316 20ZM69.352 213.858C71.5209 212.484 73.0782 210.328 73.7013 207.837C74.3244 205.347 73.9655 202.711 72.699 200.478C68.254 192.639 66 184.403 66 176C66 149.01 88.002 123 116 123C142.636 123 166 147.767 166 176C166 181.523 170.477 186 176 186C181.523 186 186 181.523 186 176C186 136.43 153.944 103 116 103C112.652 103 109.322 103.271 106.025 103.784C106.02 103.521 106 103.265 106 103C106 80.683 124.117 63 146 63C156.682 63 166.73 67.161 174.292 74.715C178.199 78.618 184.53 78.614 188.434 74.708C192.337 70.8 192.334 64.469 188.427 60.566C179.304 51.453 167.765 45.641 155.26 43.715C164.079 30.624 178.744 20 196 20C222.636 20 246 44.766 246 73V151.381C239.926 147.851 233.025 145.994 226 146C220.477 146 216 150.477 216 156C216 161.523 220.477 166 226 166C237.028 166 246 174.972 246 186V376.169C231.329 359.528 209.877 349 186 349C180.477 349 176 353.477 176 359C176 364.523 180.477 369 186 369C219.084 369 246 395.916 246 429C246 463.149 218.523 492 186 492C162.848 492 141.535 478.309 131.701 457.12C130.817 455.216 129.356 453.639 127.525 452.611C125.694 451.583 123.587 451.158 121.501 451.394C120.794 451.475 120.091 451.569 119.388 451.665C90.928 455.557 58.878 423.33 67.554 387.278C67.9906 385.463 67.9105 383.562 67.3227 381.79C66.7349 380.019 65.6629 378.447 64.228 377.253C52.644 367.614 46 353.671 46 339C46 329.929 48.565 321.052 53.338 313.268C65.332 323.098 80.251 329 96 329C101.523 329 106 324.523 106 319C106 313.477 101.523 309 96 309C68.861 309 46 284.23 46 256C46 238.875 54.729 223.121 69.352 213.858Z" fill="#3F3A64"/>
<path d="M164.6 245.057C160.75 257.185 149.386 266 136 266C130.477 266 126 270.477 126 276C126 281.523 130.477 286 136 286C160.357 286 180.69 268.49 185.102 245.398C199.074 243.575 212.168 237.57 222.667 228.173C226.783 224.491 227.135 218.169 223.453 214.053C219.771 209.937 213.45 209.585 209.333 213.267C177.265 241.952 126 219.027 126 176C126 170.477 121.523 166 116 166C110.477 166 106 170.477 106 176C106 210.715 131.407 239.595 164.6 245.057ZM116 389C110.477 389 106 393.477 106 399C106 404.523 110.477 409 116 409C142.636 409 166 433.767 166 462C166 467.523 170.477 472 176 472C181.523 472 186 467.523 186 462C186 422.43 153.944 389 116 389ZM196 309C162.114 309 133.02 327.585 117.7 354.608C114.977 359.413 116.664 365.516 121.468 368.239C126.273 370.962 132.375 369.276 135.099 364.471C147.034 343.415 169.68 329 196 329C201.523 329 206 324.523 206 319C206 313.477 201.523 309 196 309ZM288.547 214.053C284.864 218.169 285.217 224.491 289.333 228.173C299.832 237.57 312.926 243.575 326.898 245.398C331.31 268.49 351.643 286 376 286C381.522 286 386 281.523 386 276C386 270.477 381.522 266 376 266C362.614 266 351.25 257.185 347.4 245.057C380.593 239.595 406 210.715 406 176C406 170.477 401.522 166 396 166C390.478 166 386 170.477 386 176C386 203.57 363.57 226 336 226C323.7 226.006 311.831 221.472 302.667 213.267C298.552 209.585 292.229 209.936 288.547 214.053ZM396 389C358.056 389 326 422.43 326 462C326 467.523 330.478 472 336 472C341.522 472 346 467.523 346 462C346 433.767 369.364 409 396 409C401.522 409 406 404.523 406 399C406 393.477 401.522 389 396 389ZM376.899 364.471C379.626 369.282 385.733 370.96 390.53 368.24C395.335 365.517 397.022 359.414 394.3 354.609C379.018 327.65 349.964 309 316 309C310.478 309 306 313.477 306 319C306 324.523 310.478 329 316 329C342.301 329 364.964 343.411 376.899 364.471Z" fill="#3F3A64"/>
</svg>
