<svg width="72" height="72" viewBox="0 0 72 72" fill="none" xmlns="http://www.w3.org/2000/svg">
<path d="M61.625 34C61.194 34 60.7807 34.1712 60.476 34.476C60.1712 34.7807 60 35.194 60 35.625V55.125C60 56.4179 59.4864 57.6579 58.5721 58.5721C57.6579 59.4864 56.4179 60 55.125 60H47.455L49.6975 51.0332C49.8165 50.5542 49.8247 50.0544 49.7217 49.5716C49.6187 49.0889 49.4071 48.636 49.1029 48.2473C48.7987 47.8585 48.41 47.5442 47.9663 47.3281C47.5225 47.112 47.0353 46.9998 46.5418 47H37.7473C36.6851 44.7678 34.9247 42.9424 32.7325 41.8C34.0088 40.7259 34.9235 39.285 35.3525 37.6729C35.7815 36.0609 35.7038 34.3559 35.1302 32.7895C34.5566 31.2231 33.5147 29.8713 32.1461 28.9175C30.7776 27.9638 29.1486 27.4544 27.4805 27.4586C25.8124 27.4627 24.1859 27.9802 22.8221 28.9408C21.4583 29.9013 20.4232 31.2584 19.8574 32.8276C19.2916 34.3968 19.2225 36.1022 19.6595 37.712C20.0965 39.3219 21.0184 40.7583 22.3 41.826C20.4448 42.7763 18.8871 44.2192 17.7978 45.9964C16.7085 47.7737 16.1298 49.8165 16.125 51.901V60C15.4848 60 14.8509 59.8739 14.2594 59.6289C13.668 59.3839 13.1305 59.0248 12.6779 58.5721C12.2252 58.1195 11.8661 57.582 11.6211 56.9906C11.3761 56.3991 11.25 55.7652 11.25 55.125V24.25H29.125C29.556 24.25 29.9693 24.0788 30.2741 23.7741C30.5788 23.4693 30.75 23.056 30.75 22.625C30.75 22.194 30.5788 21.7807 30.2741 21.476C29.9693 21.1712 29.556 21 29.125 21H11.549C11.8839 20.0528 12.5033 19.2321 13.3224 18.6504C14.1415 18.0686 15.1203 17.7542 16.125 17.75H29.125C29.556 17.75 29.9693 17.5788 30.2741 17.274C30.5788 16.9693 30.75 16.556 30.75 16.125C30.75 15.694 30.5788 15.2807 30.2741 14.976C29.9693 14.6712 29.556 14.5 29.125 14.5H16.125C13.9701 14.5 11.9035 15.356 10.3798 16.8798C8.85602 18.4035 8 20.4701 8 22.625V55.125C8 57.2799 8.85602 59.3465 10.3798 60.8702C11.9035 62.394 13.9701 63.25 16.125 63.25H55.125C57.2799 63.25 59.3465 62.394 60.8702 60.8702C62.394 59.3465 63.25 57.2799 63.25 55.125V35.625C63.25 35.194 63.0788 34.7807 62.7741 34.476C62.4693 34.1712 62.056 34 61.625 34ZM27.5 30.75C28.4642 30.75 29.4067 31.0359 30.2084 31.5716C31.0101 32.1073 31.6349 32.8686 32.0039 33.7594C32.3729 34.6502 32.4694 35.6304 32.2813 36.5761C32.0932 37.5217 31.6289 38.3904 30.9471 39.0721C30.2654 39.7539 29.3967 40.2182 28.4511 40.4063C27.5054 40.5944 26.5252 40.4979 25.6344 40.1289C24.7436 39.7599 23.9823 39.1351 23.4466 38.3334C22.9109 37.5317 22.625 36.5892 22.625 35.625C22.625 34.3321 23.1386 33.0921 24.0529 32.1779C24.9671 31.2636 26.2071 30.75 27.5 30.75ZM24.6075 60H19.375V51.875C19.375 50.1697 19.9116 48.5076 20.9087 47.1242C21.9058 45.7408 23.3129 44.7062 24.9307 44.167C26.5484 43.6277 28.2949 43.6111 29.9226 44.1196C31.5503 44.628 32.9768 45.6358 34 47H31.2505C30.2822 46.9985 29.3414 47.3218 28.5784 47.918C27.8154 48.5142 27.2744 49.3491 27.0418 50.289L24.6075 60ZM44.1075 60H27.955L30.1877 51.0755C30.246 50.8395 30.3817 50.6299 30.5732 50.4802C30.7647 50.3305 31.0009 50.2495 31.244 50.25H46.545L44.1075 60ZM56.75 8H40.5C38.7761 8 37.1228 8.68482 35.9038 9.90381C34.6848 11.1228 34 12.7761 34 14.5V24.25C34 25.9739 34.6848 27.6272 35.9038 28.8462C37.1228 30.0652 38.7761 30.75 40.5 30.75V34C40.4999 34.2875 40.5762 34.5699 40.7209 34.8183C40.8656 35.0668 41.0737 35.2723 41.3238 35.4141C41.5739 35.5559 41.8572 35.6287 42.1447 35.6252C42.4322 35.6217 42.7136 35.542 42.9603 35.3943L50.7018 30.75H56.75C58.4739 30.75 60.1272 30.0652 61.3462 28.8462C62.5652 27.6272 63.25 25.9739 63.25 24.25V14.5C63.25 12.7761 62.5652 11.1228 61.3462 9.90381C60.1272 8.68482 58.4739 8 56.75 8ZM60 24.25C60 25.112 59.6576 25.9386 59.0481 26.5481C58.4386 27.1576 57.612 27.5 56.75 27.5H50.25C49.9557 27.4986 49.6666 27.5784 49.4148 27.7308L43.75 31.1303V29.125C43.75 28.694 43.5788 28.2807 43.2741 27.976C42.9693 27.6712 42.556 27.5 42.125 27.5H40.5C39.6381 27.5 38.8114 27.1576 38.2019 26.5481C37.5924 25.9386 37.25 25.112 37.25 24.25V14.5C37.25 13.638 37.5924 12.8114 38.2019 12.2019C38.8114 11.5924 39.6381 11.25 40.5 11.25H56.75C57.612 11.25 58.4386 11.5924 59.0481 12.2019C59.6576 12.8114 60 13.638 60 14.5V24.25ZM56.75 16.125C56.75 16.556 56.5788 16.9693 56.2741 17.274C55.9693 17.5788 55.556 17.75 55.125 17.75H42.125C41.694 17.75 41.2807 17.5788 40.976 17.274C40.6712 16.9693 40.5 16.556 40.5 16.125C40.5 15.694 40.6712 15.2807 40.976 14.976C41.2807 14.6712 41.694 14.5 42.125 14.5H55.125C55.556 14.5 55.9693 14.6712 56.2741 14.976C56.5788 15.2807 56.75 15.694 56.75 16.125ZM53.5 22.625C53.5 23.056 53.3288 23.4693 53.0241 23.7741C52.7193 24.0788 52.306 24.25 51.875 24.25H42.125C41.694 24.25 41.2807 24.0788 40.976 23.7741C40.6712 23.4693 40.5 23.056 40.5 22.625C40.5 22.194 40.6712 21.7807 40.976 21.476C41.2807 21.1712 41.694 21 42.125 21H51.875C52.306 21 52.7193 21.1712 53.0241 21.476C53.3288 21.7807 53.5 22.194 53.5 22.625Z" fill="#0270C1"/>
<path d="M61.625 34C61.194 34 60.7807 34.1712 60.476 34.476C60.1712 34.7807 60 35.194 60 35.625V55.125C60 56.4179 59.4864 57.6579 58.5721 58.5721C57.6579 59.4864 56.4179 60 55.125 60H47.455L49.6975 51.0332C49.8165 50.5542 49.8247 50.0544 49.7217 49.5716C49.6187 49.0889 49.4071 48.636 49.1029 48.2473C48.7987 47.8585 48.41 47.5442 47.9663 47.3281C47.5225 47.112 47.0353 46.9998 46.5418 47H37.7473C36.6851 44.7678 34.9247 42.9424 32.7325 41.8C34.0088 40.7259 34.9235 39.285 35.3525 37.6729C35.7815 36.0609 35.7038 34.3559 35.1302 32.7895C34.5566 31.2231 33.5147 29.8713 32.1461 28.9175C30.7776 27.9638 29.1486 27.4544 27.4805 27.4586C25.8124 27.4627 24.1859 27.9802 22.8221 28.9408C21.4583 29.9013 20.4232 31.2584 19.8574 32.8276C19.2916 34.3968 19.2225 36.1022 19.6595 37.712C20.0965 39.3219 21.0184 40.7583 22.3 41.826C20.4448 42.7763 18.8871 44.2192 17.7978 45.9964C16.7085 47.7737 16.1298 49.8165 16.125 51.901V60C15.4848 60 14.8509 59.8739 14.2594 59.6289C13.668 59.3839 13.1305 59.0248 12.6779 58.5721C12.2252 58.1195 11.8661 57.582 11.6211 56.9906C11.3761 56.3991 11.25 55.7652 11.25 55.125V24.25H29.125C29.556 24.25 29.9693 24.0788 30.2741 23.774C30.5788 23.4693 30.75 23.056 30.75 22.625C30.75 22.194 30.5788 21.7807 30.2741 21.476C29.9693 21.1712 29.556 21 29.125 21H11.549C11.8839 20.0528 12.5033 19.2321 13.3224 18.6504C14.1415 18.0686 15.1203 17.7542 16.125 17.75H29.125C29.556 17.75 29.9693 17.5788 30.2741 17.274C30.5788 16.9693 30.75 16.556 30.75 16.125C30.75 15.694 30.5788 15.2807 30.2741 14.976C29.9693 14.6712 29.556 14.5 29.125 14.5H16.125C13.9701 14.5 11.9035 15.356 10.3798 16.8798C8.85602 18.4035 8 20.4701 8 22.625V55.125C8 57.2799 8.85602 59.3465 10.3798 60.8702C11.9035 62.394 13.9701 63.25 16.125 63.25H55.125C57.2799 63.25 59.3465 62.394 60.8702 60.8702C62.394 59.3465 63.25 57.2799 63.25 55.125V35.625C63.25 35.194 63.0788 34.7807 62.7741 34.476C62.4693 34.1712 62.056 34 61.625 34ZM27.5 30.75C28.4642 30.75 29.4067 31.0359 30.2084 31.5716C31.0101 32.1073 31.6349 32.8686 32.0039 33.7594C32.3729 34.6502 32.4694 35.6304 32.2813 36.5761C32.0932 37.5217 31.6289 38.3904 30.9471 39.0721C30.2654 39.7539 29.3967 40.2182 28.4511 40.4063C27.5054 40.5944 26.5252 40.4979 25.6344 40.1289C24.7436 39.7599 23.9823 39.1351 23.4466 38.3334C22.9109 37.5317 22.625 36.5892 22.625 35.625C22.625 34.3321 23.1386 33.0921 24.0529 32.1779C24.9671 31.2636 26.2071 30.75 27.5 30.75ZM24.6075 60H19.375V51.875C19.375 50.1697 19.9116 48.5076 20.9087 47.1242C21.9058 45.7408 23.3129 44.7062 24.9307 44.167C26.5484 43.6277 28.2949 43.6111 29.9226 44.1196C31.5503 44.628 32.9768 45.6358 34 47H31.2505C30.2822 46.9985 29.3414 47.3218 28.5784 47.918C27.8154 48.5142 27.2744 49.3491 27.0418 50.289L24.6075 60ZM44.1075 60H27.955L30.1877 51.0755C30.246 50.8395 30.3817 50.6299 30.5732 50.4802C30.7647 50.3305 31.0009 50.2495 31.244 50.25H46.545L44.1075 60Z" fill="#3F3A64"/>
</svg>
