<svg xmlns="http://www.w3.org/2000/svg" version="1.1" xmlns:xlink="http://www.w3.org/1999/xlink" width="512" height="512" x="0" y="0" viewBox="0 0 64 64" style="enable-background:new 0 0 512 512" xml:space="preserve"><g><path d="M32.255 47.517a1 1 0 0 1-1-1v-5.92a1 1 0 1 1 2 0v5.92a1 1 0 0 1-1 1zM12.89 47.517a1 1 0 0 1-1-1v-5.92a1 1 0 1 1 2 0v5.92a1 1 0 0 1-1 1zM44.144 32.88H56.26a1.51 1.51 0 0 0 1.507-1.51v-3.802a1.51 1.51 0 0 0-1.507-1.51H44.144a1.51 1.51 0 0 0-1.507 1.51v3.802c0 .832.676 1.51 1.507 1.51zm.493-4.821h11.13v2.82h-11.13zM43.637 37.48h13.13a1 1 0 1 0 0-2h-13.13a1 1 0 1 0 0 2zM43.637 42.309h13.13a1 1 0 1 0 0-2h-13.13a1 1 0 1 0 0 2z" fill="#3f3a64" opacity="1" data-original="#000000"></path><path d="M58.725 12.815c.068-.437.114-.882.114-1.338 0-4.777-3.886-8.663-8.662-8.663h-7.793c-4.776 0-8.662 3.886-8.662 8.662 0 .445.04.88.106 1.307h-2.42v-2.131c0-4.101-1.692-6.293-3.11-7.409-2.058-1.62-5.034-2.165-7.962-1.454-4.191 1.018-6.595 4.248-6.595 8.863v2.131H5.586A4.592 4.592 0 0 0 1 17.37v31.583a4.592 4.592 0 0 0 4.586 4.587h16.627l-3.143 6.973h-1.968a1 1 0 1 0 0 2h29.796a1 1 0 1 0 0-2H44.93l-3.146-6.973H58.41c2.53 0 4.59-2.058 4.59-4.587V17.37c0-2.422-1.894-4.39-4.275-4.555zm-16.34-8h7.792c3.673 0 6.662 2.988 6.662 6.662s-2.989 6.663-6.662 6.663h-3.29a.998.998 0 0 0-.736.324l-2.7 2.941c-.547.431-.93.476-1.046.405-.097-.063-.19-.319-.104-.655l.53-1.742a1 1 0 0 0-.89-1.289c-3.487-.231-6.219-3.151-6.219-6.648a6.67 6.67 0 0 1 6.662-6.662zm-7.995 9.968c1.077 2.589 3.371 4.565 6.188 5.166l-.202.665c-.306 1.185.068 2.315.951 2.88.36.23.765.343 1.195.343.717 0 1.5-.315 2.248-.926.037-.03.071-.063.104-.099l2.453-2.672h2.85c3.605 0 6.7-2.217 8.003-5.357h.23c1.428 0 2.59 1.16 2.59 2.587v28.147H39.315v-7.614c0-6.509-4.847-12.097-11.193-13.11V22.28a8.817 8.817 0 0 0 3.285-6.864v-.633zM18.92 30.911c-.016.014-.035.023-.05.038l-.338.262-2.886-4.022c.67-.22 1.367-.376 2.086-.465l3.23 2.607zm1.135 4.576-1.697 10.03H7.832v-7.614c0-4.218 2.403-7.973 5.935-9.902l3.744 5.219a.999.999 0 0 0 1.425.208l.219-.17zm2.519-7.425-3.548-2.865V23.5a8.773 8.773 0 0 0 7.096 0v1.699zm0 2.55 1.757 1.36-.968 2.402h-1.6l-.965-2.388zm-.64 5.762h1.26l1.544 9.143h-4.352zm2.252-7.043 3.23-2.607c.718.089 1.415.246 2.086.465l-2.886 4.022zm1.79 3.913.236.184a.997.997 0 0 0 1.425-.208L31.38 28c3.531 1.93 5.934 5.685 5.934 9.903v7.613h-10.55l-1.693-10.03zM20.806 3.732c2.337-.563 4.675-.16 6.255 1.082 1.524 1.2 2.313 3.109 2.344 5.676h-3.28c-4.707 0-5.192-.92-6.093-2.629a1.002 1.002 0 0 0-1.853.218c-.61 2.368-.666 2.437-2.438 2.423.049-3.586 1.843-5.987 5.065-6.77zM15.741 12.5l.159.002c1.795 0 2.78-.262 3.54-1.902 1.089 1.203 2.795 1.89 6.686 1.89h3.281v2.926a6.841 6.841 0 0 1-6.833 6.833 6.84 6.84 0 0 1-6.833-6.833zM5.586 14.783h8.155v.633a8.817 8.817 0 0 0 3.285 6.864v2.512c-6.347 1.014-11.194 6.603-11.194 13.111v7.614H3V17.37a2.59 2.59 0 0 1 2.586-2.587zm37.15 45.73H21.263l3.143-6.973H39.59zM58.41 51.54H5.586A2.59 2.59 0 0 1 3 48.953v-1.436h58v1.436a2.59 2.59 0 0 1-2.59 2.587z" fill="#3f3a64" opacity="1" data-original="#000000"></path><path d="m31.596 48.567-.049.025c-.493.249-.666.838-.418 1.33.175.347.534.54.903.54.158 0 .318-.035.465-.11a1 1 0 0 0-.901-1.785zM41.105 10.595h10.352a1 1 0 1 0 0-2H41.105a1 1 0 1 0 0 2zM41.105 14.68h2.754a1 1 0 1 0 0-2h-2.755a1 1 0 1 0 0 2zM51.456 12.68h-2.754a1 1 0 1 0 0 2h2.755a1 1 0 1 0 0-2z" fill="#0270c1" opacity="1" data-original="#000000"></path></g></svg>
