<svg version="1.1"
	 xmlns="http://www.w3.org/2000/svg" xmlns:xlink="http://www.w3.org/1999/xlink" xmlns:a="http://ns.adobe.com/AdobeSVGViewerExtensions/3.0/"
	 x="0px" y="0px" width="90.4px" height="95.8px" viewBox="0 0 90.4 95.8"
	 style="overflow:auto;enable-background:new 0 0 90.4 95.8;" xml:space="preserve">
<style type="text/css">
	.st0{fill:#fff;}
</style>
<defs>
</defs>
<g>
	<g>
		<path class="st0" d="M25.6,32.3c-3.8-2.5-6.1-7.2-5.7-11.7c0.4-4.5,3.5-8.7,7.7-10.5c4.2-1.7,9.4-0.9,12.9,2l-2.6,3.1
			c-2.4-2-5.9-2.6-8.8-1.4c-2.9,1.2-5,4-5.3,7.1c-0.3,3.1,1.3,6.3,3.9,8L25.6,32.3z"/>
	</g>
	<g>
		<path class="st0" d="M12.5,69.3c-1.8,0-3.6-0.4-5.2-1.1c-4.1-1.9-7-6.3-7.2-10.8c-0.2-4.5,2.3-9.1,6.3-11.4l2,3.5
			c-2.7,1.5-4.4,4.7-4.3,7.8c0.1,3.1,2.1,6.1,4.9,7.4c2.8,1.3,6.3,0.9,8.8-1l2.4,3.2C18,68.4,15.2,69.3,12.5,69.3z"/>
	</g>
	<g>
		<path class="st0" d="M72.9,39.1c-4.1,0-8.2-2.1-10.5-5.6c-2.5-3.8-2.8-9-0.6-13c2.2-4,6.7-6.6,11.3-6.5l-0.1,4
			c-3.1-0.1-6.2,1.7-7.7,4.4c-1.5,2.7-1.3,6.3,0.4,8.9c1.7,2.6,5,4.1,8,3.7l0.4,4C73.7,39.1,73.3,39.1,72.9,39.1z"/>
	</g>
	<g>
		<path class="st0" d="M78,49.5c-3,0-6-1-8.2-3l2.6-3c2.4,2,5.9,2.6,8.7,1.4c2.9-1.2,5-4,5.3-7.1c0.3-3.1-1.2-6.3-3.8-8l2.2-3.4
			c3.8,2.5,6.1,7.2,5.6,11.7c-0.4,4.5-3.6,8.7-7.8,10.4C81.1,49.2,79.6,49.5,78,49.5z"/>
	</g>
	<g>
		<path class="st0" d="M44.9,54.8l-1.1-3.9c3-0.8,5.4-3.4,6.1-6.5c0.6-3-0.5-6.4-2.9-8.4c-2.4-2-5.9-2.5-8.8-1.3l-1.6-3.7
			c4.2-1.8,9.4-1,12.9,1.8c3.5,2.9,5.3,7.8,4.3,12.3C52.9,49.7,49.3,53.5,44.9,54.8z"/>
	</g>
	<g>
		<path class="st0" d="M13.6,55l-1.1-3.9c3-0.8,5.4-3.4,6.1-6.5c0.6-3-0.5-6.4-2.9-8.4c-2.4-2-5.9-2.5-8.8-1.3l-1.6-3.7
			c4.2-1.8,9.4-1,12.9,1.8c3.5,2.9,5.3,7.8,4.3,12.3C21.6,50,18,53.8,13.6,55z"/>
	</g>
	<g>
		<path class="st0" d="M37.2,70.2c-2.5,0-5-0.7-7-2.1c-3.8-2.5-6-7.3-5.5-11.8c0.5-4.5,3.7-8.7,7.9-10.3l1.4,3.7
			c-2.9,1.1-5.1,3.9-5.4,7c-0.3,3.1,1.2,6.3,3.7,8c2.6,1.7,6.1,1.9,8.9,0.4l1.9,3.5C41.4,69.8,39.3,70.2,37.2,70.2z"/>
	</g>
	<g>
		<path class="st0" d="M44.2,90.1l-3.6-1.7c1.4-2.8,1-6.3-0.8-8.8c-1.8-2.5-5.1-3.8-8.2-3.3c-3.1,0.5-5.8,2.8-6.8,5.7L21,80.7
			c1.4-4.3,5.4-7.7,9.9-8.4c4.5-0.7,9.3,1.3,12.1,4.9C45.7,80.8,46.2,86,44.2,90.1z"/>
	</g>
	<g>
		<path class="st0" d="M44.5,25.1c-0.3,0-0.6,0-0.9,0l0.3-4c3.1,0.2,6.3-1.4,7.9-4c1.6-2.6,1.7-6.2,0.1-8.9
			c-1.6-2.7-4.7-4.4-7.8-4.2l-0.2-4c4.6-0.2,9.2,2.2,11.5,6.1c2.3,3.9,2.3,9.1-0.1,13C52.9,22.8,48.7,25.1,44.5,25.1z"/>
	</g>
	<g>
		<path class="st0" d="M53.8,74.2c-3-3.4-3.9-8.6-2.3-12.8c1.6-4.2,5.8-7.4,10.3-7.9c4.5-0.5,9.3,1.7,11.8,5.5l-3.3,2.2
			c-1.7-2.6-4.9-4.1-8-3.7c-3.1,0.3-5.9,2.5-7,5.4c-1.1,2.9-0.5,6.4,1.5,8.7L53.8,74.2z"/>
	</g>
	<g>
		<path class="st0" d="M20,95.8c-1.3,0-2.5-0.2-3.7-0.6c-4.3-1.4-7.8-5.4-8.5-9.8C7,80.9,9,76,12.6,73.3l2.4,3.2
			c-2.5,1.9-3.8,5.2-3.3,8.2c0.5,3.1,2.8,5.8,5.8,6.7c2.9,1,6.4,0.1,8.6-2l2.8,2.8C26.6,94.5,23.3,95.8,20,95.8z"/>
	</g>
</g>
</svg>
