<!-- Generator: Adobe Illustrator 21.0.1, SVG Export Plug-In  -->
<svg version="1.1"
	 xmlns="http://www.w3.org/2000/svg" xmlns:xlink="http://www.w3.org/1999/xlink" xmlns:a="http://ns.adobe.com/AdobeSVGViewerExtensions/3.0/"
	 x="0px" y="0px" width="60.2px" height="39.4px" viewBox="0 0 60.2 39.4"
	 style="overflow:auto;enable-background:new 0 0 60.2 39.4;" xml:space="preserve">
<style type="text/css">
	.st0{fill:none;stroke:#fff;stroke-width:2;stroke-linecap:round;stroke-linejoin:round;stroke-miterlimit:10;}
</style>
<defs>
</defs>
<g>
	<g>
		<g>
			<line class="st0" x1="7.8" y1="33.4" x2="13.4" y2="37.8"/>
			<line class="st0" x1="8.3" y1="38.4" x2="13.1" y2="32.4"/>
		</g>
		<g>
			<line class="st0" x1="23" y1="31.7" x2="28.6" y2="36.1"/>
			<line class="st0" x1="23.6" y1="36.7" x2="28.4" y2="30.7"/>
		</g>
		<g>
			<line class="st0" x1="38.3" y1="30" x2="43.9" y2="34.4"/>
			<line class="st0" x1="38.9" y1="35" x2="43.7" y2="29"/>
		</g>
		<g>
			<line class="st0" x1="53.6" y1="28.3" x2="59.2" y2="32.8"/>
			<line class="st0" x1="54.1" y1="33.3" x2="58.9" y2="27.3"/>
		</g>
	</g>
	<g>
		<g>
			<line class="st0" x1="4.8" y1="7.1" x2="10.4" y2="11.5"/>
			<line class="st0" x1="5.4" y1="12.1" x2="10.2" y2="6.1"/>
		</g>
		<g>
			<line class="st0" x1="20.1" y1="5.4" x2="25.7" y2="9.8"/>
			<line class="st0" x1="20.7" y1="10.4" x2="25.5" y2="4.4"/>
		</g>
		<g>
			<line class="st0" x1="35.4" y1="3.7" x2="41" y2="8.2"/>
			<line class="st0" x1="35.9" y1="8.7" x2="40.8" y2="2.7"/>
		</g>
		<g>
			<line class="st0" x1="50.6" y1="2" x2="56.2" y2="6.5"/>
			<line class="st0" x1="51.2" y1="7" x2="56" y2="1"/>
		</g>
	</g>
	<g>
		<g>
			<line class="st0" x1="1" y1="20.8" x2="6.6" y2="25.3"/>
			<line class="st0" x1="1.6" y1="25.8" x2="6.4" y2="19.8"/>
		</g>
		<g>
			<line class="st0" x1="16.3" y1="19.1" x2="21.9" y2="23.6"/>
			<line class="st0" x1="16.8" y1="24.1" x2="21.6" y2="18.1"/>
		</g>
		<g>
			<line class="st0" x1="31.5" y1="17.4" x2="37.1" y2="21.9"/>
			<line class="st0" x1="32.1" y1="22.4" x2="36.9" y2="16.4"/>
		</g>
		<g>
			<line class="st0" x1="46.8" y1="15.7" x2="52.4" y2="20.2"/>
			<line class="st0" x1="47.4" y1="20.8" x2="52.2" y2="14.7"/>
		</g>
	</g>
</g>
</svg>
