<!-- Generator: Adobe Illustrator 21.0.1, SVG Export Plug-In  -->
<svg version="1.1"
	 xmlns="http://www.w3.org/2000/svg" xmlns:xlink="http://www.w3.org/1999/xlink" xmlns:a="http://ns.adobe.com/AdobeSVGViewerExtensions/3.0/"
	 x="0px" y="0px" width="72.2px" height="35px" viewBox="0 0 72.2 35" style="overflow:auto;enable-background:new 0 0 72.2 35;"
	 xml:space="preserve">
<style type="text/css">
	.st0{fill:#fff;}
</style>
<defs>
</defs>
<g>
	<g>
		<circle class="st0" cx="2.3" cy="2.3" r="2.3"/>
		<circle class="st0" cx="17.3" cy="2.3" r="2.3"/>
		<circle class="st0" cx="32.3" cy="2.3" r="2.3"/>
		<circle class="st0" cx="47.3" cy="2.3" r="2.3"/>
		<circle class="st0" cx="62.2" cy="2.3" r="2.3"/>
	</g>
	<g>
		<circle class="st0" cx="10" cy="12.3" r="2.3"/>
		<circle class="st0" cx="24.9" cy="12.3" r="2.3"/>
		<circle class="st0" cx="39.9" cy="12.3" r="2.3"/>
		<circle class="st0" cx="54.9" cy="12.3" r="2.3"/>
		<circle class="st0" cx="69.9" cy="12.3" r="2.3"/>
	</g>
	<g>
		<circle class="st0" cx="2.3" cy="22.7" r="2.3"/>
		<circle class="st0" cx="17.3" cy="22.7" r="2.3"/>
		<circle class="st0" cx="32.3" cy="22.7" r="2.3"/>
		<circle class="st0" cx="47.3" cy="22.7" r="2.3"/>
		<circle class="st0" cx="62.2" cy="22.7" r="2.3"/>
	</g>
	<g>
		<circle class="st0" cx="10" cy="32.7" r="2.3"/>
		<circle class="st0" cx="24.9" cy="32.7" r="2.3"/>
		<circle class="st0" cx="39.9" cy="32.7" r="2.3"/>
		<circle class="st0" cx="54.9" cy="32.7" r="2.3"/>
		<circle class="st0" cx="69.9" cy="32.7" r="2.3"/>
	</g>
</g>
</svg>
