<!-- Generator: Adobe Illustrator 21.0.1, SVG Export Plug-In  -->
<svg version="1.1"
	 xmlns="http://www.w3.org/2000/svg" xmlns:xlink="http://www.w3.org/1999/xlink" xmlns:a="http://ns.adobe.com/AdobeSVGViewerExtensions/3.0/"
	 x="0px" y="0px" width="76.3px" height="138.1px" viewBox="0 0 76.3 138.1"
	 style="overflow:auto;enable-background:new 0 0 76.3 138.1;" xml:space="preserve">
<style type="text/css">
	.st0{fill:none;stroke:#fff;stroke-width:2;stroke-linecap:round;stroke-linejoin:round;stroke-miterlimit:10;}
</style>
<defs>
</defs>
<path class="st0" d="M1,126.9c5,5.7,12.3,9.4,19.8,10.1c7.6,0.7,15.4-1.6,21.4-6.3c3.9-3.1,7.1-7.2,8.3-12
	c1.2-4.8,0.3-10.3-3.1-13.9c-1.9-2.1-4.6-3.6-7.5-3.5c-2.8,0.1-5.6,2.1-6.2,4.9c-0.8,3.8,2.6,7.3,6.2,9c6.9,3.1,15.4,2.2,21.8-1.8
	c6.5-4,10.9-10.9,12.7-18.3c1.8-7.4,0.9-15.9-4-21.8c-4.9-5.9-14.1-8.3-20.6-4.2c-1.9,1.2-3.7,3.2-3.6,5.5c0.1,3.5,4.1,5.6,7.6,5.6
	c4.9,0,9.6-2.8,12.6-6.7c3-3.9,4.5-8.8,4.9-13.8c0.8-8.5-1.3-17.6-7-24c-5.6-6.5-14.9-9.9-23.2-7.6c-2.8,0.8-5.6,2.3-7.3,4.7
	c-1.7,2.4-2.2,5.8-0.6,8.3c1.5,2.6,4.8,3.7,7.8,3.4c3-0.4,5.6-2.1,7.8-4.2c6.9-6.8,8.7-18.3,4.2-26.9C48.6,4.7,38.2-0.4,28.6,1.3"/>
</svg>
