<!-- Generator: Adobe Illustrator 21.0.1, SVG Export Plug-In  -->
<svg version="1.1"
	 xmlns="http://www.w3.org/2000/svg" xmlns:xlink="http://www.w3.org/1999/xlink" xmlns:a="http://ns.adobe.com/AdobeSVGViewerExtensions/3.0/"
	 x="0px" y="0px" width="111.2px" height="52.1px" viewBox="0 0 111.2 52.1"
	 style="overflow:auto;enable-background:new 0 0 111.2 52.1;" xml:space="preserve">
<style type="text/css">
	.st0{fill:#fff;}
</style>
<defs>
</defs>
<g>
	<g>
		<path class="st0" d="M3.3,5.6c6-2.9,12.8-1.7,19.2-0.8c7,0.9,13.9,0.6,20.9-0.1c7.2-0.7,14.2-1.3,21.4-0.1
			c6.9,1.1,13.8,2.7,20.9,1.7c7.4-1,14.9-4.3,22.4-2.8c1.9,0.4,2.7-2.5,0.8-2.9C102-0.9,95.3,1.2,88.6,2.6c-3.6,0.7-7.1,1-10.7,0.8
			c-3.7-0.3-7.2-1-10.9-1.6c-3.6-0.6-7.1-1-10.8-1.1c-3.7,0-7.3,0.3-10.9,0.7C38.1,2.1,31,2.8,23.8,1.9c-7.4-0.9-15-2.4-22,1.1
			C0,3.8,1.6,6.4,3.3,5.6L3.3,5.6z"/>
	</g>
	<g>
		<path class="st0" d="M4.4,21.6c2.5-2,5.7-1.9,8.6-1.5c3.3,0.4,6.4,1.1,9.8,1.1c7.4,0,14.7-1.7,22-2.7c7.2-1,14.4-1.7,21.6-1.2
			c3.7,0.2,7.3,0.8,10.9,1.8c3.4,0.9,6.7,2.3,10.2,2.5c7,0.3,13-5,20-4.3c1.9,0.2,1.9-2.8,0-3c-6.6-0.6-12,3.8-18.4,4.3
			c-3.6,0.3-7-1.1-10.3-2.1c-3.4-1-6.9-1.6-10.5-2c-7.5-0.7-15-0.1-22.5,0.9c-7.5,1-15,2.8-22.5,2.9c-3.9,0.1-7.6-0.8-11.4-1.2
			c-3.5-0.3-6.8,0.3-9.6,2.5C0.8,20.7,2.9,22.8,4.4,21.6L4.4,21.6z"/>
	</g>
	<g>
		<path class="st0" d="M1.8,35.7c3.3-1.3,6.8-0.9,10.2-0.4c3.4,0.5,6.8,0.7,10.2,0.7c7.2,0,14.5-0.1,21.8-0.2
			c14.8-0.1,29.5-0.3,44.3-0.4c7.5-0.1,15.1,0.1,22.1-3c1.8-0.8,0.2-3.4-1.5-2.6c-6.2,2.7-13,2.5-19.6,2.6
			c-7.3,0.1-14.6,0.1-21.9,0.2c-14.6,0.1-29.1,0.3-43.7,0.4c-3.9,0-7.8-0.2-11.7-0.7C8.3,31.8,4.5,31.4,1,32.8
			C-0.8,33.5,0,36.4,1.8,35.7L1.8,35.7z"/>
	</g>
	<g>
		<path class="st0" d="M1.9,52c3.3-1.3,6.5-2.6,10-3.3c3.3-0.7,6.5-0.5,9.7,0.4c3.3,0.9,6.5,1.8,10,2c3.3,0.2,6.7,0,10-0.2
			c14.3-0.5,28.5-1.1,42.8-1.7c8.1-0.4,16.3-0.8,24.4-1.3c1.9-0.1,1.9-3.1,0-3c-14.4,0.8-28.9,1.5-43.3,2.1
			c-7.2,0.3-14.4,0.6-21.6,0.8c-3.5,0.1-7,0.3-10.4,0.3c-3.5,0-6.8-0.7-10.1-1.7c-3.6-1.1-7.1-1.5-10.9-0.9
			c-3.9,0.6-7.7,2.1-11.4,3.6C-0.7,49.8,0.1,52.7,1.9,52L1.9,52z"/>
	</g>
</g>
</svg>
