<!-- Generator: Adobe Illustrator 21.0.1, SVG Export Plug-In  -->
<svg version="1.1"
	 xmlns="http://www.w3.org/2000/svg" xmlns:xlink="http://www.w3.org/1999/xlink" xmlns:a="http://ns.adobe.com/AdobeSVGViewerExtensions/3.0/"
	 x="0px" y="0px" width="181.2px" height="179.6px" viewBox="0 0 181.2 179.6"
	 style="overflow:auto;enable-background:new 0 0 181.2 179.6;" xml:space="preserve">
<style type="text/css">
	.st0{clip-path:url(#SVGID_2_);}
	.st1{fill:none;stroke:#fff;stroke-linecap:round;stroke-linejoin:round;stroke-miterlimit:10;}
	.st2{clip-path:url(#SVGID_4_);}
</style>
<defs>
</defs>
<g>
	<defs>
		<circle id="SVGID_1_" cx="87.4" cy="87.4" r="46.9"/>
	</defs>
	<clipPath id="SVGID_2_">
		<use xlink:href="#SVGID_1_"  style="overflow:visible;"/>
	</clipPath>
	<g class="st0">
		<path class="st1" d="M2.9,119.1c-4.1-3.9-2.4-11.3,1.8-15.1s10-5.2,15.5-7c5.4-1.8,11.1-4.5,13.5-9.7c2.9-6.3,0-14.2,3.2-20.4
			c3-5.9,10.2-7.9,16.5-9.6c6.4-1.7,13.5-4.2,15.9-10.3c1.6-4,0.6-8.6,0.1-12.9c-0.5-4.3-0.4-9.2,2.8-12.3
			c3.9-3.7,10.1-2.7,15.4-3.5c8.7-1.4,16-9.1,16.9-17.9"/>
		<path class="st1" d="M7.9,123.1c-4.1-3.9-2.4-11.3,1.8-15.1c4.2-3.8,10-5.2,15.5-7c5.4-1.8,11.1-4.5,13.5-9.7
			c2.9-6.3,0-14.2,3.2-20.4c3-5.9,10.2-7.9,16.5-9.6S72,57.2,74.4,51.1c1.6-4,0.6-8.6,0.1-12.9c-0.5-4.3-0.4-9.2,2.8-12.3
			c3.9-3.7,10.1-2.7,15.4-3.5c8.7-1.4,16-9.1,16.9-17.9"/>
		<path class="st1" d="M13,127.1c-4.1-3.9-2.4-11.3,1.8-15.1c4.2-3.8,10-5.2,15.5-7c5.4-1.8,11.1-4.5,13.5-9.7
			c2.9-6.3,0-14.2,3.2-20.4c3-5.9,10.2-7.9,16.5-9.6C69.9,63.7,77,61.2,79.5,55c1.6-4,0.6-8.6,0.1-12.9c-0.5-4.3-0.4-9.2,2.8-12.3
			c3.9-3.7,10.1-2.7,15.4-3.5c8.7-1.4,16-9.1,16.9-17.9"/>
		<path class="st1" d="M18.1,131.1c-4.1-3.9-2.4-11.3,1.8-15.1s10-5.2,15.5-7c5.4-1.8,11.1-4.5,13.5-9.7c2.9-6.3,0-14.2,3.2-20.4
			c3-5.9,10.2-7.9,16.5-9.6C75,67.7,82.1,65.2,84.5,59c1.6-4,0.6-8.6,0.1-12.9c-0.5-4.3-0.4-9.2,2.8-12.3c3.9-3.7,10.1-2.7,15.4-3.5
			c8.7-1.4,16-9.1,16.9-17.9"/>
		<path class="st1" d="M23.2,135.1c-4.1-3.9-2.4-11.3,1.8-15.1c4.2-3.8,10-5.2,15.5-7c5.4-1.8,11.1-4.5,13.5-9.7
			c2.9-6.3,0-14.2,3.2-20.4c3-5.9,10.2-7.9,16.5-9.6C80,71.7,87.2,69.2,89.6,63c1.6-4,0.6-8.6,0.1-12.9c-0.5-4.3-0.4-9.2,2.8-12.3
			c3.9-3.7,10.1-2.7,15.4-3.5c8.7-1.4,16-9.1,16.9-17.9"/>
		<path class="st1" d="M28.2,139.1c-4.1-3.9-2.4-11.3,1.8-15.1c4.2-3.8,10-5.2,15.5-7c5.4-1.8,11.1-4.5,13.5-9.7
			c2.9-6.3,0-14.2,3.2-20.4c3-5.9,10.2-7.9,16.5-9.6c6.4-1.7,13.5-4.2,15.9-10.3c1.6-4,0.6-8.6,0.1-12.9c-0.5-4.3-0.4-9.2,2.8-12.3
			c3.9-3.7,10.1-2.7,15.4-3.5c8.7-1.4,16-9.1,16.9-17.9"/>
		<path class="st1" d="M33.3,143.1c-4.1-3.9-2.4-11.3,1.8-15.1c4.2-3.8,10-5.2,15.5-7c5.4-1.8,11.1-4.5,13.5-9.7
			c2.9-6.3,0-14.2,3.2-20.4c3-5.9,10.2-7.9,16.5-9.6c6.4-1.7,13.5-4.2,15.9-10.3c1.6-4,0.6-8.6,0.1-12.9c-0.5-4.3-0.4-9.2,2.8-12.3
			c3.9-3.7,10.1-2.7,15.4-3.5c8.7-1.4,16-9.1,16.9-17.9"/>
		<path class="st1" d="M38.4,147.1c-4.1-3.9-2.4-11.3,1.8-15.1c4.2-3.8,10-5.2,15.5-7c5.4-1.8,11.1-4.5,13.5-9.7
			c2.9-6.3,0-14.2,3.2-20.4c3-5.9,10.2-7.9,16.5-9.6c6.4-1.7,13.5-4.2,15.9-10.3c1.6-4,0.6-8.6,0.1-12.9c-0.5-4.3-0.4-9.2,2.8-12.3
			c3.9-3.7,10.1-2.7,15.4-3.5c8.7-1.4,16-9.1,16.9-17.9"/>
		<path class="st1" d="M43.5,151.1c-4.1-3.9-2.4-11.3,1.8-15.1c4.2-3.8,10-5.2,15.5-7c5.4-1.8,11.1-4.5,13.5-9.7
			c2.9-6.3,0-14.2,3.2-20.4c3-5.9,10.2-7.9,16.5-9.6c6.4-1.7,13.5-4.2,15.9-10.3c1.6-4,0.6-8.6,0.1-12.9c-0.5-4.3-0.4-9.2,2.8-12.3
			c3.9-3.7,10.1-2.7,15.4-3.5c8.7-1.4,16-9.1,16.9-17.9"/>
		<path class="st1" d="M48.5,155.1c-4.1-3.9-2.4-11.3,1.8-15.1s10-5.2,15.5-7c5.4-1.8,11.1-4.5,13.5-9.7c2.9-6.3,0-14.2,3.2-20.4
			c3-5.9,10.2-7.9,16.5-9.6c6.4-1.7,13.5-4.2,15.9-10.3c1.6-4,0.6-8.6,0.1-12.9c-0.5-4.3-0.4-9.2,2.8-12.3
			c3.9-3.7,10.1-2.7,15.4-3.5c8.7-1.4,16-9.1,16.9-17.9"/>
		<path class="st1" d="M53.6,159.1c-4.1-3.9-2.4-11.3,1.8-15.1c4.2-3.8,10-5.2,15.5-7s11.1-4.5,13.5-9.7c2.9-6.3,0-14.2,3.2-20.4
			c3-5.9,10.2-7.9,16.5-9.6c6.4-1.7,13.5-4.2,15.9-10.3c1.6-4,0.6-8.6,0.1-12.9c-0.5-4.3-0.4-9.2,2.8-12.3
			c3.9-3.7,10.1-2.7,15.4-3.5c8.7-1.4,16-9.1,16.9-17.9"/>
		<path class="st1" d="M58.7,163.1c-4.1-3.9-2.4-11.3,1.8-15.1c4.2-3.8,10-5.2,15.5-7c5.4-1.8,11.1-4.5,13.5-9.7
			c2.9-6.3,0-14.2,3.2-20.4c3-5.9,10.2-7.9,16.5-9.6c6.4-1.7,13.5-4.2,15.9-10.3c1.6-4,0.6-8.6,0.1-12.9c-0.5-4.3-0.4-9.2,2.8-12.3
			c3.9-3.7,10.1-2.7,15.4-3.5c8.7-1.4,16-9.1,16.9-17.9"/>
		<path class="st1" d="M63.8,167.1c-4.1-3.9-2.4-11.3,1.8-15.1c4.2-3.8,10-5.2,15.5-7c5.4-1.8,11.1-4.5,13.5-9.7
			c2.9-6.3,0-14.2,3.2-20.4c3-5.9,10.2-7.9,16.5-9.6c6.4-1.7,13.5-4.2,15.9-10.3c1.6-4,0.6-8.6,0.1-12.9c-0.5-4.3-0.4-9.2,2.8-12.3
			c3.9-3.7,10.1-2.7,15.4-3.5c8.7-1.4,16-9.1,16.9-17.9"/>
		<path class="st1" d="M68.9,171.1c-4.1-3.9-2.4-11.3,1.8-15.1c4.2-3.8,10-5.2,15.5-7c5.4-1.8,11.1-4.5,13.5-9.7
			c2.9-6.3,0-14.2,3.2-20.4c3-5.9,10.2-7.9,16.5-9.6c6.4-1.7,13.5-4.2,15.9-10.3c1.6-4,0.6-8.6,0.1-12.9c-0.5-4.3-0.4-9.2,2.8-12.3
			c3.9-3.7,10.1-2.7,15.4-3.5c8.7-1.4,16-9.1,16.9-17.9"/>
		<path class="st1" d="M73.9,175.1c-4.1-3.9-2.4-11.3,1.8-15.1c4.2-3.8,10-5.2,15.5-7c5.4-1.8,11.1-4.5,13.5-9.7
			c2.9-6.3,0-14.2,3.2-20.4c3-5.9,10.2-7.9,16.5-9.6c6.4-1.7,13.5-4.2,15.9-10.3c1.6-4,0.6-8.6,0.1-12.9c-0.5-4.3-0.4-9.2,2.8-12.3
			c3.9-3.7,10.1-2.7,15.4-3.5c8.7-1.4,16-9.1,16.9-17.9"/>
		<path class="st1" d="M79,179.1c-4.1-3.9-2.4-11.3,1.8-15.1c4.2-3.8,10-5.2,15.5-7c5.4-1.8,11.1-4.5,13.5-9.7
			c2.9-6.3,0-14.2,3.2-20.4c3-5.9,10.2-7.9,16.5-9.6c6.4-1.7,13.5-4.2,15.9-10.3c1.6-4,0.6-8.6,0.1-12.9c-0.5-4.3-0.4-9.2,2.8-12.3
			c3.9-3.7,10.1-2.7,15.4-3.5c8.7-1.4,16-9.1,16.9-17.9"/>
	</g>
</g>
</svg>
