<!-- Generator: Adobe Illustrator 21.0.1, SVG Export Plug-In  -->
<svg version="1.1"
	 xmlns="http://www.w3.org/2000/svg" xmlns:xlink="http://www.w3.org/1999/xlink" xmlns:a="http://ns.adobe.com/AdobeSVGViewerExtensions/3.0/"
	 x="0px" y="0px" width="79.3px" height="83.6px" viewBox="0 0 79.3 83.6"
	 style="overflow:auto;enable-background:new 0 0 79.3 83.6;" xml:space="preserve">
<style type="text/css">
	.st0{fill:#fff;}
</style>
<defs>
</defs>
<g>
	<g>
		<path class="st0" d="M38.3,34.2c-8.6-0.3-8,11.5-0.5,13.1c7.6,1.7,13.6-6.6,11.2-13.5c-3-8.4-13.3-10.9-20.6-6.8
			c-7.7,4.3-11.4,13.5-8.2,21.8c8,20.9,36.4,14.8,43.7-3.2C71.7,26,51,7.9,32.1,14.1C12.3,20.6,5.8,44.8,18.3,61
			C31.1,77.6,56.7,76,69.4,60.2c12.1-15.1,14.4-41.1-3.5-52.6C49.5-2.8,21.7-3.9,9,12.8C1.9,22-0.2,34.4,0,45.8
			c0.2,11.6,3.6,23.7,13.3,30.9C35.2,93,62,77.2,78.9,61.5c1.4-1.3-0.7-3.4-2.1-2.1c-12,11.2-26.8,21.9-44,20.9
			c-7.6-0.4-15.2-3.1-20.6-8.6c-6.1-6.2-8.5-15.1-9-23.6c-0.8-14.7,2.6-33,16.5-40.9c13-7.3,33.2-4.8,45.3,3.3
			c14.6,9.8,13.1,30.8,4.6,44.3c-8.8,13.9-27.3,19.7-41.8,10.7c-14.1-8.8-17.5-29.2-6.1-41.4c11.1-11.9,32.8-11,39.5,5.3
			c8.3,20.2-21.4,40.9-35.7,22.7c-6.4-8.2-3.5-20.8,7.1-23.8c5.3-1.5,11.6,1,13.4,6.4c1.1,3.1,0.2,6.1-2.4,8.1
			c-0.7,0.6-1.6,1.2-2.6,1.4c-1.2,0.5-2.4,0.3-3.5-0.5c-3.2-0.7-3-2.9,0.6-6.6C40.2,37.2,40.2,34.2,38.3,34.2L38.3,34.2z"/>
	</g>
</g>
</svg>
