<!-- Generator: Adobe Illustrator 21.0.1, SVG Export Plug-In  -->
<svg version="1.1"
	 xmlns="http://www.w3.org/2000/svg" xmlns:xlink="http://www.w3.org/1999/xlink" xmlns:a="http://ns.adobe.com/AdobeSVGViewerExtensions/3.0/"
	 x="0px" y="0px" width="81.9px" height="67.6px" viewBox="0 0 81.9 67.6"
	 style="overflow:auto;enable-background:new 0 0 81.9 67.6;" xml:space="preserve">
<style type="text/css">
	.st0{fill:none;stroke:#fff;stroke-miterlimit:10;}
</style>
<defs>
</defs>
<g>
	<path class="st0" d="M1.5,22.3c-1.1,4-1.4,8.4-0.2,12.4s3.8,7.7,7.6,9.5c4.7,2.3,10.6,1.4,15-1.5c4.4-2.8,7.6-7.3,9.8-12
		c2.7-5.6,4.2-12,2.8-18c-2-8.2-10.7-15.4-18.8-11C9.8,6.1,3.7,13.7,1.5,22.3z"/>
	<path class="st0" d="M12.6,27.7c-1.1,4-1.4,8.4-0.2,12.4s3.8,7.7,7.6,9.5c4.7,2.3,10.6,1.4,15-1.5s7.6-7.3,9.8-12
		c2.7-5.6,4.2-12,2.8-18c-2-8.2-10.7-15.4-18.8-11C20.9,11.5,14.8,19.1,12.6,27.7z"/>
	<path class="st0" d="M23.6,33.1c-1.1,4-1.4,8.4-0.2,12.4c1.1,4,3.8,7.7,7.6,9.5c4.7,2.3,10.6,1.4,15-1.5s7.6-7.3,9.8-12
		c2.7-5.6,4.2-12,2.8-18c-2-8.2-10.7-15.4-18.8-11C32,16.9,25.9,24.5,23.6,33.1z"/>
	<path class="st0" d="M34.7,38.5c-1.1,4-1.4,8.4-0.2,12.4c1.1,4,3.8,7.7,7.6,9.5c4.7,2.3,10.6,1.4,15-1.5c4.4-2.8,7.6-7.3,9.8-12
		c2.7-5.6,4.2-12,2.8-18c-2-8.2-10.7-15.4-18.8-11C43.1,22.3,37,29.9,34.7,38.5z"/>
	<path class="st0" d="M45.8,43.9c-1.1,4-1.4,8.4-0.2,12.4c1.1,4,3.8,7.7,7.6,9.5c4.7,2.3,10.6,1.4,15-1.5c4.4-2.8,7.6-7.3,9.8-12
		c2.7-5.6,4.2-12,2.8-18c-2-8.2-10.7-15.4-18.8-11C54.2,27.6,48.1,35.3,45.8,43.9z"/>
</g>
</svg>
