<!-- Generator: Adobe Illustrator 21.0.1, SVG Export Plug-In  -->
<svg version="1.1"
	 xmlns="http://www.w3.org/2000/svg" xmlns:xlink="http://www.w3.org/1999/xlink" xmlns:a="http://ns.adobe.com/AdobeSVGViewerExtensions/3.0/"
	 x="0px" y="0px" width="76.5px" height="63.2px" viewBox="0 0 76.5 63.2" style="enable-background:new 0 0 76.5 63.2;"
	 xml:space="preserve">
<style type="text/css">
	.st0{fill:none;stroke:#fff;stroke-width:2;stroke-linecap:round;stroke-linejoin:round;stroke-miterlimit:10;}
</style>
<defs>
</defs>
<g>
	<path class="st0" d="M12.6,57.7c3.6-18.5,5.9-37.3,7-56.1"/>
	<path class="st0" d="M28.9,58.4c2.2-18.7,3.4-37.6,3.8-56.5"/>
	<path class="st0" d="M42.3,61.3c1.1-18.9,2.2-37.8,3.3-56.8"/>
	<path class="st0" d="M55.3,62.2c1.5-20.4,3-40.8,4.5-61.2"/>
	<path class="st0" d="M6.9,11.2c22.6,4.1,45.7,5.3,68.6,3.8"/>
	<path class="st0" d="M1,25.1c24.3,2.4,48.5,4.8,72.8,7.2"/>
	<path class="st0" d="M3,41.2c24,2.2,47.9,4.4,71.9,6.6"/>
</g>
</svg>
