<svg xmlns="http://www.w3.org/2000/svg" version="1.1" xmlns:xlink="http://www.w3.org/1999/xlink" width="512" height="512" x="0" y="0" viewBox="0 0 682.667 682.667" style="enable-background:new 0 0 512 512" xml:space="preserve"><g><defs><clipPath id="b" clipPathUnits="userSpaceOnUse"><path d="M0 512h512V0H0Z" fill="#3f3a64" opacity="1" data-original="#000000"></path></clipPath></defs><mask id="a"><rect width="100%" height="100%" fill="#ffffff" opacity="1" data-original="#ffffff"></rect></mask><g mask="url(#a)"><g clip-path="url(#b)" transform="matrix(1.33333 0 0 -1.33333 0 682.667)"><path d="M0 0v-63.837c0-25.743 20.864-46.607 46.608-46.607h253.178c25.744 0 46.608 20.864 46.608 46.607v369.989c0 44.409-35.995 80.404-80.404 80.404H46.608C20.864 386.556 0 365.692 0 339.948V35.142" style="stroke-width:15;stroke-linecap:round;stroke-linejoin:round;stroke-miterlimit:10;stroke-dasharray:none;stroke-opacity:1" transform="translate(7.5 117.944)" fill="none" stroke="#3f3a64" stroke-width="15" stroke-linecap="round" stroke-linejoin="round" stroke-miterlimit="10" stroke-dasharray="none" stroke-opacity="" data-original="#000000" opacity="1"></path><path d="M0 0v-36.397c0-29.809 24.157-53.967 53.967-53.967h28.866" style="stroke-width:15;stroke-linecap:round;stroke-linejoin:round;stroke-miterlimit:10;stroke-dasharray:none;stroke-opacity:1" transform="translate(271.06 504.5)" fill="none" stroke="#3f3a64" stroke-width="15" stroke-linecap="round" stroke-linejoin="round" stroke-miterlimit="10" stroke-dasharray="none" stroke-opacity="" data-original="#000000" opacity="1"></path><path d="M0 0c0 10.402 8.424 18.826 18.826 18.826 5.201 0 9.91-2.109 13.313-5.512A18.773 18.773 0 0 0 37.651 0v-97.894c0-10.402-8.423-18.826-18.825-18.826S0-108.296 0-97.894" style="stroke-width:15;stroke-linecap:round;stroke-linejoin:round;stroke-miterlimit:10;stroke-dasharray:none;stroke-opacity:1" transform="translate(466.849 372.72)" fill="none" stroke="#3f3a64" stroke-width="15" stroke-linecap="round" stroke-linejoin="round" stroke-miterlimit="10" stroke-dasharray="none" stroke-opacity="" data-original="#000000" opacity="1"></path><path d="M0 0V64.008c0 22.872-18.545 41.416-41.417 41.416S-82.833 86.88-82.833 64.008V0" style="stroke-width:15;stroke-linecap:round;stroke-linejoin:round;stroke-miterlimit:10;stroke-dasharray:none;stroke-opacity:1" transform="translate(466.849 346.364)" fill="none" stroke="#3f3a64" stroke-width="15" stroke-linecap="round" stroke-linejoin="round" stroke-miterlimit="10" stroke-dasharray="none" stroke-opacity="" data-original="#000000" opacity="1"></path><path d="M0 0V-110.193" style="stroke-width:15;stroke-linecap:round;stroke-linejoin:round;stroke-miterlimit:10;stroke-dasharray:none;stroke-opacity:1" transform="translate(466.849 308.712)" fill="none" stroke="#3f3a64" stroke-width="15" stroke-linecap="round" stroke-linejoin="round" stroke-miterlimit="10" stroke-dasharray="none" stroke-opacity="" data-original="#000000" opacity="1"></path><path d="M0 0v-26.286c0-5.572-.351-11.135-1.034-16.637a134.092 134.092 0 0 0-13.143-43.404l-8.414-16.838" style="stroke-width:15;stroke-linecap:round;stroke-linejoin:round;stroke-miterlimit:10;stroke-dasharray:none;stroke-opacity:1" transform="translate(466.849 163.377)" fill="none" stroke="#3f3a64" stroke-width="15" stroke-linecap="round" stroke-linejoin="round" stroke-miterlimit="10" stroke-dasharray="none" stroke-opacity="" data-original="#000000" opacity="1"></path><path d="M0 0v-171.621c0-5.572.351-11.134 1.044-16.637a133.805 133.805 0 0 1 13.133-43.404l8.414-16.838" style="stroke-width:15;stroke-linecap:round;stroke-linejoin:round;stroke-miterlimit:10;stroke-dasharray:none;stroke-opacity:1" transform="translate(384.015 308.712)" fill="none" stroke="#3f3a64" stroke-width="15" stroke-linecap="round" stroke-linejoin="round" stroke-miterlimit="10" stroke-dasharray="none" stroke-opacity="" data-original="#000000" opacity="1"></path><path d="M0 0v-33.886c0-10.402-8.424-18.826-18.826-18.826-10.402 0-18.825 8.424-18.825 18.826V0z" style="stroke-width:15;stroke-linecap:round;stroke-linejoin:round;stroke-miterlimit:10;stroke-dasharray:none;stroke-opacity:1" transform="translate(444.258 60.212)" fill="none" stroke="#3f3a64" stroke-width="15" stroke-linecap="round" stroke-linejoin="round" stroke-miterlimit="10" stroke-dasharray="none" stroke-opacity="" data-original="#000000" opacity="1"></path><path d="M466.849 308.712h-82.833v37.651h82.833z" style="stroke-width:15;stroke-linecap:round;stroke-linejoin:round;stroke-miterlimit:10;stroke-dasharray:none;stroke-opacity:1" fill="none" stroke="#3f3a64" stroke-width="15" stroke-linecap="round" stroke-linejoin="round" stroke-miterlimit="10" stroke-dasharray="none" stroke-opacity="" data-original="#000000" opacity="1"></path><path d="M0 0h-80.755" style="stroke-width:15;stroke-linecap:round;stroke-linejoin:round;stroke-miterlimit:10;stroke-dasharray:none;stroke-opacity:1" transform="translate(465.814 120.454)" fill="none" stroke="#3f3a64" stroke-width="15" stroke-linecap="round" stroke-linejoin="round" stroke-miterlimit="10" stroke-dasharray="none" stroke-opacity="" data-original="#000000" opacity="1"></path><path d="M0 0h-120.485c-8.313 0-15.061 6.747-15.061 15.061 0 4.156 1.687 7.921 4.418 10.642a14.977 14.977 0 0 0 10.643 4.418H0c8.313 0 15.061-6.747 15.061-15.06 0-4.157-1.687-7.922-4.418-10.643A14.977 14.977 0 0 0 0 0Z" style="stroke-width:15;stroke-linecap:round;stroke-linejoin:round;stroke-miterlimit:10;stroke-dasharray:none;stroke-opacity:1" transform="translate(180.697 338.833)" fill="none" stroke="#0270c1" stroke-width="15" stroke-linecap="round" stroke-linejoin="round" stroke-miterlimit="10" stroke-dasharray="none" stroke-opacity="" data-original="#000000" opacity="1"></path><path d="M0 0h-120.485c-8.313 0-15.06 6.747-15.06 15.061 0 4.156 1.686 7.921 4.417 10.642a14.977 14.977 0 0 0 10.643 4.418H0c8.314 0 15.061-6.747 15.061-15.06 0-4.157-1.687-7.922-4.418-10.643A14.977 14.977 0 0 0 0 0Z" style="stroke-width:15;stroke-linecap:round;stroke-linejoin:round;stroke-miterlimit:10;stroke-dasharray:none;stroke-opacity:1" transform="translate(301.182 75.273)" fill="none" stroke="#0270c1" stroke-width="15" stroke-linecap="round" stroke-linejoin="round" stroke-miterlimit="10" stroke-dasharray="none" stroke-opacity="" data-original="#000000" opacity="1"></path><path d="M0 0h-240.97c-8.313 0-15.06 6.747-15.06 15.061 0 4.156 1.687 7.921 4.418 10.642a14.974 14.974 0 0 0 10.642 4.418H0c8.314 0 15.061-6.747 15.061-15.06 0-4.157-1.687-7.922-4.418-10.643A14.977 14.977 0 0 0 0 0Z" style="stroke-width:15;stroke-linecap:round;stroke-linejoin:round;stroke-miterlimit:10;stroke-dasharray:none;stroke-opacity:1" transform="translate(301.182 271.06)" fill="none" stroke="#0270c1" stroke-width="15" stroke-linecap="round" stroke-linejoin="round" stroke-miterlimit="10" stroke-dasharray="none" stroke-opacity="" data-original="#000000" opacity="1"></path><path d="M0 0h-240.97c-8.313 0-15.06 6.747-15.06 15.061 0 4.156 1.687 7.921 4.418 10.642a14.974 14.974 0 0 0 10.642 4.418H0c8.314 0 15.061-6.747 15.061-15.06 0-4.157-1.687-7.922-4.418-10.643A14.977 14.977 0 0 0 0 0Z" style="stroke-width:15;stroke-linecap:round;stroke-linejoin:round;stroke-miterlimit:10;stroke-dasharray:none;stroke-opacity:1" transform="translate(301.182 203.288)" fill="none" stroke="#0270c1" stroke-width="15" stroke-linecap="round" stroke-linejoin="round" stroke-miterlimit="10" stroke-dasharray="none" stroke-opacity="" data-original="#000000" opacity="1"></path><path d="M0 0h-240.97c-8.313 0-15.06 6.747-15.06 15.061 0 4.156 1.687 7.921 4.418 10.642a14.974 14.974 0 0 0 10.642 4.418H0c8.314 0 15.061-6.747 15.061-15.06 0-4.157-1.687-7.922-4.418-10.643A14.977 14.977 0 0 0 0 0Z" style="stroke-width:15;stroke-linecap:round;stroke-linejoin:round;stroke-miterlimit:10;stroke-dasharray:none;stroke-opacity:1" transform="translate(301.182 135.515)" fill="none" stroke="#0270c1" stroke-width="15" stroke-linecap="round" stroke-linejoin="round" stroke-miterlimit="10" stroke-dasharray="none" stroke-opacity="" data-original="#000000" opacity="1"></path><path d="M0 0v-12.049" style="stroke-width:15;stroke-linecap:round;stroke-linejoin:round;stroke-miterlimit:10;stroke-dasharray:none;stroke-opacity:1" transform="translate(64.53 466.849)" fill="none" stroke="#3f3a64" stroke-width="15" stroke-linecap="round" stroke-linejoin="round" stroke-miterlimit="10" stroke-dasharray="none" stroke-opacity="" data-original="#000000" opacity="1"></path><path d="M0 0c0 14.699-10.653 16.085-23.796 16.085-13.133 0-23.785-1.386-23.785-16.085 0-14.699 10.652-26.617 23.785-26.617C-10.653-26.617 0-14.699 0 0Z" style="stroke-width:15;stroke-linecap:round;stroke-linejoin:round;stroke-miterlimit:10;stroke-dasharray:none;stroke-opacity:1" transform="translate(163.357 444.8)" fill="none" stroke="#3f3a64" stroke-width="15" stroke-linecap="round" stroke-linejoin="round" stroke-miterlimit="10" stroke-dasharray="none" stroke-opacity="" data-original="#000000" opacity="1"></path><path d="M0 0v-12.049" style="stroke-width:15;stroke-linecap:round;stroke-linejoin:round;stroke-miterlimit:10;stroke-dasharray:none;stroke-opacity:1" transform="translate(214.593 466.849)" fill="none" stroke="#3f3a64" stroke-width="15" stroke-linecap="round" stroke-linejoin="round" stroke-miterlimit="10" stroke-dasharray="none" stroke-opacity="" data-original="#000000" opacity="1"></path></g></g></g></svg>
