<svg xmlns="http://www.w3.org/2000/svg" version="1.1" xmlns:xlink="http://www.w3.org/1999/xlink" width="512" height="512" x="0" y="0" viewBox="0 0 32 32" style="enable-background:new 0 0 512 512" xml:space="preserve" class=""><g><path d="M9.67 8.454h9.243a.9.9 0 0 0 0-1.8H9.67a.9.9 0 0 0 0 1.8zM9.67 13.347h4.155a.9.9 0 0 0 0-1.8H9.67a.9.9 0 0 0 0 1.8z" fill="#0270c1" opacity="1" data-original="#000000" class=""></path><path d="M24.21 1.1H7.79a4.365 4.365 0 0 0-4.36 4.36v18.25a4.365 4.365 0 0 0 4.36 4.36h4.56a.9.9 0 0 0 0-1.8H7.79a2.563 2.563 0 0 1-2.56-2.56V5.46A2.562 2.562 0 0 1 7.79 2.9h16.42a2.563 2.563 0 0 1 2.56 2.56v18.25a2.543 2.543 0 0 1-1.759 2.425.9.9 0 1 0 .559 1.711 4.34 4.34 0 0 0 3.001-4.136V5.46A4.367 4.367 0 0 0 24.21 1.1z" fill="#0270c1" opacity="1" data-original="#000000" class=""></path><path d="M18.821 16.677a4.813 4.813 0 0 0-4.808 4.807c0 1.337.551 2.546 1.435 3.418V30a.9.9 0 0 0 1.395.752l1.979-1.298 1.979 1.298a.898.898 0 0 0 .922.039.9.9 0 0 0 .473-.792V24.9a4.792 4.792 0 0 0 1.434-3.418 4.814 4.814 0 0 0-4.809-4.805zm0 1.8c1.657 0 3.006 1.349 3.006 3.007s-1.349 3.007-3.006 3.007c-1.658 0-3.007-1.349-3.007-3.007s1.349-3.007 3.007-3.007zm1.573 9.856-1.078-.708a.904.904 0 0 0-.988 0l-1.078.708v-2.328a4.746 4.746 0 0 0 1.572.286 4.74 4.74 0 0 0 1.572-.286z" fill="#0270c1" opacity="1" data-original="#000000" class=""></path></g></svg>
