<svg width="17" height="17" viewBox="0 0 17 17" fill="none" xmlns="http://www.w3.org/2000/svg">
<path d="M13.8834 14.5C13.9945 14.5 14.1112 14.4973 14.2334 14.492C14.3556 14.4862 14.4723 14.4778 14.5834 14.4667V10.5667L11.25 9.9L9.31671 11.8333C8.47226 11.3222 7.69715 10.7167 6.99137 10.0167C6.28604 9.31667 5.70004 8.56667 5.23337 7.76667L7.13337 5.85L6.51671 2.5H2.61671C2.59448 2.61111 2.58337 2.72778 2.58337 2.85V3.2C2.58337 4.63333 2.90293 6.03044 3.54204 7.39133C4.18071 8.75267 5.02515 9.96111 6.07537 11.0167C7.12515 12.0722 8.33048 12.9167 9.69137 13.55C11.0527 14.1833 12.45 14.5 13.8834 14.5Z" fill="#1180B7"/>
</svg>
